<svg width="185" height="46" viewBox="0 0 185 46" fill="none" xmlns="http://www.w3.org/2000/svg">
<path d="M52.8033 26.4215C52.8007 26.5812 52.7349 26.7332 52.6204 26.8445C52.5059 26.9558 52.3521 27.0173 52.1924 27.0155H40.9416C41.2301 29.7984 43.3174 32.3439 46.2701 32.3439C48.2894 32.3439 49.7828 31.5802 50.9027 29.9681C50.9549 29.8835 51.027 29.8129 51.1128 29.7626C51.1986 29.7123 51.2955 29.6838 51.3949 29.6797C51.469 29.6776 51.5427 29.6906 51.6116 29.718C51.6805 29.7454 51.7431 29.7866 51.7955 29.839C51.848 29.8914 51.8891 29.954 51.9165 30.0229C51.9439 30.0918 51.957 30.1655 51.9549 30.2397C51.9552 30.342 51.9258 30.4423 51.87 30.5281C50.7331 32.4966 48.4761 33.4639 46.2701 33.4639C42.4859 33.4639 39.7708 30.07 39.7708 26.4555C39.7708 22.841 42.4689 19.4471 46.2701 19.4471C50.0712 19.4471 52.7864 22.807 52.8033 26.4215ZM51.5985 25.8955C51.3609 23.1125 49.2228 20.567 46.2701 20.567C43.3174 20.567 41.2301 23.1125 40.9416 25.8955H51.5985Z" fill="#3B414F"/>
<path d="M66.4809 19.7186C66.628 19.7228 66.768 19.7832 66.8721 19.8873C66.9762 19.9914 67.0366 20.1314 67.0408 20.2786C67.043 20.3527 67.0299 20.4264 67.0025 20.4953C66.9751 20.5642 66.9339 20.6268 66.8815 20.6792C66.8291 20.7316 66.7665 20.7728 66.6976 20.8002C66.6287 20.8276 66.555 20.8407 66.4809 20.8385H63.4603V32.7002C63.459 32.8483 63.3995 32.99 63.2948 33.0947C63.1901 33.1995 63.0484 33.2589 62.9003 33.2602C62.7531 33.256 62.6131 33.1956 62.509 33.0915C62.4049 32.9874 62.3446 32.8474 62.3403 32.7002V20.8385H59.4385C59.3644 20.8407 59.2906 20.8276 59.2217 20.8002C59.1528 20.7728 59.0903 20.7316 59.0378 20.6792C58.9854 20.6268 58.9442 20.5642 58.9168 20.4953C58.8895 20.4264 58.8764 20.3527 58.8785 20.2786C58.8798 20.1304 58.9393 19.9888 59.044 19.884C59.1487 19.7793 59.2904 19.7199 59.4385 19.7186H62.3403V15.3913C62.3406 15.2479 62.392 15.1094 62.4853 15.0005C62.5786 14.8916 62.7077 14.8196 62.8494 14.7974C62.9286 14.7869 63.0091 14.7936 63.0854 14.8171C63.1618 14.8405 63.2322 14.8802 63.2918 14.9334C63.3514 14.9865 63.3988 15.0519 63.4308 15.1251C63.4629 15.1983 63.4787 15.2775 63.4773 15.3574V19.7186H66.4809Z" fill="#3B414F"/>
<path d="M84.8927 25.4543V32.6324C84.8884 32.7795 84.8281 32.9195 84.7239 33.0236C84.6198 33.1277 84.4799 33.1881 84.3327 33.1924C84.2586 33.1945 84.1848 33.1814 84.1159 33.154C84.047 33.1266 83.9845 33.0855 83.932 33.033C83.8796 32.9806 83.8384 32.918 83.811 32.8491C83.7836 32.7802 83.7706 32.7065 83.7727 32.6324V25.4543C83.7727 23.0276 82.3982 20.618 79.7 20.618C76.2382 20.618 74.7449 23.6385 74.9486 26.7439C74.9486 26.8288 74.9825 27.1852 74.9825 27.2361V32.6154C74.9822 32.7588 74.9308 32.8974 74.8375 33.0062C74.7442 33.1151 74.6151 33.1871 74.4734 33.2093C74.3942 33.2198 74.3137 33.2131 74.2374 33.1897C74.161 33.1662 74.0906 33.1265 74.031 33.0734C73.9714 33.0202 73.924 32.9548 73.892 32.8816C73.86 32.8084 73.8441 32.7292 73.8455 32.6493V9.04475C73.8469 8.89664 73.9063 8.75498 74.011 8.65024C74.1158 8.54551 74.2574 8.48608 74.4055 8.48476C74.5527 8.48902 74.6927 8.54939 74.7968 8.6535C74.9009 8.75761 74.9613 8.89758 74.9655 9.04475V22.3828C75.9328 20.6519 77.6637 19.481 79.6831 19.481C83.0091 19.481 84.8927 22.3828 84.8927 25.4543Z" fill="#3B414F"/>
<path d="M105.103 26.4215C105.101 26.5812 105.035 26.7332 104.92 26.8445C104.806 26.9558 104.652 27.0173 104.492 27.0155H93.2417C93.5302 29.7984 95.6174 32.3439 98.5701 32.3439C100.59 32.3439 102.083 31.5802 103.203 29.9681C103.255 29.8835 103.327 29.8129 103.413 29.7626C103.499 29.7123 103.596 29.6838 103.695 29.6797C103.769 29.6776 103.843 29.6906 103.912 29.718C103.981 29.7454 104.043 29.7866 104.096 29.839C104.148 29.8914 104.189 29.954 104.217 30.0229C104.244 30.0918 104.257 30.1655 104.255 30.2397C104.255 30.342 104.226 30.4423 104.17 30.5281C103.033 32.4966 100.776 33.4639 98.5701 33.4639C94.7859 33.4639 92.0708 30.07 92.0708 26.4555C92.0708 22.841 94.769 19.4471 98.5701 19.4471C102.337 19.4471 105.086 22.807 105.103 26.4215ZM103.882 25.8955C103.644 23.1125 101.506 20.567 98.5532 20.567C95.6005 20.567 93.5132 23.1125 93.2247 25.8955H103.882Z" fill="#3B414F"/>
<path d="M118.933 20.2446C118.944 20.3953 118.895 20.5441 118.796 20.6585C118.698 20.773 118.558 20.8438 118.407 20.8555C115.098 21.3476 113.605 24.0458 113.605 27.1851V32.5645C113.605 32.7079 113.553 32.8464 113.46 32.9553C113.367 33.0642 113.238 33.1362 113.096 33.1584C113.017 33.1689 112.936 33.1622 112.86 33.1388C112.784 33.1153 112.713 33.0756 112.654 33.0224C112.594 32.9693 112.547 32.9039 112.515 32.8307C112.483 32.7575 112.467 32.6783 112.468 32.5984V20.3295C112.468 20.1861 112.52 20.0475 112.613 19.9386C112.706 19.8297 112.836 19.7577 112.977 19.7355C113.056 19.725 113.137 19.7317 113.213 19.7552C113.29 19.7786 113.36 19.8183 113.42 19.8715C113.479 19.9246 113.527 19.9901 113.559 20.0632C113.591 20.1364 113.606 20.2157 113.605 20.2955V22.79C114.538 21.2119 116.388 19.7186 118.323 19.7186C118.611 19.7186 118.933 19.9222 118.933 20.2446Z" fill="#3B414F"/>
<path d="M137.43 26.4215C137.428 26.5812 137.362 26.7332 137.247 26.8445C137.133 26.9558 136.979 27.0173 136.819 27.0155H125.569C125.857 29.7984 127.944 32.3439 130.897 32.3439C132.916 32.3439 134.41 31.5802 135.53 29.9681C135.582 29.8835 135.654 29.8129 135.74 29.7626C135.826 29.7123 135.922 29.6838 136.022 29.6797C136.096 29.6776 136.17 29.6906 136.239 29.718C136.307 29.7454 136.37 29.7866 136.422 29.839C136.475 29.8914 136.516 29.954 136.543 30.0229C136.571 30.0918 136.584 30.1655 136.582 30.2397C136.582 30.342 136.553 30.4423 136.497 30.5281C135.36 32.4966 133.103 33.4639 130.897 33.4639C127.113 33.4639 124.398 30.07 124.398 26.4555C124.398 22.841 127.096 19.4471 130.897 19.4471C134.698 19.4471 137.413 22.807 137.43 26.4215ZM136.225 25.8955C135.988 23.1125 133.85 20.567 130.897 20.567C127.944 20.567 125.857 23.1125 125.569 25.8955H136.225Z" fill="#3B414F"/>
<path d="M155.622 20.3804V32.7002C155.617 32.8474 155.557 32.9874 155.453 33.0915C155.349 33.1956 155.209 33.256 155.062 33.2602C154.987 33.2624 154.914 33.2493 154.845 33.2219C154.776 33.1945 154.713 33.1533 154.661 33.1009C154.609 33.0485 154.567 32.9859 154.54 32.917C154.513 32.8481 154.5 32.7744 154.502 32.7002V30.3585C153.568 32.2081 151.922 33.5487 149.818 33.5487C146.475 33.5487 144.625 30.6469 144.625 27.5755V20.3634C144.627 20.2153 144.686 20.0736 144.791 19.9689C144.896 19.8642 145.037 19.8048 145.185 19.8034C145.333 19.8077 145.472 19.8681 145.577 19.9722C145.681 20.0763 145.741 20.2162 145.745 20.3634V27.5755C145.745 30.0021 147.12 32.4118 149.818 32.4118C153.602 32.4118 154.502 28.8651 154.502 24.9452V20.3464C154.503 20.2557 154.526 20.1665 154.569 20.0864C154.611 20.0063 154.673 19.9377 154.748 19.8862C154.822 19.8347 154.908 19.8018 154.998 19.7904C155.088 19.7789 155.18 19.7892 155.265 19.8204C155.372 19.87 155.462 19.9491 155.525 20.0483C155.588 20.1475 155.622 20.2628 155.622 20.3804Z" fill="#3B414F"/>
<path d="M184.113 25.4034V32.6154C184.109 32.7626 184.049 32.9025 183.945 33.0066C183.841 33.1108 183.701 33.1711 183.553 33.1754C183.479 33.1775 183.406 33.1645 183.337 33.1371C183.268 33.1097 183.205 33.0685 183.153 33.0161C183.1 32.9636 183.059 32.9011 183.032 32.8322C183.004 32.7633 182.991 32.6895 182.993 32.6154V25.4034C182.993 22.9767 181.619 20.601 178.921 20.601C175.527 20.601 174.237 24.2325 174.237 27.0494V32.6154C174.233 32.7626 174.173 32.9025 174.068 33.0066C173.964 33.1108 173.824 33.1711 173.677 33.1754C173.603 33.1775 173.529 33.1645 173.46 33.1371C173.392 33.1097 173.329 33.0685 173.277 33.0161C173.224 32.9636 173.183 32.9011 173.156 32.8322C173.128 32.7633 173.115 32.6895 173.117 32.6154V25.4034C173.117 22.9767 171.743 20.601 169.045 20.601C165.617 20.601 164.208 23.2991 164.327 26.8967C164.327 26.9815 164.361 27.1342 164.327 27.1852V32.5984C164.327 32.7418 164.275 32.8804 164.182 32.9893C164.089 33.0981 163.96 33.1701 163.818 33.1924C163.739 33.2029 163.658 33.1962 163.582 33.1727C163.505 33.1492 163.435 33.1096 163.375 33.0564C163.316 33.0032 163.268 32.9378 163.236 32.8646C163.204 32.7915 163.189 32.7122 163.19 32.6324V20.3295C163.19 20.1861 163.242 20.0475 163.335 19.9386C163.428 19.8298 163.557 19.7578 163.699 19.7355C163.778 19.725 163.859 19.7317 163.935 19.7552C164.012 19.7787 164.082 19.8183 164.142 19.8715C164.201 19.9247 164.249 19.9901 164.281 20.0633C164.313 20.1364 164.328 20.2157 164.327 20.2955V22.3488C165.294 20.618 167.025 19.481 169.045 19.481C171.335 19.481 173.117 20.9404 173.847 23.0616C174.78 20.9573 176.596 19.481 178.921 19.481C182.23 19.481 184.113 22.3488 184.113 25.4034Z" fill="#3B414F"/>
<path opacity="0.6" d="M14.9275 16.9865L0.842773 23.384L14.9275 31.716L29.0291 23.384L14.9275 16.9865Z" fill="#3B414F"/>
<path opacity="0.45" d="M0.842773 23.384L14.9275 31.716V0L0.842773 23.384Z" fill="#3B414F"/>
<path opacity="0.8" d="M14.9275 0V31.716L29.0292 23.384L14.9275 0Z" fill="#3B414F"/>
<path opacity="0.45" d="M0.842773 26.0652L14.9275 45.9195V34.3802L0.842773 26.0652Z" fill="#3B414F"/>
<path opacity="0.8" d="M14.9275 34.3802V45.9195L29.0292 26.0652L14.9275 34.3802Z" fill="#3B414F"/>
</svg>
