<svg width="205" height="40" viewBox="0 0 205 40" fill="none" xmlns="http://www.w3.org/2000/svg">
<path d="M13.0986 38.363L12.9288 38.2951L0.876723 21.2185L0.842773 21.0148L9.56782 2.03698L9.73757 1.93513L30.5147 0L30.6845 0.0679033L42.7366 17.1445L42.7705 17.3482L34.0455 36.3261L33.8757 36.4279L13.0986 38.363ZM1.28412 21.0827L13.2004 37.9556L33.7399 36.0545L42.3631 17.2803L30.4468 0.407399L9.90731 2.30858L1.28412 21.0827Z" fill="#3B414F"/>
<path d="M13.0307 38.3291L9.70361 20.9469V1.96909L25.9655 6.75598L42.8045 17.2464L30.2771 28.3819L13.0307 38.3291ZM9.87336 2.24068V20.9469L13.1665 38.0235L30.1413 28.2121L42.431 17.2804L25.8297 6.95967L9.87336 2.24068Z" fill="#3B414F"/>
<path d="M26.8142 6.95963C26.8142 7.29913 26.5426 7.57073 26.2031 7.57073C25.8636 7.57073 25.592 7.29913 25.592 6.95963C25.592 6.62013 25.8636 6.34854 26.2031 6.34854C26.5426 6.34854 26.8142 6.62013 26.8142 6.95963Z" fill="#3B414F"/>
<path d="M26.2032 8.18182C25.5242 8.18182 24.947 7.63864 24.947 6.92569C24.947 6.2467 25.4902 5.66956 26.2032 5.66956C26.8821 5.66956 27.4593 6.21275 27.4593 6.92569C27.4253 7.63864 26.8821 8.18182 26.2032 8.18182ZM26.2032 6.92569L26.1692 6.95964L26.2032 6.99359V6.92569Z" fill="#3B414F"/>
<path d="M30.8543 28.246C30.8543 28.5855 30.5827 28.8571 30.2432 28.8571C29.9037 28.8571 29.6321 28.5855 29.6321 28.246C29.6321 27.9065 29.9037 27.6349 30.2432 27.6349C30.5827 27.6349 30.8543 27.9065 30.8543 28.246Z" fill="#3B414F"/>
<path d="M30.2431 29.5022C29.5641 29.5022 28.9869 28.959 28.9869 28.2461C28.9869 27.5331 29.5301 26.9899 30.2431 26.9899C30.9221 26.9899 31.4992 27.5331 31.4992 28.2461C31.4992 28.959 30.9221 29.5022 30.2431 29.5022ZM30.2431 28.2121L30.2091 28.2461L30.2431 28.28V28.2121Z" fill="#3B414F"/>
<path d="M13.8455 38.1594C13.8455 38.4989 13.5739 38.7705 13.2344 38.7705C12.8949 38.7705 12.6233 38.4989 12.6233 38.1594C12.6233 37.8199 12.8949 37.5483 13.2344 37.5483C13.5739 37.5483 13.8455 37.8199 13.8455 38.1594Z" fill="#3B414F"/>
<path d="M13.2344 39.4155C12.5554 39.4155 11.9783 38.8723 11.9783 38.1593C11.9783 37.4803 12.5215 36.9032 13.2344 36.9032C13.9134 36.9032 14.4905 37.4464 14.4905 38.1593C14.4905 38.8383 13.9473 39.4155 13.2344 39.4155ZM13.2344 38.1254L13.2005 38.1593L13.2344 38.1933V38.1254Z" fill="#3B414F"/>
<path d="M10.3826 21.1506C10.3826 21.4901 10.111 21.7617 9.77149 21.7617C9.432 21.7617 9.1604 21.4901 9.1604 21.1506C9.1604 20.8111 9.432 20.5395 9.77149 20.5395C10.111 20.5395 10.3826 20.8111 10.3826 21.1506Z" fill="#3B414F"/>
<path d="M9.77152 22.3728C9.09252 22.3728 8.51538 21.8296 8.51538 21.1166C8.51538 20.4377 9.05857 19.8605 9.77152 19.8605C10.4505 19.8605 11.0277 20.4037 11.0277 21.1166C11.0277 21.8296 10.4505 22.3728 9.77152 22.3728ZM9.77152 21.1166L9.73757 21.1506L9.77152 21.1845V21.1166Z" fill="#3B414F"/>
<path d="M43.2118 17.2804C43.2118 17.6199 42.9402 17.8915 42.6007 17.8915C42.2612 17.8915 41.9896 17.6199 41.9896 17.2804C41.9896 16.9409 42.2612 16.6693 42.6007 16.6693C42.9402 16.6693 43.2118 16.9409 43.2118 17.2804Z" fill="#3B414F"/>
<path d="M42.6007 18.5364C41.9217 18.5364 41.3446 17.9933 41.3446 17.2803C41.3446 16.6013 41.8878 16.0242 42.6007 16.0242C43.2797 16.0242 43.8569 16.5674 43.8569 17.2803C43.8569 17.9593 43.2797 18.5364 42.6007 18.5364ZM42.6007 17.2464L42.5668 17.2803L42.6007 17.3143V17.2464Z" fill="#3B414F"/>
<path d="M10.3826 2.10483C10.3826 2.44433 10.111 2.71592 9.77149 2.71592C9.432 2.71592 9.1604 2.44433 9.1604 2.10483C9.1604 1.76534 9.432 1.49374 9.77149 1.49374C10.111 1.49374 10.3826 1.76534 10.3826 2.10483Z" fill="#3B414F"/>
<path d="M9.77152 3.361C9.09252 3.361 8.51538 2.8178 8.51538 2.10486C8.51538 1.42587 9.05857 0.848724 9.77152 0.848724C10.4505 0.848724 11.0277 1.39192 11.0277 2.10486C11.0277 2.78386 10.4505 3.361 9.77152 3.361ZM9.77152 2.07091L9.73757 2.10486L9.77152 2.13882V2.07091Z" fill="#3B414F"/>
<path d="M33.8757 36.428H33.8078L17.9873 30.8263L0.944622 21.2864L0.842773 21.1506L0.910673 20.9809L13.7097 9.23434L30.4468 0.0339966H30.6166L30.7184 0.169793L34.4529 16.6693L34.0455 36.2922L33.9436 36.4619L33.8757 36.428ZM1.38597 21.0488L18.1231 30.4528L33.672 35.9527L34.0794 16.6693L30.3789 0.475347L13.9134 9.53988L1.38597 21.0488Z" fill="#3B414F"/>
<path d="M30.311 28.314L30.2431 28.2801L9.70361 21.1506L9.77151 21.0827L26.2371 6.82391L30.311 28.314ZM9.87336 21.1167L30.1752 28.1782L26.1692 7.02761L9.87336 21.1167Z" fill="#3B414F"/>
<path d="M17.9194 31.0299L13.5739 9.06451L34.6905 16.6013L17.9194 31.0299ZM14.117 9.6756L18.157 30.283L33.9097 16.7711L14.117 9.6756Z" fill="#3B414F"/>
<path d="M9.93879 2.00038L9.58362 2.19992L13.6576 9.45125L14.0128 9.2517L9.93879 2.00038Z" fill="#3B414F"/>
<path d="M17.8482 30.5333L13.0708 38.0361L13.4144 38.2549L18.1918 30.7521L17.8482 30.5333Z" fill="#3B414F"/>
<path d="M42.6007 17.484L34.2831 16.8729L34.317 16.4655L42.6347 17.0766L42.6007 17.484Z" fill="#3B414F"/>
<path d="M52.0388 12.4255L55.3998 12.3915L55.4338 18.0611L61.9181 18.0272L61.8842 12.3576H65.2113L65.3131 27.4991L61.9521 27.5331L61.9181 20.9808L55.4338 21.0147L55.4677 27.567H52.1407L52.0388 12.4255Z" fill="#3B414F"/>
<path d="M71.8653 21.0148L66.1278 12.3576L70.2697 12.3237L73.5288 17.9933L76.8898 12.2897H80.8619L75.1923 20.9808L75.2263 27.4652H71.8992L71.8653 21.0148Z" fill="#3B414F"/>
<path d="M81.7446 12.2558L87.3803 12.2218C88.1611 12.2218 88.908 12.2897 89.6209 12.4255C90.3339 12.5613 90.945 12.799 91.4542 13.1385C91.9635 13.478 92.4048 13.9533 92.7104 14.5304C93.0159 15.1076 93.1856 15.8544 93.1856 16.7711C93.1856 17.6538 93.0498 18.4007 92.7782 19.0117C92.5066 19.6228 92.0993 20.0981 91.624 20.4376C91.1147 20.8111 90.5376 21.0487 89.8586 21.2185C89.1796 21.3882 88.4327 21.4561 87.6179 21.4561H85.1735L85.2075 27.3633L81.8804 27.3973L81.7446 12.2558ZM85.1396 18.6723H87.3803C87.6858 18.6723 87.9574 18.6383 88.263 18.5704C88.5346 18.5025 88.7722 18.4007 89.0098 18.2649C89.2475 18.1291 89.4172 17.9254 89.553 17.7217C89.6888 17.484 89.7567 17.1785 89.7567 16.839C89.7567 16.4655 89.6549 16.16 89.4851 15.9223C89.3154 15.6847 89.0777 15.5149 88.8061 15.3792C88.5346 15.2434 88.229 15.1754 87.8895 15.1415C87.55 15.1075 87.2105 15.1075 86.905 15.1075H85.2075L85.1396 18.6723Z" fill="#3B414F"/>
<path d="M95.1548 12.1879L105.475 12.154V15.2434L98.5158 15.2773L98.5497 18.0951L105.102 18.0612L105.136 21.1506L98.5497 21.1846L98.5837 24.24L105.917 24.2061V27.2955L95.2566 27.3634L95.1548 12.1879Z" fill="#3B414F"/>
<path d="M108.327 12.12L114.2 12.0861C114.981 12.0861 115.694 12.154 116.407 12.2898C117.086 12.4256 117.697 12.6972 118.24 13.0367C118.75 13.3762 119.191 13.8515 119.497 14.4286C119.802 15.0058 119.972 15.7526 119.972 16.6353C119.972 17.7217 119.7 18.6044 119.157 19.3853C118.614 20.1321 117.799 20.6074 116.713 20.8111L120.617 27.1937L116.611 27.2276L113.42 21.1846H111.756L111.79 27.2276L108.463 27.2616L108.327 12.12ZM111.688 18.3668H113.657C113.963 18.3668 114.268 18.3668 114.608 18.3328C114.947 18.2989 115.253 18.231 115.524 18.1291C115.796 18.0273 116.034 17.8575 116.203 17.6199C116.373 17.3822 116.475 17.0767 116.475 16.6693C116.475 16.2958 116.407 15.9903 116.237 15.7527C116.068 15.515 115.864 15.3453 115.626 15.2434C115.389 15.1076 115.117 15.0397 114.778 15.0058C114.472 14.9718 114.166 14.9379 113.861 14.9379H111.688V18.3668Z" fill="#3B414F"/>
<path d="M122.111 12.0521H125.438L125.506 24.1042L131.684 24.0703L131.718 27.1597L122.178 27.1936L122.111 12.0521Z" fill="#3B414F"/>
<path d="M133.382 11.9842L143.703 11.9502V15.0396L136.743 15.0736L136.777 17.8914L143.329 17.8575L143.363 20.9469L136.777 20.9808L136.811 24.0363L144.144 24.0023V27.0917L133.484 27.1596L133.382 11.9842Z" fill="#3B414F"/>
<path d="M146.554 11.9163L151.579 11.8824C152.801 11.8824 153.955 12.0182 155.042 12.2558C156.128 12.5274 157.079 12.9687 157.894 13.5459C158.708 14.157 159.353 14.9378 159.829 15.8884C160.304 16.873 160.542 18.0272 160.576 19.4192C160.576 20.6414 160.372 21.7277 159.897 22.6783C159.421 23.6289 158.81 24.4098 158.029 25.0548C157.249 25.6998 156.332 26.1751 155.313 26.5146C154.295 26.8541 153.209 27.0239 152.088 27.0239L146.622 27.0578L146.554 11.9163ZM149.949 23.9684H151.681C152.462 23.9684 153.175 23.8666 153.82 23.7308C154.499 23.561 155.042 23.3234 155.551 22.9499C156.026 22.5765 156.4 22.1012 156.705 21.524C156.977 20.9469 157.113 20.2 157.113 19.3513C157.113 18.6044 156.977 17.9593 156.671 17.4161C156.4 16.873 156.026 16.4316 155.551 16.0582C155.076 15.7187 154.533 15.4471 153.888 15.2773C153.243 15.1076 152.597 15.0057 151.885 15.0057H149.915L149.949 23.9684Z" fill="#3B414F"/>
<path d="M176.396 25.8357C175.412 26.3449 174.393 26.7184 173.307 26.956C172.254 27.1937 171.134 27.2955 170.048 27.3295C168.859 27.3295 167.773 27.1597 166.755 26.7863C165.77 26.4128 164.887 25.9036 164.14 25.1906C163.393 24.5116 162.85 23.6629 162.409 22.6784C162.002 21.6938 161.798 20.6074 161.764 19.3853C161.764 18.1631 161.968 17.0767 162.341 16.0922C162.748 15.1076 163.292 14.2589 164.039 13.5799C164.751 12.8669 165.634 12.3577 166.619 11.9843C167.603 11.6108 168.69 11.4071 169.878 11.4071C171.1 11.4071 172.22 11.5429 173.239 11.8145C174.257 12.12 175.174 12.5953 175.921 13.3083L173.578 15.8885C173.103 15.4132 172.594 15.0737 172.017 14.836C171.44 14.5984 170.727 14.4626 169.878 14.4965C169.165 14.4965 168.52 14.6323 167.943 14.87C167.366 15.1076 166.856 15.4471 166.449 15.8885C166.042 16.3298 165.736 16.839 165.498 17.4501C165.295 18.0612 165.159 18.7063 165.159 19.3853C165.159 20.0982 165.261 20.7432 165.498 21.3543C165.736 21.9315 166.042 22.4407 166.449 22.8821C166.856 23.3234 167.366 23.6629 167.943 23.9006C168.52 24.1382 169.165 24.274 169.878 24.2401C170.591 24.2401 171.236 24.1382 171.745 23.9685C172.254 23.7987 172.696 23.629 173.001 23.4592V21.0148H170.285V17.9254L176.226 17.8915L176.396 25.8357Z" fill="#3B414F"/>
<path d="M179.146 11.7466L189.467 11.7126V14.7681L182.507 14.836L182.541 17.6538L189.093 17.6199L189.127 20.7093L182.541 20.7432L182.575 23.7987L189.908 23.7647V26.8541L179.248 26.922L179.146 11.7466Z" fill="#3B414F"/>
<path d="M192.318 11.6787L198.192 11.6447C198.972 11.6447 199.685 11.7126 200.398 11.8484C201.077 11.9842 201.688 12.2558 202.232 12.5953C202.741 12.9348 203.182 13.4101 203.488 13.9872C203.793 14.5644 203.963 15.3113 203.963 16.194C203.963 17.2803 203.691 18.163 203.148 18.9439C202.605 19.6908 201.79 20.1661 200.704 20.3698L204.608 26.7523L200.602 26.7862L197.411 20.7432H195.747L195.781 26.7862H192.454L192.318 11.6787ZM195.679 17.9254H197.648C197.954 17.9254 198.26 17.9254 198.599 17.8914C198.939 17.8575 199.244 17.7896 199.516 17.6877C199.787 17.5859 200.025 17.4161 200.195 17.1785C200.364 16.9408 200.466 16.6353 200.466 16.2279C200.466 15.8545 200.398 15.5489 200.229 15.3113C200.059 15.0736 199.855 14.9039 199.618 14.802C199.38 14.6662 199.108 14.5983 198.769 14.5644C198.463 14.5304 198.158 14.4965 197.852 14.4965H195.679V17.9254Z" fill="#3B414F"/>
</svg>
