<svg width="491" height="146" viewBox="0 0 491 146" fill="none" xmlns="http://www.w3.org/2000/svg">
<path d="M53.8034 26.4215C53.8007 26.5811 53.7349 26.7332 53.6205 26.8445C53.506 26.9558 53.3521 27.0173 53.1925 27.0154H41.9417C42.2302 29.7984 44.3174 32.3439 47.2701 32.3439C49.2895 32.3439 50.7828 31.5802 51.9028 29.9681C51.9549 29.8834 52.0271 29.8128 52.1129 29.7625C52.1987 29.7122 52.2955 29.6838 52.3949 29.6797C52.469 29.6775 52.5428 29.6906 52.6117 29.718C52.6806 29.7454 52.7432 29.7866 52.7956 29.839C52.848 29.8914 52.8892 29.954 52.9166 30.0229C52.944 30.0918 52.957 30.1655 52.9549 30.2396C52.9553 30.342 52.9258 30.4423 52.8701 30.5281C51.7331 32.4966 49.4762 33.4639 47.2701 33.4639C43.4859 33.4639 40.7708 30.07 40.7708 26.4554C40.7708 22.8409 43.469 19.447 47.2701 19.447C51.0713 19.447 53.7864 22.807 53.8034 26.4215ZM52.5986 25.8955C52.361 23.1125 50.2228 20.567 47.2701 20.567C44.3174 20.567 42.2302 23.1125 41.9417 25.8955H52.5986Z" fill="#3B414F"/>
<path d="M67.4808 19.7186C67.628 19.7228 67.768 19.7832 67.8721 19.8873C67.9762 19.9914 68.0366 20.1314 68.0408 20.2785C68.0429 20.3527 68.0299 20.4264 68.0025 20.4953C67.9751 20.5642 67.9339 20.6268 67.8815 20.6792C67.8291 20.7316 67.7665 20.7728 67.6976 20.8002C67.6287 20.8276 67.5549 20.8407 67.4808 20.8385H64.4603V32.7002C64.4589 32.8483 64.3995 32.99 64.2948 33.0947C64.19 33.1995 64.0484 33.2589 63.9003 33.2602C63.7531 33.256 63.6131 33.1956 63.509 33.0915C63.4049 32.9874 63.3445 32.8474 63.3403 32.7002V20.8385H60.4385C60.3644 20.8407 60.2906 20.8276 60.2217 20.8002C60.1528 20.7728 60.0902 20.7316 60.0378 20.6792C59.9854 20.6268 59.9442 20.5642 59.9168 20.4953C59.8894 20.4264 59.8764 20.3527 59.8785 20.2785C59.8798 20.1304 59.9393 19.9888 60.044 19.884C60.1487 19.7793 60.2904 19.7199 60.4385 19.7186H63.3403V15.3913C63.3406 15.2479 63.392 15.1094 63.4853 15.0005C63.5786 14.8916 63.7077 14.8196 63.8494 14.7974C63.9285 14.7869 64.0091 14.7936 64.0854 14.817C64.1618 14.8405 64.2322 14.8802 64.2918 14.9334C64.3514 14.9865 64.3988 15.0519 64.4308 15.1251C64.4628 15.1983 64.4787 15.2775 64.4772 15.3574V19.7186H67.4808Z" fill="#3B414F"/>
<path d="M85.8927 25.4543V32.6324C85.8885 32.7795 85.8281 32.9195 85.724 33.0236C85.6199 33.1277 85.4799 33.1881 85.3327 33.1923C85.2586 33.1945 85.1849 33.1814 85.116 33.154C85.0471 33.1266 84.9845 33.0855 84.9321 33.033C84.8796 32.9806 84.8385 32.918 84.8111 32.8491C84.7837 32.7802 84.7706 32.7065 84.7727 32.6324V25.4543C84.7727 23.0276 83.3982 20.6179 80.7001 20.6179C77.2383 20.6179 75.745 23.6385 75.9486 26.7439C75.9486 26.8288 75.9825 27.1851 75.9825 27.2361V32.6154C75.9822 32.7588 75.9308 32.8974 75.8375 33.0062C75.7442 33.1151 75.6151 33.1871 75.4734 33.2093C75.3943 33.2198 75.3137 33.2131 75.2374 33.1897C75.161 33.1662 75.0906 33.1265 75.031 33.0734C74.9714 33.0202 74.924 32.9548 74.892 32.8816C74.86 32.8084 74.8442 32.7292 74.8456 32.6493V9.04474C74.8469 8.89664 74.9063 8.75497 75.0111 8.65024C75.1158 8.5455 75.2575 8.48608 75.4056 8.48475C75.5527 8.48902 75.6927 8.54939 75.7968 8.6535C75.9009 8.7576 75.9613 8.89757 75.9656 9.04474V22.3828C76.9328 20.6519 78.6637 19.481 80.6831 19.481C84.0091 19.481 85.8927 22.3828 85.8927 25.4543Z" fill="#3B414F"/>
<path d="M106.103 26.4215C106.101 26.5811 106.035 26.7332 105.921 26.8445C105.806 26.9558 105.652 27.0173 105.493 27.0154H94.2417C94.5302 29.7984 96.6175 32.3439 99.5702 32.3439C101.59 32.3439 103.083 31.5802 104.203 29.9681C104.255 29.8834 104.327 29.8128 104.413 29.7625C104.499 29.7122 104.596 29.6838 104.695 29.6797C104.769 29.6775 104.843 29.6906 104.912 29.718C104.981 29.7454 105.043 29.7866 105.096 29.839C105.148 29.8914 105.189 29.954 105.217 30.0229C105.244 30.0918 105.257 30.1655 105.255 30.2396C105.255 30.342 105.226 30.4423 105.17 30.5281C104.033 32.4966 101.776 33.4639 99.5702 33.4639C95.786 33.4639 93.0708 30.07 93.0708 26.4554C93.0708 22.8409 95.769 19.447 99.5702 19.447C103.337 19.447 106.086 22.807 106.103 26.4215ZM104.882 25.8955C104.644 23.1125 102.506 20.567 99.5532 20.567C96.6005 20.567 94.5133 23.1125 94.2248 25.8955H104.882Z" fill="#3B414F"/>
<path d="M119.934 20.2446C119.944 20.3953 119.895 20.5441 119.796 20.6585C119.698 20.773 119.558 20.8438 119.407 20.8555C116.098 21.3476 114.605 24.0458 114.605 27.1851V32.5645C114.605 32.7079 114.553 32.8464 114.46 32.9553C114.367 33.0642 114.238 33.1362 114.096 33.1584C114.017 33.1689 113.936 33.1622 113.86 33.1387C113.784 33.1153 113.713 33.0756 113.654 33.0224C113.594 32.9693 113.547 32.9039 113.515 32.8307C113.483 32.7575 113.467 32.6783 113.468 32.5984V20.3295C113.468 20.1861 113.52 20.0475 113.613 19.9386C113.706 19.8297 113.836 19.7577 113.977 19.7355C114.056 19.725 114.137 19.7317 114.213 19.7552C114.29 19.7786 114.36 19.8183 114.42 19.8715C114.479 19.9246 114.527 19.9901 114.559 20.0632C114.591 20.1364 114.607 20.2156 114.605 20.2955V22.79C115.538 21.2119 117.388 19.7185 119.323 19.7185C119.611 19.7185 119.934 19.9222 119.934 20.2446Z" fill="#3B414F"/>
<path d="M138.43 26.4215C138.428 26.5811 138.362 26.7332 138.247 26.8445C138.133 26.9558 137.979 27.0173 137.819 27.0154H126.569C126.857 29.7984 128.944 32.3439 131.897 32.3439C133.916 32.3439 135.41 31.5802 136.53 29.9681C136.582 29.8834 136.654 29.8128 136.74 29.7625C136.826 29.7122 136.922 29.6838 137.022 29.6797C137.096 29.6775 137.17 29.6906 137.239 29.718C137.308 29.7454 137.37 29.7866 137.423 29.839C137.475 29.8914 137.516 29.954 137.544 30.0229C137.571 30.0918 137.584 30.1655 137.582 30.2396C137.582 30.342 137.553 30.4423 137.497 30.5281C136.36 32.4966 134.103 33.4639 131.897 33.4639C128.113 33.4639 125.398 30.07 125.398 26.4554C125.398 22.8409 128.096 19.447 131.897 19.447C135.698 19.447 138.413 22.807 138.43 26.4215ZM137.226 25.8955C136.988 23.1125 134.85 20.567 131.897 20.567C128.944 20.567 126.857 23.1125 126.569 25.8955H137.226Z" fill="#3B414F"/>
<path d="M156.622 20.3804V32.7002C156.617 32.8474 156.557 32.9874 156.453 33.0915C156.349 33.1956 156.209 33.256 156.062 33.2602C155.988 33.2623 155.914 33.2493 155.845 33.2219C155.776 33.1945 155.713 33.1533 155.661 33.1009C155.609 33.0485 155.567 32.9859 155.54 32.917C155.513 32.8481 155.5 32.7744 155.502 32.7002V30.3584C154.568 32.2081 152.922 33.5487 150.818 33.5487C147.475 33.5487 145.625 30.6469 145.625 27.5755V20.3634C145.627 20.2153 145.686 20.0736 145.791 19.9689C145.896 19.8642 146.037 19.8047 146.185 19.8034C146.333 19.8077 146.473 19.8681 146.577 19.9722C146.681 20.0763 146.741 20.2162 146.745 20.3634V27.5755C146.745 30.0021 148.12 32.4118 150.818 32.4118C154.602 32.4118 155.502 28.8651 155.502 24.9452V20.3464C155.503 20.2557 155.526 20.1665 155.569 20.0864C155.611 20.0063 155.673 19.9377 155.748 19.8862C155.822 19.8346 155.908 19.8018 155.998 19.7904C156.088 19.7789 156.18 19.7892 156.265 19.8204C156.372 19.87 156.462 19.949 156.525 20.0483C156.588 20.1475 156.622 20.2628 156.622 20.3804Z" fill="#3B414F"/>
<path d="M185.113 25.4034V32.6154C185.109 32.7626 185.049 32.9025 184.945 33.0066C184.841 33.1108 184.701 33.1711 184.553 33.1754C184.479 33.1775 184.406 33.1645 184.337 33.1371C184.268 33.1097 184.205 33.0685 184.153 33.0161C184.1 32.9636 184.059 32.9011 184.032 32.8322C184.004 32.7633 183.991 32.6895 183.993 32.6154V25.4034C183.993 22.9767 182.619 20.601 179.921 20.601C176.527 20.601 175.237 24.2325 175.237 27.0494V32.6154C175.233 32.7626 175.173 32.9025 175.068 33.0066C174.964 33.1108 174.824 33.1711 174.677 33.1754C174.603 33.1775 174.529 33.1645 174.46 33.1371C174.392 33.1097 174.329 33.0685 174.277 33.0161C174.224 32.9636 174.183 32.9011 174.156 32.8322C174.128 32.7633 174.115 32.6895 174.117 32.6154V25.4034C174.117 22.9767 172.743 20.601 170.045 20.601C166.617 20.601 165.208 23.2991 165.327 26.8967C165.327 26.9815 165.361 27.1342 165.327 27.1852V32.5984C165.327 32.7418 165.275 32.8804 165.182 32.9893C165.089 33.0981 164.96 33.1701 164.818 33.1924C164.739 33.2029 164.658 33.1962 164.582 33.1727C164.505 33.1492 164.435 33.1096 164.375 33.0564C164.316 33.0032 164.268 32.9378 164.236 32.8646C164.204 32.7915 164.189 32.7122 164.19 32.6324V20.3295C164.19 20.1861 164.242 20.0475 164.335 19.9386C164.428 19.8298 164.557 19.7578 164.699 19.7355C164.778 19.725 164.859 19.7317 164.935 19.7552C165.012 19.7787 165.082 19.8183 165.142 19.8715C165.201 19.9247 165.249 19.9901 165.281 20.0633C165.313 20.1364 165.328 20.2157 165.327 20.2955V22.3488C166.294 20.618 168.025 19.481 170.045 19.481C172.335 19.481 174.117 20.9404 174.847 23.0616C175.78 20.9573 177.596 19.481 179.921 19.481C183.23 19.481 185.113 22.3488 185.113 25.4034Z" fill="#3B414F"/>
<path d="M15.9275 16.9865L1.84277 23.384L15.9275 31.716L30.0291 23.384L15.9275 16.9865Z" fill="#3B414F"/>
<path d="M1.84277 23.384L15.9275 31.716V0L1.84277 23.384Z" fill="#3B414F"/>
<path d="M15.9275 0V31.716L30.0291 23.384L15.9275 0Z" fill="#3B414F"/>
<path d="M1.84277 26.0652L15.9275 45.9195V34.3802L1.84277 26.0652Z" fill="#3B414F"/>
<path d="M15.9275 34.3802V45.9195L30.0291 26.0652L15.9275 34.3802Z" fill="#3B414F"/>
<path d="M322.932 15.0003C322.049 14.4605 320.902 14.4605 319.932 15.0003L313.049 19.1388L308.372 21.8378L301.49 25.9765C300.608 26.5161 299.461 26.5161 298.49 25.9765L293.019 22.7376C292.137 22.1977 291.519 21.2082 291.519 20.1285V13.7408C291.519 12.6612 292.049 11.6715 293.019 11.1317L298.402 7.98286C299.284 7.44306 300.431 7.44306 301.402 7.98286L306.784 11.1317C307.667 11.6715 308.284 12.6612 308.284 13.7408V17.8793L312.961 15.0903V10.9518C312.961 9.87217 312.432 8.88255 311.461 8.34274L301.49 2.40486C300.608 1.86505 299.461 1.86505 298.49 2.40486L288.343 8.34274C287.372 8.88255 286.843 9.87217 286.843 10.9518V22.9176C286.843 23.997 287.372 24.9868 288.343 25.5266L298.49 31.4645C299.372 32.0043 300.52 32.0043 301.49 31.4645L308.372 27.4158L313.049 24.627L319.932 20.5784C320.814 20.0386 321.961 20.0386 322.932 20.5784L328.314 23.7273C329.197 24.2671 329.814 25.2567 329.814 26.3363V32.724C329.814 33.8036 329.285 34.7932 328.314 35.333L322.932 38.5719C322.049 39.1118 320.902 39.1118 319.932 38.5719L314.549 35.4231C313.667 34.8833 313.049 33.8937 313.049 32.8139V28.6755L308.372 31.4645V35.6029C308.372 36.6825 308.902 37.6723 309.873 38.2119L320.02 44.15C320.902 44.6898 322.049 44.6898 323.02 44.15L333.167 38.2119C334.05 37.6723 334.667 36.6825 334.667 35.6029V23.6372C334.667 22.5578 334.138 21.568 333.167 21.0282L322.932 15.0003Z" fill="#3B414F"/>
<path d="M353.3 40.723V30.789C354.376 32.1455 356.328 32.9035 358.6 32.9035C364.379 32.9035 368.285 28.7943 368.285 22.5307C368.285 16.2672 364.698 12.158 359.078 12.158C356.488 12.158 354.495 13.1155 353.3 14.6714V12.4772H347.76V40.723H353.3ZM357.923 28.116C354.934 28.116 352.981 25.882 352.981 22.5307C352.981 19.1397 354.934 16.9056 357.923 16.9056C360.832 16.9056 362.825 19.1397 362.825 22.5307C362.825 25.882 360.832 28.116 357.923 28.116Z" fill="#3B414F"/>
<path d="M380.864 32.9035C387.041 32.9035 391.465 28.515 391.465 22.5307C391.465 16.5465 387.041 12.158 380.864 12.158C374.686 12.158 370.262 16.5465 370.262 22.5307C370.262 28.515 374.686 32.9035 380.864 32.9035ZM380.864 28.116C377.875 28.116 375.842 25.842 375.842 22.5307C375.842 19.1796 377.875 16.9056 380.864 16.9056C383.853 16.9056 385.885 19.1796 385.885 22.5307C385.885 25.842 383.853 28.116 380.864 28.116Z" fill="#3B414F"/>
<path d="M400.353 32.5843V3.74021H394.814V32.5843H400.353Z" fill="#3B414F"/>
<path d="M417.006 12.4773L412.821 25.4431L408.597 12.4773H402.937L410.231 32.4249L407.281 40.7231H412.582L415.412 32.5046L422.704 12.4773H417.006Z" fill="#3B414F"/>
<path d="M438.263 14.4719C437.147 13.0756 435.155 12.158 432.723 12.158C426.865 12.158 423.318 16.2672 423.318 22.5307C423.318 28.7943 426.865 32.9035 432.803 32.9035C435.155 32.9035 437.267 32.0259 438.303 30.5496V33.1828C438.303 35.0578 437.068 36.3744 435.394 36.3744H426.148V40.723H436.27C440.814 40.723 443.843 37.9701 443.843 33.7812V12.4772H438.263V14.4719ZM433.68 28.116C430.731 28.116 428.778 25.9219 428.778 22.5307C428.778 19.1397 430.731 16.9056 433.68 16.9056C436.669 16.9056 438.622 19.1397 438.622 22.5307C438.622 25.9219 436.669 28.116 433.68 28.116Z" fill="#3B414F"/>
<path d="M457.807 32.9035C463.985 32.9035 468.409 28.515 468.409 22.5307C468.409 16.5465 463.985 12.158 457.807 12.158C451.63 12.158 447.206 16.5465 447.206 22.5307C447.206 28.515 451.63 32.9035 457.807 32.9035ZM457.807 28.116C454.818 28.116 452.786 25.842 452.786 22.5307C452.786 19.1796 454.818 16.9056 457.807 16.9056C460.796 16.9056 462.829 19.1796 462.829 22.5307C462.829 25.842 460.796 28.116 457.807 28.116Z" fill="#3B414F"/>
<path d="M477.018 32.5843V21.5733C477.018 18.9801 478.732 17.1051 481.163 17.1051C483.475 17.1051 485.029 18.8604 485.029 21.294V32.5843H490.608V20.0573C490.608 15.4295 487.659 12.158 483.116 12.158C480.366 12.158 478.134 13.315 477.018 15.2699V12.4772H471.439V32.5843H477.018Z" fill="#3B414F"/>
<path d="M46.1089 106.301H53.5717C55.468 106.301 56.8545 106.811 57.7517 107.688C58.6285 108.442 59.0159 109.462 59.0159 110.461C59.0159 110.848 59.0159 111.338 58.8935 111.725C58.6489 112.357 58.2614 112.989 57.7517 113.499C57.507 113.744 57.2419 113.887 56.9973 114.009C57.874 114.254 58.6489 114.763 59.281 115.395C59.7907 116.028 60.0354 116.782 60.0354 117.924C60.0354 118.556 59.9131 119.31 59.648 119.82C59.4033 120.33 58.8935 120.84 58.3838 121.207C57.7517 121.594 57.1196 121.839 56.4875 122.083C55.7331 122.328 54.8359 122.328 53.9591 122.328H46.2516V106.261H46.1089V106.301ZM52.9396 112.887C53.5717 112.887 54.2038 112.765 54.8359 112.5C55.3457 112.255 55.5903 111.746 55.5903 111.236C55.5903 110.726 55.3457 110.216 54.9582 109.972C54.4485 109.584 53.8164 109.462 53.1843 109.584H49.6364V113.01H52.9192V112.887H52.9396ZM53.8164 119.331C54.4485 119.331 55.0806 119.208 55.7127 118.943C56.2224 118.699 56.4671 118.189 56.3448 117.557C56.3448 117.047 56.1001 116.537 55.7127 116.293C55.3253 116.048 54.5708 115.783 53.6941 115.783H49.5141V119.331H53.8164Z" fill="#3B414F"/>
<path d="M64.4397 106.301H67.9875V122.491H64.4397V106.301Z" fill="#3B414F"/>
<path d="M73.4113 106.301H76.7145L84.2997 116.293V106.301H87.8272V122.491H84.8094L76.8369 112.255V122.491H73.4113V106.301Z" fill="#3B414F"/>
<path d="M98.5728 106.179H101.856L108.809 122.491H105.138L103.63 118.821H96.7988L95.29 122.491H91.6197L98.5728 106.179ZM102.365 115.803L100.224 110.502L98.0834 115.803H102.365Z" fill="#3B414F"/>
<path d="M112.622 106.301H115.904L123.49 116.293V106.301H127.037V122.491H123.999L116.149 112.255V122.491H112.622V106.301Z" fill="#3B414F"/>
<path d="M139.924 122.756C138.782 122.756 137.64 122.512 136.641 122.124C134.623 121.247 133.093 119.718 132.217 117.7C131.829 116.68 131.584 115.559 131.584 114.417C131.584 112.276 132.461 110.114 133.99 108.483C134.745 107.729 135.642 107.097 136.641 106.709C137.783 106.199 138.925 106.077 140.046 106.077C140.678 106.077 141.433 106.077 142.065 106.199C142.697 106.322 143.207 106.444 143.717 106.709C144.226 106.954 144.736 107.219 145.103 107.464C145.491 107.708 145.98 108.096 146.367 108.483L144.226 111.134C143.594 110.624 142.962 110.114 142.33 109.747C141.698 109.38 140.944 109.238 140.189 109.238C139.557 109.238 138.925 109.36 138.293 109.625C137.661 109.87 137.151 110.257 136.784 110.767C136.397 111.277 136.029 111.786 135.764 112.418C135.499 113.051 135.377 113.683 135.377 114.315C135.377 114.947 135.499 115.701 135.764 116.333C136.009 116.965 136.274 117.475 136.784 117.985C137.661 119.004 138.925 119.494 140.189 119.494C140.944 119.494 141.841 119.372 142.595 118.984C143.227 118.597 143.982 118.107 144.491 117.598L146.775 119.881C146.388 120.269 145.898 120.758 145.511 121.145C145.001 121.533 144.491 121.778 144.002 122.022C143.492 122.267 142.86 122.532 142.228 122.654C141.311 122.756 140.556 122.756 139.924 122.756Z" fill="#3B414F"/>
<path d="M150.792 106.301H162.945V109.462H154.218V112.765H161.925V115.926H154.218V119.331H163.067V122.491H150.792V106.301Z" fill="#3B414F"/>
<path d="M50.6559 138.436C49.7791 138.436 48.882 138.314 48.1275 137.927C47.3731 137.682 46.6187 137.172 45.8438 136.54L47.108 135.154C47.6178 135.663 48.1275 135.908 48.7596 136.295C49.3917 136.54 50.0238 136.683 50.6559 136.683C51.1657 136.683 51.6754 136.56 52.1648 136.295C52.5522 136.051 52.6745 135.663 52.6745 135.276C52.6745 135.154 52.6745 134.888 52.5522 134.766C52.4299 134.644 52.3075 134.379 52.1648 134.256C51.9201 134.134 51.655 134.012 51.4104 133.869C51.0229 133.747 50.5336 133.624 50.1462 133.482C49.6364 133.359 49.0043 133.237 48.4946 132.972C48.1071 132.849 47.6178 132.584 47.3527 132.34C47.108 132.095 46.843 131.83 46.5983 131.463C46.3536 130.953 46.3536 130.443 46.3536 130.076C46.3536 129.567 46.4759 129.2 46.5983 128.69C46.7206 128.302 47.108 127.935 47.3527 127.67C47.7401 127.426 48.1071 127.161 48.6169 127.038C49.1267 126.916 49.6364 126.794 50.1258 126.794C50.8802 126.794 51.6346 126.916 52.4095 127.181C53.0416 127.426 53.6737 127.813 54.3058 128.2L53.2862 129.709C52.7765 129.322 52.2667 129.077 51.7774 128.833C51.288 128.588 50.7579 128.588 50.2685 128.588C49.7791 128.588 49.249 128.71 48.882 128.975C48.6373 129.22 48.3722 129.607 48.3722 129.995C48.3722 130.239 48.3722 130.382 48.4946 130.627C48.6169 130.749 48.7392 131.014 48.882 131.137C49.1267 131.259 49.3917 131.381 49.7588 131.524C50.1462 131.646 50.5132 131.769 51.1453 131.911C51.655 132.034 52.1648 132.156 52.7969 132.421C53.1843 132.544 53.5513 132.809 53.9387 133.053C54.1834 133.298 54.4485 133.685 54.5708 133.93C54.6932 134.318 54.8155 134.685 54.8155 135.194C54.8155 135.704 54.6932 136.214 54.5708 136.581C54.3261 136.968 54.0611 137.335 53.694 137.723C53.3066 137.967 52.9396 138.232 52.4299 138.355C51.7978 138.294 51.1657 138.436 50.6559 138.436Z" fill="#3B414F"/>
<path d="M56.9769 126.916H59.1383L62.5434 132.238L66.0913 126.916H68.2323V138.294H66.2136V130.076L62.6657 135.398H62.5434L59.0159 130.076V138.294H56.9769V126.916Z" fill="#3B414F"/>
<path d="M75.063 126.794H76.9592L81.8937 138.171H79.7527L78.6108 135.398H73.3094L72.1676 138.171H70.1285L75.063 126.794ZM77.9788 133.747L75.9601 129.2L74.0638 133.747H77.9788Z" fill="#3B414F"/>
<path d="M83.9123 126.916H88.969C89.6011 126.916 90.2332 127.038 90.8653 127.161C91.3751 127.283 91.8848 127.67 92.2518 128.037C92.4965 128.282 92.7616 128.669 93.0063 129.179C93.1286 129.567 93.251 130.056 93.251 130.566C93.251 130.953 93.1286 131.443 93.0063 131.83C92.8839 132.217 92.6189 132.462 92.4965 132.849C92.2518 133.094 91.9868 133.359 91.6198 133.604C91.2323 133.849 90.8653 133.991 90.4779 134.114L93.516 138.416H91.1304L88.3573 134.501H85.8289V138.416H83.7899L83.9123 126.916ZM88.8467 132.482C89.4788 132.482 90.1109 132.36 90.4983 131.973C90.8857 131.585 91.1304 131.096 91.1304 130.586C91.1304 130.076 90.8857 129.567 90.4983 129.2C89.9885 128.812 89.3564 128.69 88.7243 128.69H85.8086V132.482H88.8467Z" fill="#3B414F"/>
<path d="M98.4504 128.69H94.7802V126.916H104.017V128.69H100.347V138.294H98.3281L98.4504 128.69Z" fill="#3B414F"/>
<path d="M116.292 138.436C115.537 138.436 114.783 138.314 114.008 137.927C112.622 137.294 111.48 136.275 110.97 134.888C110.725 134.134 110.46 133.38 110.583 132.605C110.583 131.85 110.705 131.096 110.97 130.321C111.48 128.935 112.622 127.793 114.008 127.161C114.763 126.916 115.517 126.651 116.414 126.651C116.924 126.651 117.434 126.651 117.801 126.773C118.168 126.896 118.555 127.018 118.943 127.161C119.33 127.283 119.575 127.548 119.962 127.67C120.207 127.915 120.594 128.18 120.839 128.425L119.575 129.934C119.187 129.546 118.698 129.179 118.188 128.914C117.678 128.649 117.046 128.527 116.414 128.527C115.904 128.527 115.395 128.649 114.905 128.771C114.396 129.016 114.029 129.281 113.641 129.648C113.254 130.015 113.009 130.403 112.887 130.912C112.764 131.422 112.642 131.932 112.642 132.421C112.642 132.931 112.764 133.441 112.887 133.93C113.009 134.44 113.274 134.807 113.641 135.194C114.029 135.582 114.396 135.826 114.905 136.071C115.415 136.316 115.925 136.458 116.414 136.316C117.046 136.316 117.678 136.193 118.188 135.928C118.698 135.684 119.208 135.296 119.697 134.786L120.961 136.051C120.716 136.295 120.329 136.683 120.084 136.927C119.697 137.172 119.452 137.437 119.065 137.56C118.677 137.682 118.31 137.947 117.801 137.947C117.291 138.436 116.781 138.436 116.292 138.436Z" fill="#3B414F"/>
<path d="M122.98 126.916H124.876V131.606H130.32V126.916H132.339V138.294H130.32V133.502H124.876V138.294H122.98V126.916Z" fill="#3B414F"/>
<path d="M139.292 126.794H141.188L146.123 138.171H143.982L142.84 135.398H137.538L136.397 138.171H134.358L139.292 126.794ZM142.085 133.747L140.189 129.2L138.293 133.747H142.085Z" fill="#3B414F"/>
<path d="M148.141 126.916H150.16V138.294H148.141V126.916Z" fill="#3B414F"/>
<path d="M153.198 126.916H154.972L161.048 134.766V126.916H163.067V138.294H161.415L155.217 130.199V138.294H153.198V126.916Z" fill="#3B414F"/>
<path d="M23.8633 137.539V142.474L19.5609 145.002L15.381 142.474V137.539L19.5609 140.068L23.8633 137.539ZM0.842773 120.473L5.02276 123.001V131.463L12.2205 135.765V140.7L0.842773 133.991V120.473ZM38.2791 120.473V134.012L26.7791 140.72V135.786L33.9768 131.483V123.001L38.2791 120.473ZM26.7587 113.764L31.061 116.293V121.227L23.8633 125.529V134.134L19.6833 136.662L15.5033 134.134V125.529L8.0405 121.227V116.293L12.3428 113.764L19.5405 118.067L26.7587 113.764ZM8.06089 124.775L12.2409 127.303V132.238L8.06089 129.709V124.775ZM31.061 124.775V129.709L26.881 132.238V127.303L31.061 124.775ZM5.02276 109.462L9.32508 111.99L5.02276 114.519V119.453L0.842773 116.925V111.99L5.02276 109.462ZM34.0991 109.462L38.4014 111.99V116.925L34.0991 119.453V114.519L29.9191 111.99L34.0991 109.462ZM19.5609 109.462L23.8633 111.99L19.5609 114.539L15.381 112.011L19.5609 109.462ZM19.5609 101L31.061 107.708L26.881 110.237L19.6833 105.934L12.3428 110.237L8.18323 107.708L19.5609 101Z" fill="#3B414F"/>
<path d="M299.099 141.363L298.929 141.295L286.877 124.218L286.843 124.015L295.568 105.037L295.738 104.935L316.515 103L316.684 103.068L328.737 120.145L328.771 120.348L320.045 139.326L319.876 139.428L299.099 141.363ZM287.284 124.083L299.2 140.956L319.74 139.054L328.363 120.28L316.447 103.407L295.907 105.309L287.284 124.083Z" fill="#3B414F"/>
<path d="M299.031 141.329L295.704 123.947V104.969L311.966 109.756L328.805 120.246L316.277 131.382L299.031 141.329ZM295.873 105.241V123.947L299.167 141.024L316.141 131.212L328.431 120.28L311.83 109.96L295.873 105.241Z" fill="#3B414F"/>
<path d="M312.814 109.96C312.814 110.299 312.543 110.571 312.203 110.571C311.864 110.571 311.592 110.299 311.592 109.96C311.592 109.62 311.864 109.349 312.203 109.349C312.543 109.349 312.814 109.62 312.814 109.96Z" fill="#3B414F"/>
<path d="M312.203 111.182C311.524 111.182 310.947 110.639 310.947 109.926C310.947 109.247 311.49 108.67 312.203 108.67C312.882 108.67 313.459 109.213 313.459 109.926C313.425 110.639 312.882 111.182 312.203 111.182ZM312.203 109.926L312.169 109.96L312.203 109.994V109.926Z" fill="#3B414F"/>
<path d="M316.854 131.246C316.854 131.586 316.583 131.857 316.243 131.857C315.904 131.857 315.632 131.586 315.632 131.246C315.632 130.907 315.904 130.635 316.243 130.635C316.583 130.635 316.854 130.907 316.854 131.246Z" fill="#3B414F"/>
<path d="M316.243 132.502C315.564 132.502 314.987 131.959 314.987 131.246C314.987 130.533 315.53 129.99 316.243 129.99C316.922 129.99 317.499 130.533 317.499 131.246C317.499 131.959 316.922 132.502 316.243 132.502ZM316.243 131.212L316.209 131.246L316.243 131.28V131.212Z" fill="#3B414F"/>
<path d="M299.845 141.159C299.845 141.499 299.574 141.77 299.234 141.77C298.895 141.77 298.623 141.499 298.623 141.159C298.623 140.82 298.895 140.548 299.234 140.548C299.574 140.548 299.845 140.82 299.845 141.159Z" fill="#3B414F"/>
<path d="M299.234 142.415C298.555 142.415 297.978 141.872 297.978 141.159C297.978 140.48 298.521 139.903 299.234 139.903C299.913 139.903 300.491 140.446 300.491 141.159C300.491 141.838 299.947 142.415 299.234 142.415ZM299.234 141.125L299.2 141.159L299.234 141.193V141.125Z" fill="#3B414F"/>
<path d="M296.383 124.151C296.383 124.49 296.111 124.762 295.772 124.762C295.432 124.762 295.16 124.49 295.16 124.151C295.16 123.811 295.432 123.54 295.772 123.54C296.111 123.54 296.383 123.811 296.383 124.151Z" fill="#3B414F"/>
<path d="M295.772 125.373C295.093 125.373 294.515 124.83 294.515 124.117C294.515 123.438 295.059 122.861 295.772 122.861C296.451 122.861 297.028 123.404 297.028 124.117C297.028 124.83 296.451 125.373 295.772 125.373ZM295.772 124.117L295.738 124.151L295.772 124.185V124.117Z" fill="#3B414F"/>
<path d="M329.212 120.28C329.212 120.62 328.94 120.891 328.601 120.891C328.261 120.891 327.99 120.62 327.99 120.28C327.99 119.941 328.261 119.669 328.601 119.669C328.94 119.669 329.212 119.941 329.212 120.28Z" fill="#3B414F"/>
<path d="M328.601 121.536C327.922 121.536 327.345 120.993 327.345 120.28C327.345 119.601 327.888 119.024 328.601 119.024C329.28 119.024 329.857 119.567 329.857 120.28C329.857 120.959 329.28 121.536 328.601 121.536ZM328.601 120.246L328.567 120.28L328.601 120.314V120.246Z" fill="#3B414F"/>
<path d="M296.383 105.105C296.383 105.444 296.111 105.716 295.772 105.716C295.432 105.716 295.16 105.444 295.16 105.105C295.16 104.765 295.432 104.494 295.772 104.494C296.111 104.494 296.383 104.765 296.383 105.105Z" fill="#3B414F"/>
<path d="M295.772 106.361C295.093 106.361 294.515 105.818 294.515 105.105C294.515 104.426 295.059 103.849 295.772 103.849C296.451 103.849 297.028 104.392 297.028 105.105C297.028 105.784 296.451 106.361 295.772 106.361ZM295.772 105.071L295.738 105.105L295.772 105.139V105.071Z" fill="#3B414F"/>
<path d="M319.876 139.428L319.808 139.428L303.987 133.826L286.945 124.286L286.843 124.151L286.911 123.981L299.71 112.234L316.447 103.034H316.617L316.718 103.17L320.453 119.669L320.045 139.292L319.944 139.462L319.876 139.428ZM287.386 124.049L304.123 133.453L319.672 138.953L320.079 119.669L316.379 103.475L299.913 112.54L287.386 124.049Z" fill="#3B414F"/>
<path d="M316.311 131.314L316.243 131.28L295.704 124.151L295.772 124.083L312.237 109.824L316.311 131.314ZM295.873 124.117L316.175 131.178L312.169 110.028L295.873 124.117Z" fill="#3B414F"/>
<path d="M303.919 134.03L299.574 112.065L320.691 119.601L303.919 134.03ZM300.117 112.676L304.157 133.283L319.91 119.771L300.117 112.676Z" fill="#3B414F"/>
<path d="M295.939 105L295.584 105.2L299.658 112.451L300.013 112.252L295.939 105Z" fill="#3B414F"/>
<path d="M303.848 133.533L299.071 141.036L299.414 141.255L304.192 133.752L303.848 133.533Z" fill="#3B414F"/>
<path d="M328.601 120.484L320.283 119.873L320.317 119.466L328.635 120.077L328.601 120.484Z" fill="#3B414F"/>
<path d="M338.039 115.426L341.4 115.392L341.434 121.061L347.918 121.027L347.884 115.358H351.211L351.313 130.499L347.952 130.533L347.918 123.981L341.434 124.015L341.468 130.567H338.141L338.039 115.426Z" fill="#3B414F"/>
<path d="M357.865 124.015L352.128 115.358L356.27 115.324L359.529 120.993L362.89 115.29H366.862L361.192 123.981L361.226 130.465H357.899L357.865 124.015Z" fill="#3B414F"/>
<path d="M367.745 115.256L373.38 115.222C374.161 115.222 374.908 115.29 375.621 115.426C376.334 115.561 376.945 115.799 377.454 116.138C377.963 116.478 378.405 116.953 378.71 117.53C379.016 118.108 379.186 118.854 379.186 119.771C379.186 120.654 379.05 121.401 378.778 122.012C378.507 122.623 378.099 123.098 377.624 123.438C377.115 123.811 376.538 124.049 375.859 124.218C375.18 124.388 374.433 124.456 373.618 124.456H371.174L371.208 130.363L367.88 130.397L367.745 115.256ZM371.14 121.672H373.38C373.686 121.672 373.957 121.638 374.263 121.57C374.535 121.503 374.772 121.401 375.01 121.265C375.248 121.129 375.417 120.925 375.553 120.722C375.689 120.484 375.757 120.178 375.757 119.839C375.757 119.466 375.655 119.16 375.485 118.922C375.315 118.685 375.078 118.515 374.806 118.379C374.535 118.243 374.229 118.175 373.89 118.142C373.55 118.108 373.211 118.108 372.905 118.108H371.208L371.14 121.672Z" fill="#3B414F"/>
<path d="M381.155 115.188L391.475 115.154V118.243L384.516 118.277L384.55 121.095L391.102 121.061L391.136 124.151L384.55 124.185L384.584 127.24L391.917 127.206V130.295L381.257 130.363L381.155 115.188Z" fill="#3B414F"/>
<path d="M394.327 115.12L400.2 115.086C400.981 115.086 401.694 115.154 402.407 115.29C403.086 115.426 403.697 115.697 404.24 116.037C404.75 116.376 405.191 116.851 405.497 117.429C405.802 118.006 405.972 118.753 405.972 119.635C405.972 120.722 405.7 121.604 405.157 122.385C404.614 123.132 403.799 123.607 402.713 123.811L406.617 130.194L402.611 130.228L399.42 124.185H397.756L397.79 130.228L394.463 130.262L394.327 115.12ZM397.688 121.367H399.657C399.963 121.367 400.268 121.367 400.608 121.333C400.947 121.299 401.253 121.231 401.525 121.129C401.796 121.027 402.034 120.858 402.203 120.62C402.373 120.382 402.475 120.077 402.475 119.669C402.475 119.296 402.407 118.99 402.237 118.753C402.068 118.515 401.864 118.345 401.626 118.243C401.389 118.108 401.117 118.04 400.778 118.006C400.472 117.972 400.167 117.938 399.861 117.938H397.688V121.367Z" fill="#3B414F"/>
<path d="M408.111 115.052H411.438L411.506 127.104L417.684 127.07L417.718 130.16L408.179 130.194L408.111 115.052Z" fill="#3B414F"/>
<path d="M419.382 114.984L429.703 114.95V118.04L422.743 118.074L422.777 120.891L429.329 120.857L429.363 123.947L422.777 123.981L422.811 127.036L430.144 127.002V130.092L419.484 130.16L419.382 114.984Z" fill="#3B414F"/>
<path d="M432.554 114.916L437.579 114.882C438.801 114.882 439.955 115.018 441.042 115.256C442.128 115.527 443.079 115.969 443.894 116.546C444.708 117.157 445.353 117.938 445.829 118.888C446.304 119.873 446.542 121.027 446.576 122.419C446.576 123.641 446.372 124.728 445.897 125.678C445.421 126.629 444.81 127.41 444.029 128.055C443.249 128.7 442.332 129.175 441.313 129.515C440.295 129.854 439.209 130.024 438.088 130.024L432.622 130.058L432.554 114.916ZM435.949 126.968H437.681C438.462 126.968 439.175 126.867 439.82 126.731C440.499 126.561 441.042 126.323 441.551 125.95C442.026 125.576 442.4 125.101 442.705 124.524C442.977 123.947 443.113 123.2 443.113 122.351C443.113 121.604 442.977 120.959 442.671 120.416C442.4 119.873 442.026 119.432 441.551 119.058C441.076 118.719 440.533 118.447 439.888 118.277C439.242 118.108 438.597 118.006 437.884 118.006H435.915L435.949 126.968Z" fill="#3B414F"/>
<path d="M462.396 128.836C461.412 129.345 460.393 129.718 459.307 129.956C458.254 130.194 457.134 130.296 456.048 130.329C454.859 130.329 453.773 130.16 452.754 129.786C451.77 129.413 450.887 128.904 450.14 128.191C449.393 127.512 448.85 126.663 448.409 125.678C448.001 124.694 447.798 123.607 447.764 122.385C447.764 121.163 447.968 120.077 448.341 119.092C448.748 118.108 449.292 117.259 450.038 116.58C450.751 115.867 451.634 115.358 452.619 114.984C453.603 114.611 454.69 114.407 455.878 114.407C457.1 114.407 458.22 114.543 459.239 114.814C460.257 115.12 461.174 115.595 461.921 116.308L459.578 118.888C459.103 118.413 458.594 118.074 458.017 117.836C457.439 117.598 456.727 117.463 455.878 117.497C455.165 117.497 454.52 117.632 453.943 117.87C453.366 118.108 452.856 118.447 452.449 118.888C452.041 119.33 451.736 119.839 451.498 120.45C451.295 121.061 451.159 121.706 451.159 122.385C451.159 123.098 451.261 123.743 451.498 124.354C451.736 124.931 452.041 125.441 452.449 125.882C452.856 126.323 453.366 126.663 453.943 126.901C454.52 127.138 455.165 127.274 455.878 127.24C456.591 127.24 457.236 127.138 457.745 126.968C458.254 126.799 458.696 126.629 459.001 126.459V124.015H456.285V120.925L462.226 120.891L462.396 128.836Z" fill="#3B414F"/>
<path d="M465.146 114.747L475.467 114.713V117.768L468.507 117.836L468.541 120.654L475.093 120.62L475.127 123.709L468.541 123.743L468.575 126.799L475.908 126.765V129.854L465.248 129.922L465.146 114.747Z" fill="#3B414F"/>
<path d="M478.318 114.679L484.192 114.645C484.973 114.645 485.686 114.713 486.398 114.848C487.077 114.984 487.689 115.256 488.232 115.595C488.741 115.935 489.182 116.41 489.488 116.987C489.793 117.564 489.963 118.311 489.963 119.194C489.963 120.28 489.692 121.163 489.148 121.944C488.605 122.691 487.79 123.166 486.704 123.37L490.608 129.752L486.602 129.786L483.411 123.743H481.747L481.781 129.786H478.454L478.318 114.679ZM481.679 120.925H483.649C483.954 120.925 484.26 120.925 484.599 120.891C484.939 120.857 485.244 120.79 485.516 120.688C485.787 120.586 486.025 120.416 486.195 120.178C486.365 119.941 486.466 119.635 486.466 119.228C486.466 118.854 486.398 118.549 486.229 118.311C486.059 118.074 485.855 117.904 485.618 117.802C485.38 117.666 485.108 117.598 484.769 117.564C484.463 117.53 484.158 117.496 483.852 117.496H481.679V120.925Z" fill="#3B414F"/>
</svg>
