<svg width="205" height="43" viewBox="0 0 205 43" fill="none" xmlns="http://www.w3.org/2000/svg">
<path d="M36.9318 13.0003C36.0494 12.4605 34.9024 12.4605 33.9316 13.0003L27.0491 17.1388L22.3725 19.8378L15.4901 23.9765C14.6077 24.5161 13.4607 24.5161 12.4901 23.9765L7.01937 20.7376C6.13701 20.1977 5.51934 19.2082 5.51934 18.1285V11.7408C5.51934 10.6612 6.04876 9.67154 7.01937 9.13174L12.4018 5.98286C13.2842 5.44306 14.4313 5.44306 15.4019 5.98286L20.7844 9.13174C21.6668 9.67154 22.2844 10.6612 22.2844 11.7408V15.8793L26.961 13.0903V8.95179C26.961 7.87217 26.4316 6.88255 25.461 6.34274L15.4901 0.404856C14.6077 -0.134952 13.4607 -0.134952 12.4901 0.404856L2.3428 6.34274C1.3722 6.88255 0.842773 7.87217 0.842773 8.95179V20.9176C0.842773 21.997 1.3722 22.9868 2.3428 23.5266L12.4901 29.4645C13.3724 30.0043 14.5195 30.0043 15.4901 29.4645L22.3725 25.4158L27.0491 22.627L33.9316 18.5784C34.8141 18.0386 35.9611 18.0386 36.9318 18.5784L42.3141 21.7273C43.1966 22.2671 43.8143 23.2567 43.8143 24.3363V30.724C43.8143 31.8036 43.2847 32.7932 42.3141 33.333L36.9318 36.5719C36.0494 37.1118 34.9024 37.1118 33.9316 36.5719L28.5493 33.4231C27.6669 32.8833 27.0491 31.8937 27.0491 30.8139V26.6755L22.3725 29.4645V33.6029C22.3725 34.6825 22.9021 35.6723 23.8727 36.2119L34.0199 42.15C34.9024 42.6898 36.0494 42.6898 37.0199 42.15L47.1671 36.2119C48.0496 35.6723 48.6673 34.6825 48.6673 33.6029V21.6372C48.6673 20.5578 48.1379 19.568 47.1671 19.0282L36.9318 13.0003Z" fill="#3B414F"/>
<path d="M67.2995 38.723V28.789C68.3755 30.1455 70.3283 30.9035 72.6 30.9035C78.3789 30.9035 82.2846 26.7943 82.2846 20.5307C82.2846 14.2672 78.6976 10.1581 73.0783 10.1581C70.4877 10.1581 68.495 11.1155 67.2995 12.6714V10.4772H61.7598V38.723H67.2995ZM71.9226 26.116C68.9335 26.116 66.9806 23.882 66.9806 20.5307C66.9806 17.1397 68.9335 14.9056 71.9226 14.9056C74.8319 14.9056 76.8246 17.1397 76.8246 20.5307C76.8246 23.882 74.8319 26.116 71.9226 26.116Z" fill="#3B414F"/>
<path d="M94.8636 30.9035C101.041 30.9035 105.465 26.515 105.465 20.5307C105.465 14.5465 101.041 10.1581 94.8636 10.1581C88.6864 10.1581 84.2625 14.5465 84.2625 20.5307C84.2625 26.515 88.6864 30.9035 94.8636 30.9035ZM94.8636 26.116C91.8746 26.116 89.8421 23.842 89.8421 20.5307C89.8421 17.1796 91.8746 14.9056 94.8636 14.9056C97.8526 14.9056 99.8853 17.1796 99.8853 20.5307C99.8853 23.842 97.8526 26.116 94.8636 26.116Z" fill="#3B414F"/>
<path d="M114.353 30.5843V1.7402H108.814V30.5843H114.353Z" fill="#3B414F"/>
<path d="M131.006 10.4773L126.821 23.4431L122.597 10.4773H116.938L124.231 30.4249L121.281 38.7231H126.582L129.412 30.5046L136.704 10.4773H131.006Z" fill="#3B414F"/>
<path d="M152.263 12.472C151.147 11.0756 149.154 10.1581 146.723 10.1581C140.865 10.1581 137.318 14.2672 137.318 20.5307C137.318 26.7943 140.865 30.9035 146.803 30.9035C149.154 30.9035 151.267 30.0259 152.303 28.5496V31.1828C152.303 33.0578 151.067 34.3744 149.394 34.3744H140.147V38.723H150.27C154.814 38.723 157.842 35.9701 157.842 31.7812V10.4772H152.263V12.472ZM147.68 26.116C144.731 26.116 142.778 23.9219 142.778 20.5307C142.778 17.1397 144.731 14.9056 147.68 14.9056C150.669 14.9056 152.622 17.1397 152.622 20.5307C152.622 23.9219 150.669 26.116 147.68 26.116Z" fill="#3B414F"/>
<path d="M171.807 30.9035C177.985 30.9035 182.409 26.515 182.409 20.5307C182.409 14.5465 177.985 10.1581 171.807 10.1581C165.63 10.1581 161.206 14.5465 161.206 20.5307C161.206 26.515 165.63 30.9035 171.807 30.9035ZM171.807 26.116C168.818 26.116 166.786 23.842 166.786 20.5307C166.786 17.1796 168.818 14.9056 171.807 14.9056C174.796 14.9056 176.829 17.1796 176.829 20.5307C176.829 23.842 174.796 26.116 171.807 26.116Z" fill="#3B414F"/>
<path d="M191.018 30.5843V19.5733C191.018 16.9801 192.732 15.1051 195.163 15.1051C197.475 15.1051 199.029 16.8604 199.029 19.294V30.5843H204.608V18.0573C204.608 13.4295 201.659 10.1581 197.116 10.1581C194.366 10.1581 192.134 11.315 191.018 13.2699V10.4772H185.439V30.5843H191.018Z" fill="#3B414F"/>
</svg>
