<svg width="164" height="45" viewBox="0 0 164 45" fill="none" xmlns="http://www.w3.org/2000/svg">
<path d="M46.1089 5.30146H53.5717C55.468 5.30146 56.8545 5.81122 57.7517 6.68799C58.6284 7.44243 59.0159 8.46194 59.0159 9.46105C59.0159 9.84847 59.0159 10.3378 58.8935 10.7252C58.6488 11.3573 58.2614 11.9894 57.7517 12.4992C57.507 12.7439 57.2419 12.8866 56.9972 13.0089C57.874 13.2536 58.6488 13.7634 59.2809 14.3955C59.7907 15.0276 60.0354 15.782 60.0354 16.9239C60.0354 17.5559 59.913 18.3104 59.6479 18.8201C59.4033 19.3299 58.8935 19.8396 58.3838 20.2067C57.7517 20.5941 57.1196 20.8388 56.4875 21.0834C55.733 21.3281 54.8359 21.3281 53.9591 21.3281H46.2516V5.26068H46.1089V5.30146ZM52.9396 11.8875C53.5717 11.8875 54.2038 11.7651 54.8359 11.5001C55.3456 11.2554 55.5903 10.7456 55.5903 10.2359C55.5903 9.72612 55.3456 9.21637 54.9582 8.97169C54.4485 8.58428 53.8164 8.46194 53.1843 8.58428H49.6364V12.0098H52.9192V11.8875H52.9396ZM53.8164 18.3308C54.4485 18.3308 55.0806 18.2084 55.7126 17.9434C56.2224 17.6987 56.4671 17.1889 56.3447 16.5568C56.3447 16.0471 56.1001 15.5373 55.7126 15.2926C55.3252 15.048 54.5708 14.7829 53.694 14.7829H49.514V18.3308H53.8164Z" fill="#3B414F"/>
<path d="M64.4397 5.30145H67.9876V21.4912H64.4397V5.30145Z" fill="#3B414F"/>
<path d="M73.4114 5.30145H76.7146L84.2997 15.2926V5.30145H87.8272V21.4912H84.8095L76.8369 11.2554V21.4912H73.4114V5.30145Z" fill="#3B414F"/>
<path d="M98.5728 5.17908H101.856L108.809 21.4912H105.138L103.63 17.821H96.7988L95.29 21.4912H91.6198L98.5728 5.17908ZM102.365 14.8032L100.224 9.50179L98.0834 14.8032H102.365Z" fill="#3B414F"/>
<path d="M112.622 5.30145H115.904L123.49 15.2926V5.30145H127.037V21.4912H123.999L116.149 11.2554V21.4912H112.622V5.30145Z" fill="#3B414F"/>
<path d="M139.924 21.7563C138.782 21.7563 137.64 21.5116 136.641 21.1242C134.623 20.2474 133.093 18.7181 132.217 16.6995C131.829 15.68 131.584 14.5585 131.584 13.4167C131.584 11.2757 132.461 9.11437 133.991 7.48315C134.745 6.72872 135.642 6.09663 136.641 5.70921C137.783 5.19946 138.925 5.07712 140.046 5.07712C140.678 5.07712 141.433 5.07712 142.065 5.19946C142.697 5.3218 143.207 5.44414 143.717 5.70921C144.226 5.9539 144.736 6.21896 145.103 6.46365C145.491 6.70833 145.98 7.09574 146.367 7.48315L144.226 10.1339C143.594 9.62412 142.962 9.11437 142.33 8.74735C141.698 8.38032 140.944 8.23759 140.189 8.23759C139.557 8.23759 138.925 8.35993 138.293 8.625C137.661 8.86969 137.151 9.2571 136.784 9.76685C136.397 10.2766 136.03 10.7864 135.764 11.4185C135.499 12.0506 135.377 12.6826 135.377 13.3147C135.377 13.9468 135.499 14.7013 135.764 15.3334C136.009 15.9655 136.274 16.4752 136.784 16.985C137.661 18.0045 138.925 18.4938 140.189 18.4938C140.944 18.4938 141.841 18.3715 142.595 17.9841C143.227 17.5967 143.982 17.1073 144.491 16.5976L146.775 18.8813C146.388 19.2687 145.898 19.758 145.511 20.1454C145.001 20.5329 144.491 20.7775 144.002 21.0222C143.492 21.2669 142.86 21.532 142.228 21.6543C141.311 21.7563 140.556 21.7563 139.924 21.7563Z" fill="#3B414F"/>
<path d="M150.792 5.30145H162.945V8.46193H154.218V11.7651H161.925V14.9256H154.218V18.3308H163.067V21.4912H150.792V5.30145Z" fill="#3B414F"/>
<path d="M50.656 37.4363C49.7792 37.4363 48.882 37.314 48.1276 36.9266C47.3731 36.6819 46.6187 36.1721 45.8439 35.5401L47.1081 34.1535C47.6178 34.6633 48.1276 34.908 48.7597 35.2954C49.3918 35.54 50.0239 35.6828 50.656 35.6828C51.1657 35.6828 51.6755 35.5604 52.1648 35.2954C52.5522 35.0507 52.6746 34.6633 52.6746 34.2759C52.6746 34.1535 52.6746 33.8884 52.5522 33.7661C52.4299 33.6438 52.3076 33.3787 52.1648 33.2564C51.9201 33.134 51.6551 33.0117 51.4104 32.8689C51.023 32.7466 50.5336 32.6243 50.1462 32.4815C49.6364 32.3592 49.0043 32.2368 48.4946 31.9718C48.1072 31.8494 47.6178 31.5844 47.3527 31.3397C47.1081 31.095 46.843 30.8299 46.5983 30.4629C46.3536 29.9531 46.3536 29.4434 46.3536 29.0764C46.3536 28.5666 46.476 28.1996 46.5983 27.6898C46.7207 27.3024 47.1081 26.9354 47.3527 26.6703C47.7402 26.4257 48.1072 26.1606 48.6169 26.0382C49.1267 25.9159 49.6364 25.7935 50.1258 25.7935C50.8802 25.7935 51.6347 25.9159 52.4095 26.181C53.0416 26.4256 53.6737 26.8131 54.3058 27.2005L53.2863 28.7094C52.7765 28.3219 52.2668 28.0772 51.7774 27.8326C51.288 27.5879 50.7579 27.5879 50.2685 27.5879C49.7792 27.5879 49.249 27.7102 48.882 27.9753C48.6373 28.22 48.3723 28.6074 48.3723 28.9948C48.3723 29.2395 48.3723 29.3822 48.4946 29.6269C48.6169 29.7492 48.7393 30.0143 48.882 30.1367C49.1267 30.259 49.3918 30.3813 49.7588 30.5241C50.1462 30.6464 50.5132 30.7688 51.1453 30.9115C51.6551 31.0338 52.1648 31.1562 52.7969 31.4212C53.1843 31.5436 53.5514 31.8086 53.9388 32.0533C54.1834 32.298 54.4485 32.6854 54.5709 32.9301C54.6932 33.3175 54.8155 33.6845 54.8155 34.1943C54.8155 34.704 54.6932 35.2138 54.5709 35.5808C54.3262 35.9682 54.0611 36.3353 53.6941 36.7227C53.3067 36.9674 52.9397 37.2324 52.4299 37.3548C51.7978 37.2936 51.1657 37.4363 50.656 37.4363Z" fill="#3B414F"/>
<path d="M56.9769 25.9159H59.1383L62.5434 31.2377L66.0913 25.9159H68.2323V37.2936H66.2137V29.0764L62.6658 34.3982H62.5434L59.0159 29.0764V37.2936H56.9769V25.9159Z" fill="#3B414F"/>
<path d="M75.063 25.7935H76.9592L81.8937 37.1713H79.7527L78.6108 34.3982H73.3094L72.1676 37.1713H70.1285L75.063 25.7935ZM77.9788 32.7466L75.9601 28.1996L74.0638 32.7466H77.9788Z" fill="#3B414F"/>
<path d="M83.9123 25.9159H88.969C89.6011 25.9159 90.2332 26.0382 90.8653 26.1606C91.3751 26.2829 91.8848 26.6703 92.2518 27.0374C92.4965 27.282 92.7616 27.6694 93.0063 28.1792C93.1286 28.5666 93.251 29.056 93.251 29.5657C93.251 29.9531 93.1286 30.4425 93.0063 30.8299C92.8839 31.2173 92.6189 31.462 92.4965 31.8494C92.2518 32.0941 91.9868 32.3592 91.6197 32.6039C91.2323 32.8485 90.8653 32.9913 90.4779 33.1136L93.516 37.4159H91.1304L88.3573 33.501H85.8289V37.4159H83.7899L83.9123 25.9159ZM88.8467 31.4824C89.4788 31.4824 90.1109 31.3601 90.4983 30.9727C90.8857 30.5852 91.1304 30.0959 91.1304 29.5861C91.1304 29.0764 90.8857 28.5666 90.4983 28.1996C89.9885 27.8122 89.3564 27.6898 88.7243 27.6898H85.8085V31.4824H88.8467Z" fill="#3B414F"/>
<path d="M98.4505 27.6898H94.7803V25.9159H104.017V27.6898H100.347V37.2936H98.3282L98.4505 27.6898Z" fill="#3B414F"/>
<path d="M116.292 37.4363C115.537 37.4363 114.783 37.314 114.008 36.9266C112.622 36.2945 111.48 35.275 110.97 33.8884C110.725 33.134 110.46 32.3796 110.583 31.6047C110.583 30.8503 110.705 30.0959 110.97 29.321C111.48 27.9345 112.622 26.7927 114.008 26.1606C114.763 25.9159 115.517 25.6508 116.414 25.6508C116.924 25.6508 117.434 25.6508 117.801 25.7732C118.168 25.8955 118.555 26.0178 118.943 26.1606C119.33 26.2829 119.575 26.548 119.962 26.6703C120.207 26.915 120.594 27.1801 120.839 27.4248L119.575 28.9336C119.187 28.5462 118.698 28.1792 118.188 27.9141C117.678 27.649 117.046 27.5267 116.414 27.5267C115.904 27.5267 115.395 27.649 114.905 27.7714C114.396 28.0161 114.029 28.2811 113.641 28.6482C113.254 29.0152 113.009 29.4026 112.887 29.9124C112.764 30.4221 112.642 30.9319 112.642 31.4212C112.642 31.931 112.764 32.4407 112.887 32.9301C113.009 33.4398 113.274 33.8069 113.641 34.1943C114.029 34.5817 114.396 34.8264 114.905 35.0711C115.415 35.3157 115.925 35.4585 116.414 35.3157C117.046 35.3157 117.678 35.1934 118.188 34.9283C118.698 34.6837 119.208 34.2962 119.697 33.7865L120.961 35.0507C120.716 35.2954 120.329 35.6828 120.084 35.9275C119.697 36.1721 119.452 36.4372 119.065 36.5596C118.677 36.6819 118.31 36.947 117.801 36.947C117.291 37.4363 116.781 37.4363 116.292 37.4363Z" fill="#3B414F"/>
<path d="M122.98 25.9159H124.876V30.6056H130.32V25.9159H132.339V37.2936H130.32V32.5019H124.876V37.2936H122.98V25.9159Z" fill="#3B414F"/>
<path d="M139.292 25.7935H141.188L146.123 37.1713H143.982L142.84 34.3982H137.538L136.397 37.1713H134.358L139.292 25.7935ZM142.085 32.7466L140.189 28.1996L138.293 32.7466H142.085Z" fill="#3B414F"/>
<path d="M148.141 25.9159H150.16V37.2936H148.141V25.9159Z" fill="#3B414F"/>
<path d="M153.198 25.9159H154.972L161.048 33.7661V25.9159H163.067V37.2936H161.415L155.217 29.1987V37.2936H153.198V25.9159Z" fill="#3B414F"/>
<path d="M23.8633 36.5392V41.4736L19.5609 44.002L15.381 41.4736V36.5392L19.5609 39.0675L23.8633 36.5392ZM0.842773 19.4726L5.02276 22.001V30.4629L12.2205 34.7652V39.6996L0.842773 32.9913V19.4726ZM38.2791 19.4726V33.0117L26.7791 39.72V34.7856L33.9768 30.4833V22.001L38.2791 19.4726ZM26.7587 12.7642L31.061 15.2926V20.227L23.8633 24.5294V33.134L19.6833 35.6624L15.5033 33.134V24.5294L8.0405 20.227V15.2926L12.3428 12.7642L19.5405 17.0666L26.7587 12.7642ZM8.06089 23.7749L12.2409 26.3033V31.2377L8.06089 28.7093V23.7749ZM31.061 23.7749V28.7093L26.881 31.2377V26.3033L31.061 23.7749ZM5.02276 8.46192L9.32508 10.9903L5.02276 13.5187V18.4531L0.842773 15.9247V10.9903L5.02276 8.46192ZM34.0991 8.46192L38.4014 10.9903V15.9247L34.0991 18.4531V13.5187L29.9191 10.9903L34.0991 8.46192ZM19.5609 8.46192L23.8633 10.9903L19.5609 13.5391L15.381 11.0107L19.5609 8.46192ZM19.5609 0L31.061 6.70836L26.881 9.23674L19.6833 4.93441L12.3428 9.23674L8.18323 6.70836L19.5609 0Z" fill="#3B414F"/>
</svg>
