<svg width="118" height="118" viewBox="0 0 118 118" fill="none" xmlns="http://www.w3.org/2000/svg">
<path d="M88.5052 8.10433L88.4973 8.09644L88.4895 8.08855L88.4816 8.08065L88.5052 8.09644V8.10433ZM40.16 114.911C41.2419 115.259 42.0711 115.488 42.995 115.701C43.6031 115.851 44.2191 115.985 44.835 116.111C44.8508 116.111 44.8666 116.111 44.8824 116.111C44.8745 116.096 44.8666 116.08 44.8587 116.072C43.611 115.598 42.2843 115.417 41.005 115.077C40.2469 114.872 39.4967 114.627 38.7386 114.422C38.8175 114.461 38.8175 114.461 39.0939 114.564C39.4256 114.675 39.7652 114.785 40.0968 114.896L40.1521 114.911H40.16V114.911ZM42.1974 115.606L42.1422 115.59C43.2003 115.882 44.6139 116.277 45.6879 116.538C45.8695 116.577 46.0433 116.624 46.2249 116.656C46.2249 116.656 46.217 116.656 46.2091 116.648C44.8745 116.301 43.5241 115.993 42.1974 115.606ZM48.5782 116.782C46.2249 116.498 46.2249 116.498 46.1775 116.506C46.5013 116.782 51.9028 117.611 52.811 117.414C52.8189 117.406 52.8189 117.39 52.8268 117.382C52.811 117.374 52.7952 117.367 52.7794 117.359C52.424 117.248 52.424 117.248 48.5782 116.79V116.782ZM50.5919 117.453L54.1771 117.856C52.9531 117.753 51.8159 117.627 50.5998 117.453H50.5919ZM54.9984 116.995C55.6065 116.995 56.0882 116.98 56.6015 116.932C57.4149 116.885 58.2362 116.822 59.0496 116.735C59.1522 116.632 59.1048 116.585 58.9548 116.506C57.9282 116.143 55.109 116.34 54.5483 116.388C53.8613 116.443 52.2977 116.593 52.5977 116.806C52.732 116.901 53.2058 116.972 53.3795 117.003C53.9165 117.011 54.4614 117.003 54.9984 116.995V116.995ZM57.4149 117.73C54.9589 117.761 54.9589 117.761 54.8247 117.793C55.4564 118.069 61.237 118.069 61.774 117.793C61.7661 117.785 61.7503 117.769 61.7345 117.761C61.3397 117.682 60.4315 117.698 57.407 117.738L57.4149 117.73ZM63.0533 116.372C62.6506 116.451 60.6526 116.853 60.9764 117.106C61.6871 117.659 67.6099 116.838 67.7125 116.167C67.7204 116.103 67.6494 116.064 67.5862 116.025C66.4964 115.701 63.1955 116.34 63.0533 116.364V116.372ZM66.3858 117.493C65.4698 117.619 64.5458 117.714 63.6298 117.864C63.6772 117.872 63.6772 117.872 64.0089 117.848L64.2458 117.824C65.9357 117.611 68.1864 117.351 69.8605 117.051C70.4054 116.948 70.5081 116.917 70.5791 116.901C70.5791 116.893 70.5791 116.893 70.587 116.885C69.1735 116.956 67.7915 117.295 66.3937 117.493H66.3858ZM72.4191 115.417C71.6057 115.677 70.2238 116.143 70.1369 116.388C70.4054 116.861 76.5808 115.227 76.8809 114.604C76.9125 114.54 76.8572 114.517 76.8098 114.485C76.0754 114.351 73.6195 115.038 72.4191 115.417ZM76.9757 111.675C75.728 112.338 74.804 113.143 75.4516 113.404C76.8493 113.964 82.0692 111.73 81.7928 110.688C81.7612 110.578 81.6586 110.522 81.5717 110.475C80.474 110.159 78.176 111.043 76.9836 111.683L76.9757 111.675ZM81.4611 113.214C80.0002 113.869 79.1789 114.272 79.0131 114.422C79.021 114.43 79.0289 114.446 79.0368 114.454C79.8818 114.383 85.0227 112.164 85.5123 111.651C85.5044 111.643 85.4965 111.628 85.4886 111.62C84.9358 111.667 82.0376 112.954 81.469 113.214H81.4611ZM86.452 108.959C85.2122 109.788 84.2172 110.704 84.7068 110.862C85.7966 111.209 91.1191 108.004 90.7717 107.215C90.7559 107.175 90.6927 107.144 90.6453 107.12C89.8003 106.986 87.6208 108.178 86.4441 108.959H86.452ZM89.5318 109.567C88.6237 110.12 88.063 110.428 87.8577 110.546L89.9978 109.291L92.3037 107.799C91.5456 108.312 90.5348 108.959 89.5318 109.559V109.567ZM89.7056 103.047C88.2604 104.436 87.9604 105.644 89.058 105.691C91.1349 105.778 95.2019 102.265 94.2937 101.152C94.2384 101.089 94.1358 101.034 94.0647 100.994C92.8802 100.663 90.8033 101.997 89.7056 103.047ZM95.0044 104.886C94.6649 105.178 92.9591 106.638 93.0302 106.915C93.5909 107.128 98.7871 102.928 98.6449 102.376C98.6371 102.368 98.6213 102.368 98.6055 102.36C98.0764 102.431 96.1179 103.947 95.0044 104.886V104.886ZM98.5107 98.5707C97.1524 100.173 96.7497 101.42 97.6183 101.294C99.2688 101.049 103.194 96.5814 102.333 95.9182C102.309 95.9025 102.27 95.8867 102.238 95.8709C101.354 95.7367 99.5215 97.3708 98.5028 98.5707H98.5107ZM102.08 99.3364C101.14 100.355 100.303 101.247 100.043 101.507C101.251 100.244 102.886 98.5707 104.031 97.2445L104.939 96.1472C104.591 96.5656 103.28 98.0181 102.072 99.3364H102.08ZM99.8532 91.3555C98.8503 93.5658 99.5531 94.4894 100.832 93.9605C103.028 93.0685 105.657 88.6873 104.046 87.8189C103.036 87.5426 101.788 88.703 101.14 89.4135C100.722 90.0687 100.288 90.7081 99.8453 91.3476L99.8532 91.3555ZM106.021 92.7369C104.899 94.4342 104.362 95.6656 104.789 95.5393C105.776 95.2472 109.472 89.824 108.998 89.3583C108.99 89.3504 108.966 89.3425 108.95 89.3346C108.421 89.4135 106.921 91.3713 106.021 92.7369ZM107.9 84.6297C106.913 86.7769 106.889 88.4031 107.837 87.9689C109.337 87.29 112.078 81.922 110.783 81.2668C109.914 81.1484 108.579 83.1614 107.9 84.6376V84.6297ZM111.635 85.4586C110.854 87.0532 110.404 88.0084 110.285 88.2926C110.301 88.2689 110.325 88.2373 110.348 88.2215C111.351 86.2796 112.67 83.6903 113.554 81.6931C113.594 81.5984 113.594 81.5984 113.594 81.5589C113.396 81.8589 112.046 84.6139 111.635 85.4586V85.4586ZM107.458 76.9724C107.276 79.3091 108.335 79.838 109.401 78.8591C111.051 77.3434 112.038 73.1201 110.569 72.3386C110.182 72.236 109.574 72.2439 108.674 73.5464C108.303 74.691 107.9 75.8357 107.466 76.9803L107.458 76.9724ZM113.523 77.5882C112.915 79.5459 112.749 80.9589 113.144 80.809C113.973 80.4932 115.979 74.32 115.41 73.8542C115.394 73.8464 115.371 73.8385 115.355 73.8306C114.85 73.9174 113.965 76.183 113.523 77.5882V77.5882ZM113.136 68.8494C112.757 71.1229 113.12 72.8201 113.886 72.3544C115.071 71.6281 116.224 65.9996 114.897 65.3207C114.107 65.2102 113.389 67.3179 113.136 68.8573V68.8494ZM116.8 69.7177C116.658 70.5545 116.334 72.5201 116.389 72.7885C116.429 72.7491 116.484 72.7017 116.737 71.5571L116.903 70.7834L117.534 67.0416C117.645 66.2049 117.685 65.7944 117.653 65.676C117.653 65.676 117.645 65.676 117.637 65.676C117.44 66.0075 116.808 69.6783 116.8 69.7177ZM111.28 61.9026C111.825 63.7735 112.717 63.7024 113.278 62.692C114.226 60.9869 114.091 57.0004 112.765 56.2978C112.362 56.1873 112.093 56.3452 111.738 56.9056C111.651 58.5713 111.501 60.2369 111.28 61.9105V61.9026ZM116.437 61.5158C116.374 63.663 116.618 65.1629 116.974 64.7918C117.519 64.2156 117.969 58.074 117.14 57.695C116.713 57.774 116.484 60.0791 116.437 61.5158V61.5158ZM114.21 52.8165C114.407 55.1058 115.071 56.7399 115.592 56.2504C116.389 55.5084 116.042 49.9273 114.802 49.2878C114.139 49.201 114.084 51.4034 114.21 52.8165ZM117.44 53.598C117.574 54.869 117.756 56.4399 117.89 56.6846C118.166 56.4557 117.558 50.2588 117.187 49.6273C117.179 49.6273 117.171 49.6273 117.171 49.6194C117.061 49.8641 117.345 52.7218 117.44 53.598ZM111.414 46.4302C112.141 47.8432 112.702 47.7169 112.915 46.9985C113.396 45.3803 112.236 41.3385 111.114 40.7385C110.909 40.6833 110.735 40.6833 110.569 41.1648C110.925 42.8936 111.209 44.654 111.414 46.4302ZM115.094 45.5539C115.6 47.7169 116.137 49.0826 116.342 48.7195C116.697 48.0879 115.465 42.2621 114.66 41.8832C114.265 41.9858 115.086 45.5223 115.094 45.5539V45.5539ZM116.445 45.3645C116.508 45.625 116.634 46.146 116.761 46.7538L115.995 43.5804L115.687 42.4831C116.018 43.612 116.287 44.6698 116.453 45.3645H116.445ZM111.17 37.352C111.936 39.5465 112.804 41.0069 113.065 40.5333C113.515 39.7044 111.556 34.5496 110.593 34.0522C110.001 33.9891 111.154 37.3204 111.17 37.352ZM113.76 38.0151C114.621 40.2412 114.881 40.8017 115.007 40.9517C115.015 40.9438 115.031 40.9359 115.039 40.928C114.992 39.8702 112.749 34.4548 112.441 34.3443C112.441 34.4864 112.441 34.6206 113.76 38.0072V38.0151ZM107.869 32.0234C108.548 32.8602 108.674 32.5208 108.698 32.3313C108.832 31.2025 106.645 27.0502 105.618 26.4818C105.5 26.4502 105.452 26.4739 105.436 26.6555C105.689 27.1449 105.942 27.6422 106.187 28.1395C106.337 28.4869 106.495 28.85 106.668 29.2052C106.739 29.3473 106.834 29.5368 106.905 29.6789C107.245 30.4446 107.569 31.2261 107.876 32.0155L107.869 32.0234ZM109.622 30.6104C110.688 32.6076 111.312 33.5865 111.478 33.5312C111.667 32.947 108.769 27.6422 108.074 27.3028C108.042 27.3659 107.963 27.5001 109.622 30.6104ZM110.656 30.5157C111.264 31.6129 111.643 32.3313 112.07 33.1602V33.1523C111.114 31.3603 109.819 28.9763 108.753 27.2396C108.698 27.1528 108.642 27.0581 108.579 26.9712C109.243 28.1632 109.985 29.3079 110.648 30.4999L110.656 30.5157ZM104.402 23.4662C106.1 25.945 106.487 26.245 106.629 26.2529C106.992 25.795 103.407 20.9875 102.617 20.5691C102.609 20.5691 102.593 20.5691 102.586 20.5691C102.57 20.6244 102.538 20.7586 104.394 23.4662H104.402ZM106.06 23.9004C107.892 26.3713 107.892 26.3713 108.027 26.4897C108.05 25.8976 104.062 20.9086 103.715 20.7507C103.762 20.8533 103.77 20.8691 104.473 21.7927C104.757 22.1637 105.357 22.9452 106.06 23.9004V23.9004ZM100.674 19.2034C100.911 19.4245 100.982 19.4639 101.054 19.4797C101.204 18.9271 97.3498 14.9327 96.6233 14.5222C96.6233 14.5617 96.647 14.6091 96.6707 14.6406C96.9234 14.9011 97.184 15.1617 97.4288 15.4222C97.8316 15.8721 98.2343 16.3221 98.6371 16.772C98.9134 17.0799 99.1898 17.3878 99.4662 17.6957C99.8769 18.193 100.28 18.6903 100.674 19.2034V19.2034ZM100.359 17.6167C102.633 19.9928 102.633 19.9928 102.743 20.056C102.704 19.5508 98.3765 15.2485 97.7052 14.8854C97.7447 14.9485 97.7447 14.9564 98.3686 15.58C98.9056 16.1168 99.4978 16.7089 100.359 17.6167V17.6167ZM100.911 17.5772C101.654 18.3193 102.341 19.1324 103.115 19.8429C102.357 18.7614 98.3133 14.909 97.9421 14.7512C98.8977 15.7221 99.9401 16.6063 100.911 17.5772V17.5772ZM97.3814 14.1828C97.6736 14.4354 98.4712 15.1143 99.4978 16.0774C98.8661 15.509 98.0211 14.7433 97.3814 14.1828ZM94.0015 12.0198C94.5701 12.4856 95.1466 12.9671 95.4546 13.2276C96.189 13.8512 96.4496 14.0644 96.568 14.1354C96.4496 13.7565 92.13 10.3778 91.0244 9.73052C92.0036 10.512 93.0302 11.2225 94.0015 12.0198V12.0198ZM94.5464 12.1698C95.4309 12.8487 96.2601 13.5986 97.1682 14.2459C96.8839 13.796 92.43 10.4489 91.2139 9.76999C94.3016 11.9803 94.3016 11.9803 94.5464 12.1698V12.1698ZM94.5701 12.0119C95.4151 12.6355 96.2206 13.3065 97.0656 13.9381C95.6678 12.6513 92.0194 10.1094 91.1823 9.66737C93.6541 11.3251 93.6541 11.3251 94.5701 12.004V12.0119ZM94.0884 11.5777C94.5464 11.9093 95.0518 12.2882 95.4783 12.6198C95.2019 12.4066 94.8465 12.1303 94.5701 11.9251C94.0094 11.5067 93.4961 11.1357 93.0381 10.812C92.3037 10.2831 92.28 10.2673 90.4558 9.12267C90.4637 9.12267 91.1191 9.49369 92.0273 10.1173C92.28 10.2831 92.588 10.5041 92.8644 10.6936C91.6798 9.88051 90.9296 9.45422 90.9217 9.45422C93.6304 11.2462 93.6304 11.2462 94.0884 11.5777V11.5777ZM90.4321 9.0832L90.1399 8.90164C89.8714 8.73586 89.7846 8.69639 89.7846 8.69639C89.7846 8.69639 89.7925 8.69639 89.7925 8.70429C90.0846 8.87796 90.3768 9.04373 90.6611 9.2253L90.44 9.0832H90.4321ZM89.137 8.29379L89.0185 8.22275C89.0106 8.21485 89.0028 8.20696 88.987 8.20696C88.9949 8.21485 89.0028 8.22275 89.0107 8.22275C89.1133 8.278 89.216 8.34116 89.3186 8.39642L89.1291 8.2859L89.137 8.29379ZM88.0156 7.64648L87.9998 7.63858C88.0709 7.67805 88.142 7.72542 88.2131 7.76489C88.2367 7.78068 88.2604 7.78068 88.2841 7.79646L88.0156 7.64648ZM86.8627 7.01495C87.0522 7.11757 87.2338 7.22809 87.4234 7.33071C87.4234 7.33071 87.4313 7.33071 87.4313 7.33861C87.3839 7.29914 87.2259 7.2123 87.2259 7.2123C87.1154 7.14915 86.9732 7.07021 86.8627 7.01495ZM85.3149 6.21765C85.7887 6.45447 86.2467 6.70708 86.7126 6.95969C86.6889 6.9439 86.3968 6.77023 85.9545 6.5413C85.765 6.44657 85.5044 6.31237 85.3149 6.21765ZM83.8065 5.49139C83.4275 5.31772 82.93 5.08879 82.5509 4.92301C83.4749 5.32561 83.4749 5.32561 86.1204 6.66761C86.1125 6.66761 85.3701 6.22554 83.9961 5.57033L83.8144 5.48349L83.8065 5.49139ZM88.5368 8.12012H88.5447L88.5368 8.11223L88.5289 8.10433L88.521 8.09644H88.5131H88.521H88.5131L88.5368 8.11223V8.12012ZM88.5447 8.12012H88.5526L88.5447 8.11223H88.5526H88.5605H88.5684L88.5763 8.12012H88.5842L88.5921 8.12802L88.5526 8.10433L88.5447 8.12012ZM88.5763 8.1438H88.5842H88.5921H88.6L88.6079 8.1517H88.6158H88.6237H88.6316L88.6395 8.15959L88.6474 8.16749L88.6553 8.17538H88.6632H88.6711L88.679 8.18328L88.6869 8.19117L88.6948 8.19906L88.7027 8.20696L88.7106 8.21485H88.7185L88.7264 8.22275L88.7343 8.23064L88.7422 8.23853H88.7501L88.758 8.24643L88.7658 8.25432L88.7737 8.26222H88.7816L88.7895 8.27011L88.7974 8.278L88.8053 8.2859L88.8132 8.29379H88.8211H88.829L88.8369 8.30169L88.8448 8.30958L88.8606 8.31747H88.8685C89.2791 8.58587 89.6898 8.85427 90.0925 9.13057C90.1162 9.14635 90.1399 9.16214 90.1636 9.17793C90.1636 9.17793 89.7372 8.85427 88.4579 8.05697C88.5368 8.10433 88.6395 8.16749 88.7185 8.21485C89.2791 8.5543 89.8161 8.92532 90.3847 9.25687C90.3847 9.25687 89.8398 8.87796 88.45 8.05697L88.679 8.17538C89.1449 8.4201 89.6029 8.67271 90.0609 8.92532C90.0609 8.92532 89.5555 8.61745 88.45 8.05697L88.6316 8.1438C88.9791 8.30958 89.3265 8.49904 89.674 8.66481C89.674 8.66481 89.287 8.42799 88.45 8.05697L88.7185 8.21485C89.2949 8.5464 89.8477 8.90953 90.4242 9.23319C90.4163 9.23319 89.8556 8.85427 88.45 8.06486C88.5289 8.11223 88.6316 8.15959 88.7106 8.20696C89.2555 8.50693 89.7688 8.84638 90.3215 9.12267C90.3136 9.12267 89.7293 8.75165 88.4421 8.05697L88.3473 8.0096C87.6129 7.63858 87.1786 7.44912 87.1549 7.44123C87.5734 7.66227 88.0156 7.85172 88.4421 8.05697L88.371 8.02539C87.8419 7.78068 87.5418 7.67016 87.4786 7.65437C87.5655 7.70963 87.6603 7.73331 87.755 7.77278C87.984 7.86751 88.221 7.96224 88.45 8.06486C88.4342 8.05697 88.4184 8.04908 88.4026 8.04908C88.0867 7.93856 87.9209 7.90698 87.8814 7.90698C87.8893 7.91488 87.913 7.92277 88.0077 7.95435C88.1499 7.99382 88.2999 8.02539 88.4421 8.06486C88.4342 8.06486 88.4342 8.06486 88.4263 8.06486C88.3078 8.09644 88.2841 8.1517 88.3236 8.16749C88.3552 8.18328 88.4184 8.15959 88.4421 8.05697C88.4737 8.07276 88.521 8.08855 88.5605 8.10433C88.7264 8.16749 88.9001 8.23853 89.0659 8.30958C89.0975 8.32537 89.1291 8.34116 89.1607 8.34905C89.1607 8.34905 88.9238 8.20696 88.4421 8.05697C88.45 8.05697 88.4658 8.05697 88.4816 8.05697C88.6079 8.04908 88.6079 8.04908 88.6158 8.04118C88.6158 8.0175 88.5131 7.96224 88.4658 8.0096C88.45 8.02539 88.4421 8.04118 88.4342 8.05697C88.4184 8.04118 88.4105 8.02539 88.3947 8.0096C88.221 7.81225 88.0314 7.69384 88.0156 7.68595C88.0393 7.71752 88.0709 7.73331 88.0946 7.75699C88.2131 7.85172 88.3236 7.95435 88.4342 8.05697C88.4026 8.03329 88.3552 7.99382 88.3157 7.97013C87.8419 7.6149 87.4865 7.40965 87.4865 7.40176C87.5102 7.42544 87.5418 7.44123 87.5734 7.46491C87.9525 7.71752 88.142 7.85172 88.4263 8.05697C87.913 7.75699 87.3839 7.4807 86.8706 7.16494C86.8785 7.16494 87.4076 7.44912 88.3078 7.98592L88.4184 8.04908C87.9604 7.76489 87.4865 7.51228 87.0364 7.2202C87.0443 7.2202 87.5181 7.48859 88.3236 7.99382L88.4184 8.05697L88.3236 7.99382L88.4184 8.05697L88.2367 7.93856C87.5892 7.50438 87.0838 7.2123 87.0127 7.17283C87.4786 7.4807 87.9525 7.75699 88.4184 8.05697L88.2367 7.93856L88.4184 8.05697L88.2999 7.98592C87.4234 7.48859 86.8706 7.20441 86.8311 7.18862C87.3523 7.48859 87.8893 7.75699 88.4184 8.05697H88.4263L88.5842 8.15959L88.5763 8.1438ZM88.4895 8.08855L88.4816 8.08065L88.4737 8.07276L88.4658 8.06486H88.4579L88.45 8.05697L88.4421 8.04908L88.4342 8.04118L88.4263 8.03329L88.4184 8.02539L88.4105 8.0175L88.4895 8.07276C88.829 8.30169 89.1528 8.56219 89.5082 8.78323C89.5003 8.77533 89.1765 8.52272 88.4184 8.02539L88.4895 8.07276V8.08855ZM88.4105 8.04118L88.292 7.97803C87.4313 7.51228 86.9337 7.27545 86.9101 7.26756C87.3997 7.54385 87.913 7.78068 88.4105 8.04118C88.6711 8.278 88.7343 8.38063 88.7343 8.39642C88.7185 8.39642 88.7185 8.39642 88.4263 8.05697C88.4184 8.04908 88.4105 8.04118 88.4026 8.03329L88.4105 8.04118ZM25.1084 107.309C24.4293 106.804 23.7896 106.244 23.1026 105.754C23.0947 105.746 23.0868 105.746 23.071 105.739C23.1105 105.817 23.758 106.331 23.7817 106.354C24.1766 106.646 24.7057 107.033 25.1005 107.317L25.1084 107.309ZM26.4351 108.217C26.593 108.328 26.751 108.438 26.9089 108.541L27.6117 108.999L27.7381 109.078C26.822 108.494 26.0639 107.696 25.1637 107.096C25.14 107.081 25.1163 107.065 25.0926 107.057C25.0926 107.065 25.0847 107.073 25.0847 107.073C25.1874 107.23 25.6928 107.68 26.4351 108.209V108.217ZM27.9513 109.157C28.125 109.299 28.3383 109.441 28.5673 109.583C28.662 109.638 28.7884 109.717 28.8831 109.772C28.741 109.686 28.6225 109.559 28.4488 109.362C28.1329 109.007 27.9197 108.794 27.6591 108.628C27.4538 108.517 27.438 108.572 27.4617 108.636C27.4854 108.722 27.6354 108.904 27.9513 109.157V109.157ZM29.5702 110.112C29.5623 110.143 29.586 110.175 29.6255 110.207C29.7123 110.254 29.8229 110.317 29.9098 110.364C30.3204 110.593 30.5652 110.538 30.5257 110.388C30.4941 110.278 30.3362 110.183 30.2809 110.151C29.8782 109.938 29.5939 110.001 29.5702 110.112V110.112ZM31.1812 111.02C31.0548 110.972 30.8732 110.901 30.6679 110.791C30.7705 110.846 30.9127 110.925 31.0232 110.98C32.1367 111.572 32.879 111.754 32.9501 111.675C32.9422 111.643 32.9264 111.635 32.8474 111.588C32.3183 111.32 31.734 111.225 31.1812 111.02ZM32.6895 111.825C32.5394 111.754 32.2315 111.612 31.8919 111.446L32.0024 111.501C32.1446 111.572 32.342 111.675 32.4921 111.746C34.2689 112.63 35.1612 112.867 35.256 112.875C35.2481 112.859 35.2244 112.843 35.2086 112.835C34.3873 112.448 33.5187 112.196 32.6895 111.825ZM33.9846 112.472C33.9135 112.441 33.8109 112.393 33.7319 112.354L34.2373 112.591L35.0112 112.946C36.6617 113.672 37.2144 113.822 37.2223 113.83C37.2144 113.822 37.2065 113.822 37.1987 113.814C36.1326 113.348 35.0349 112.962 33.9846 112.48V112.472ZM18.6329 102.084C18.9251 102.344 19.312 102.707 19.6042 102.968C18.1828 101.673 16.9192 100.228 15.5373 98.9101C15.6083 99.0364 16.3822 99.8811 17.2351 100.726L18.6408 102.084H18.6329ZM19.2567 102.51C20.3149 103.544 21.381 104.444 21.6416 104.649C21.6258 104.625 17.7721 100.655 17.3931 100.355C17.3773 100.347 17.3615 100.339 17.3457 100.331C17.3378 100.339 17.3299 100.347 17.322 100.347C17.4404 100.599 18.1907 101.476 19.2488 102.51H19.2567ZM21.46 104.041C22.3603 104.989 23.4342 105.912 23.5843 105.96C23.5685 105.817 21.1757 102.96 20.4097 102.415C20.3149 102.36 20.2991 102.352 20.2518 102.352C20.1412 102.47 20.6624 103.197 21.46 104.049V104.041ZM24.5319 106.007C25.0847 106.749 26.1745 107.775 26.2298 107.538C26.2771 107.333 25.4638 105.636 24.4608 104.965C23.987 104.696 24.0186 105.004 24.0502 105.146C24.0739 105.241 24.1687 105.525 24.524 105.999L24.5319 106.007ZM28.0619 108.146C28.2356 108.88 29.1674 109.701 29.5781 109.109C29.7913 108.801 29.6965 108.13 28.9621 107.665C28.283 107.302 27.9434 107.625 28.0619 108.146ZM31.6945 110.246C31.3549 110.459 31.2759 110.783 32.1762 111.004C33.2502 111.272 34.1504 110.996 33.8109 110.514C33.7319 110.404 33.6292 110.333 33.5187 110.27C32.7685 109.891 31.9946 110.049 31.6866 110.238L31.6945 110.246ZM35.2086 112.18C34.3873 112.149 34.3321 112.188 34.3005 112.212C34.4426 112.646 37.9331 113.246 38.0673 112.867C38.0989 112.78 37.9568 112.693 37.8699 112.646C37.1987 112.322 36.0457 112.212 35.2007 112.18H35.2086ZM38.3832 113.83C37.8462 113.719 37.325 113.538 36.7722 113.498C37.1829 113.933 41.6052 114.998 41.8579 114.722C41.85 114.683 41.8342 114.675 41.7473 114.627C41.2893 114.422 40.9023 114.343 38.3832 113.83V113.83ZM12.2284 95.042L14.2817 97.5681C12.8049 95.8314 11.5256 93.9368 10.1357 92.137C10.1752 92.2159 10.191 92.2317 10.3885 92.5238L12.2205 95.042H12.2284ZM13.492 96.2893C14.4712 97.5681 15.5847 98.8154 15.79 98.9417C15.7979 98.7443 12.3469 94.0947 11.9047 93.7079C11.881 93.6921 11.8573 93.6763 11.8257 93.6763C11.7704 93.85 12.5364 95.042 13.492 96.2893ZM16.1532 98.2549C17.0298 99.5022 18.2617 100.86 18.4591 100.805C18.5618 100.521 16.3349 96.9208 15.3398 96.1709C15.2451 96.1156 15.0161 95.9814 15.1029 96.3445C15.1345 96.4866 15.3083 97.0471 16.1611 98.2549H16.1532ZM20.1886 100.931C20.9151 102.234 22.2813 103.702 22.455 103.189C22.613 102.731 21.6653 100.355 20.3386 99.4311C19.5331 98.9733 19.7306 99.8179 19.7779 99.9916C19.849 100.244 19.9991 100.592 20.1886 100.923V100.931ZM25.3295 104.12C25.6217 105.289 26.9484 106.717 27.5091 105.904C27.8881 105.36 27.6038 103.939 26.4509 103.181C25.519 102.676 25.1163 103.26 25.3295 104.12V104.12ZM30.8258 107.365C30.4152 108.43 31.8208 109.401 32.9738 108.841C33.7398 108.47 33.8503 107.554 32.8553 106.923C31.7892 106.37 31.0232 106.852 30.8337 107.365H30.8258ZM36.3063 110.459C35.6666 110.791 35.5166 111.28 36.4721 111.572C37.9015 112.014 40.0337 111.596 39.5283 110.775C39.4335 110.625 39.2992 110.538 39.1492 110.443C38.091 109.922 36.867 110.167 36.3063 110.459V110.459ZM41.4393 113.214C41.1155 113.246 40.081 113.38 40.3259 113.64C40.8628 114.193 45.0719 114.572 45.2299 113.838C45.2615 113.696 45.0719 113.593 44.9614 113.522C43.99 113.08 42.2922 113.119 41.4393 113.206V113.214ZM45.8853 115.44C44.2191 115.361 44.1164 115.425 44.0611 115.464C44.1717 115.669 46.0669 116.04 47.4884 116.19C49.0599 116.356 50.0391 116.261 50.0391 116.08C50.0391 116.032 49.9601 115.985 49.897 115.953C49.1547 115.653 47.3068 115.511 45.8853 115.44V115.44ZM8.35103 89.0583C9.18022 90.5108 10.1357 91.9159 10.3332 92.0501C10.3648 91.8133 7.41919 86.5085 7.00855 86.0822C7.00065 86.0743 6.97696 86.0664 6.96907 86.0585C6.84271 86.2401 7.71928 87.9531 8.35103 89.0662V89.0583ZM10.886 91.1344C11.7783 92.808 13.026 94.4578 13.1524 94.1184C13.2866 93.7395 11.4072 89.5556 10.2779 88.632C9.98571 88.4583 9.91463 88.6399 10.0489 89.1767C10.2226 89.8319 10.6491 90.6845 10.886 91.1344V91.1344ZM15.2846 94.1973C16.0269 95.9182 17.5115 97.7339 17.8037 97.0234C18.088 96.3366 17.0535 93.3211 15.5847 92.2554C14.5896 91.687 14.9055 93.0685 14.945 93.2343C14.9924 93.4316 15.0871 93.7632 15.2846 94.2052V94.1973ZM21.4284 98.1286C21.8312 99.8574 23.529 101.634 24.2002 100.655C24.7135 99.9048 24.2476 97.7891 22.7551 96.7787C21.5942 96.1393 21.1599 96.9839 21.4284 98.1286ZM28.5199 102.423C28.3304 103.97 30.0598 105.596 31.3312 104.586C32.1683 103.923 32.0814 102.423 30.7231 101.547C29.4912 100.899 28.6383 101.484 28.5199 102.415V102.423ZM35.8246 106.638C34.9717 107.775 36.2589 108.967 38.0041 108.667C39.5993 108.399 40.1442 107.081 38.9913 106.283C38.9439 106.252 38.8728 106.212 38.8254 106.181C37.4908 105.51 36.2668 106.046 35.8246 106.638ZM42.9003 110.538C42.0632 110.964 41.771 111.62 42.8608 111.991C44.5428 112.567 47.6147 111.872 47.0146 110.791C46.9119 110.601 46.7461 110.499 46.5645 110.396C45.2694 109.788 43.6268 110.159 42.9003 110.53V110.538ZM49.2889 113.869C48.4439 114.051 47.6148 114.375 48.0649 114.69C49.1784 115.456 53.9086 115.077 53.7428 114.233C53.7191 114.09 53.577 114.012 53.4348 113.933C52.2503 113.427 50.205 113.672 49.281 113.869H49.2889ZM4.34727 81.251C4.93954 82.7193 5.60289 84.1324 5.80031 84.4244C5.86349 84.1245 3.26539 77.975 3.2417 77.9276C3.2338 77.9197 3.2259 77.9118 3.21801 77.9118C3.18642 78.1802 3.78659 79.8538 4.34727 81.2589V81.251ZM6.25044 83.1377C7.00065 85.0639 8.07464 86.84 8.23258 86.4295C8.40631 85.9717 6.90589 81.2431 5.8477 80.2722C5.39757 79.988 5.5792 80.9589 5.68186 81.3852C5.76083 81.7326 5.92667 82.3246 6.25044 83.1377ZM10.5069 86.2953C11.1703 88.3399 12.6391 90.4161 13.026 89.5161C13.4288 88.5846 12.4101 85.0718 10.9807 83.9666C10.0647 83.4298 10.0963 84.7165 10.3411 85.7112C10.3885 85.8927 10.4516 86.1296 10.5069 86.3032V86.2953ZM16.9745 90.5897C17.3931 92.7527 19.3594 94.9394 20.1412 93.6369C20.7177 92.6817 20.1728 90.045 18.467 88.853C17.0535 88.0557 16.7376 89.3898 16.9745 90.5897V90.5897ZM25.2426 95.7288C25.1637 97.7102 27.209 99.81 28.5752 98.5865C29.4517 97.797 29.4517 95.6893 27.6433 94.4894C26.2061 93.7158 25.29 94.5131 25.2426 95.7288ZM34.103 100.963C33.3923 102.707 35.4139 104.412 37.2381 103.607C38.6596 102.976 38.936 101.176 37.2697 100.118C35.6587 99.289 34.4426 100.11 34.0951 100.955L34.103 100.963ZM42.9555 105.96C41.9368 107.002 42.6239 108.399 44.7166 108.399C46.8724 108.391 48.3097 106.946 47.2752 105.817C47.1172 105.644 46.9277 105.525 46.7698 105.431C45.222 104.681 43.611 105.289 42.9555 105.96V105.96ZM51.2553 110.42C50.1892 110.996 49.8417 111.817 51.1131 112.212C53.2216 112.859 56.6173 111.691 56.0329 110.53C55.9224 110.317 55.7407 110.207 55.5433 110.088C54.0903 109.433 52.1397 109.946 51.2553 110.42ZM58.4494 114.035C57.3438 114.375 56.4673 114.896 57.1622 115.227C58.7337 115.969 63.764 114.959 63.2744 113.996C63.2192 113.893 63.0849 113.814 62.9901 113.759C61.8056 113.293 59.626 113.664 58.4494 114.035V114.035ZM2.30196 75.3699C1.78866 73.5937 1.31484 71.5018 1.06213 70.2151C1.42539 71.7623 1.86762 73.8385 2.30196 75.3699ZM2.57045 74.5331C2.98899 76.183 3.66813 78.0223 3.97611 78.0302C4.39465 77.6355 3.05217 72.1097 2.34144 71.3124C1.9387 71.044 2.15981 72.6386 2.34144 73.5148C2.39672 73.8069 2.49149 74.2253 2.57835 74.5331H2.57045ZM6.07671 77.4303C6.55053 79.5933 7.76666 81.7878 8.26417 80.9668C8.79326 80.0906 8.02726 75.8594 6.67688 74.7226C5.82401 74.2095 5.69765 75.7252 6.07671 77.4303V77.4303ZM12.2363 81.7326C12.568 84.1324 14.3922 86.5322 15.3004 85.1981C16.0348 84.1245 15.561 80.8879 13.7999 79.5854C12.4101 78.7881 12.0468 80.359 12.2363 81.7326V81.7326ZM20.8835 87.2821C20.8519 89.5398 23.071 92.0501 24.5398 90.7792C25.598 89.8635 25.5269 87.1084 23.45 85.6954C21.7048 84.7323 20.8993 86.0427 20.8835 87.2742V87.2821ZM30.9364 93.3763C30.3599 95.6735 32.8316 97.7891 34.7111 96.605C35.9904 95.8077 36.2905 93.5027 34.2531 92.1764C32.4131 91.2134 31.2049 92.2949 30.9364 93.3685V93.3763ZM41.313 99.3759C40.3653 100.986 41.921 103.023 44.3217 102.494C46.5092 102.012 47.1725 99.8021 45.4826 98.6259C45.4194 98.5786 45.3246 98.5233 45.2536 98.4838C43.4294 97.576 41.85 98.4601 41.3051 99.3759H41.313ZM51.3816 104.933C50.0628 106.188 50.892 107.625 52.9689 107.673C55.4959 107.736 57.4781 105.96 56.333 104.649C56.1672 104.46 55.9618 104.333 55.7881 104.231C54.0903 103.433 52.1871 104.16 51.3737 104.933H51.3816ZM60.5105 109.701C59.3181 110.42 58.8916 111.422 60.2815 111.793C62.5321 112.393 66.2674 110.838 65.683 109.536C65.5804 109.299 65.3829 109.188 65.1855 109.07C63.6377 108.415 61.4976 109.109 60.5105 109.701ZM68.06 113.333C66.8755 113.822 65.9278 114.501 66.6464 114.817C67.0492 114.99 67.8152 114.951 68.0679 114.935C69.7026 114.454 71.3214 113.893 72.9245 113.246C73.1693 112.883 72.9798 112.741 72.7508 112.622C71.5741 112.212 69.2445 112.843 68.0521 113.333H68.06ZM0.446171 65.8181C0.627801 67.389 0.951577 69.1809 1.1411 69.3309C1.47278 68.881 0.690977 62.8341 0.398789 62.3131C0.390892 62.3052 0.375098 62.2973 0.367201 62.2894C0.0829103 62.621 0.446171 65.7865 0.446171 65.8181ZM2.82316 68.2179C3.07586 70.5861 3.94453 72.5596 4.44993 71.9202C5.08169 71.1308 4.78161 66.347 3.58127 65.2102C2.86264 64.7681 2.62573 66.4259 2.82316 68.2179V68.2179ZM8.26417 72.2754C8.40631 74.77 9.94622 77.2724 10.9649 76.0251C11.881 74.9121 11.6599 71.1466 9.93832 69.8046C8.63533 69.0467 8.1773 70.7913 8.26417 72.2754ZM16.5955 77.825C16.4928 80.6511 18.9014 83.0903 20.386 81.6694C21.6337 80.4774 21.3021 77.3592 19.2804 75.9225C17.5115 74.9278 16.6428 76.4356 16.5955 77.825V77.825ZM27.3274 84.5113C26.822 87.0926 29.3807 89.5398 31.3549 88.3557C32.9975 87.3689 33.0291 84.5034 30.8179 83.0272C28.82 81.9536 27.5722 83.2482 27.3274 84.5113ZM38.8728 91.3476C37.9252 93.6369 40.389 95.9498 42.7502 94.9867C44.7403 94.1737 45.2141 91.5844 42.9634 90.1477C40.9181 89.1056 39.3387 90.2187 38.8728 91.3476ZM50.4261 97.876C49.1468 99.6916 50.8209 101.673 53.3085 101.294C55.9697 100.884 57.1069 98.3259 55.2116 97.0155C55.1406 96.9682 55.0379 96.9129 54.9668 96.8655C53.0005 95.9182 51.1289 96.8892 50.434 97.8839L50.4261 97.876ZM61.2765 103.718C59.8235 105.091 60.4631 106.583 62.5479 106.678C65.2566 106.796 67.8073 104.618 66.6149 103.197C66.449 102.999 66.2358 102.873 66.0621 102.77C64.2931 101.981 62.2005 102.849 61.2765 103.726V103.718ZM70.7213 108.478C69.2445 109.48 69.0787 110.522 70.3501 110.799C72.7429 111.312 76.8098 109.109 75.9333 107.783C75.8306 107.625 75.6648 107.53 75.5226 107.452C73.9906 106.859 71.7558 107.767 70.7134 108.478H70.7213ZM0.00394063 60.4738C-0.0276472 58.9502 0.138189 54.6795 0.232953 53.5743C0.122395 55.6426 -0.00395633 58.3976 0.00394063 60.4738ZM0.927886 58.8555C0.888401 61.1448 1.32273 63.0472 1.78076 62.5578C2.4599 61.8315 2.64942 56.5504 1.83604 55.5794C1.32273 55.24 0.967371 57.0161 0.927886 58.8476V58.8555ZM5.15276 62.3683C5.0501 65.0523 6.23465 67.2706 7.22966 66.2443C8.26417 65.1786 8.47739 60.9316 6.93748 59.6054C5.80821 58.9265 5.21594 60.8132 5.15276 62.3604V62.3683ZM12.6312 67.6021C12.3627 70.5466 14.3843 73.0175 15.9637 71.6755C17.3773 70.4756 17.2983 66.8206 15.3556 65.3839C13.6973 64.4366 12.7654 66.118 12.6233 67.61L12.6312 67.6021ZM23.1578 74.3674C22.6209 77.2487 25.369 79.9722 27.4222 78.5907C28.9542 77.5566 29.3096 74.3516 26.8141 72.6386C24.7293 71.4939 23.4263 72.9622 23.1578 74.3674V74.3674ZM35.4376 81.8194C34.5532 84.4639 37.3408 87.1242 39.7652 85.9401C41.7868 84.9534 42.1106 81.9536 39.6704 80.359C37.475 79.2143 35.872 80.5248 35.4376 81.8194V81.8194ZM48.1281 89.1688C46.9119 91.5133 49.2178 93.9131 51.9186 93.1158C54.343 92.4054 55.2353 89.4135 52.7794 87.8742C50.5998 86.7927 48.7519 87.9768 48.136 89.1688H48.1281ZM60.4631 95.9814C59.0338 97.9076 60.471 99.9127 63.0691 99.6127C65.8962 99.289 67.5388 96.5656 65.8173 95.0657C65.6909 94.9552 65.4935 94.8289 65.3434 94.742C63.3139 93.7947 61.2686 94.8999 60.471 95.9814H60.4631ZM71.6531 101.831C70.0895 103.41 70.6818 104.989 72.8377 104.957C75.7122 104.918 78.4366 102.155 76.952 100.789C76.8493 100.694 76.6835 100.599 76.5571 100.521C74.804 99.7864 72.6402 100.844 71.6531 101.831ZM80.9242 106.299C79.4395 107.483 79.2105 108.628 80.4109 108.794C80.9715 108.872 81.5954 108.715 81.935 108.636C83.3011 107.775 84.6436 106.852 85.9545 105.865C86.1598 105.312 86.073 105.02 85.615 104.775C84.1935 104.294 81.9823 105.454 80.9242 106.299V106.299ZM0.86471 49.7615C0.659389 51.0482 0.438274 53.1796 0.722565 53.3928C1.25166 53.3059 2.30985 47.0696 1.9229 46.296C1.90711 46.2881 1.89132 46.2723 1.88342 46.2644C1.54385 46.3196 1.07793 48.4432 0.86471 49.7694V49.7615ZM3.55758 52.5086C3.17062 54.9953 3.7629 57.0714 4.68684 56.4715C5.94246 55.6584 6.72426 50.7561 5.47654 49.5325C4.56049 48.9721 3.80238 50.9298 3.55758 52.5007V52.5086ZM9.81197 57.1898C9.29867 60.087 10.8465 62.542 12.4496 61.35C14.0447 60.1659 14.408 56.1399 12.6233 54.719C11.1387 53.8585 10.0884 55.6426 9.81197 57.1819V57.1898ZM19.4305 63.6077C18.7592 66.5443 21.1678 69.3388 23.3316 68.1389C25.2742 67.0653 25.5269 63.3235 23.1657 61.6421C21.152 60.5211 19.77 62.1157 19.4226 63.6077H19.4305ZM31.8524 71.3518C30.9127 74.3437 33.8424 77.225 36.4011 75.8278C38.4701 74.6989 38.7701 71.3913 36.2352 69.6941C33.9609 68.4784 32.3025 69.9309 31.8524 71.3597V71.3518ZM45.2536 79.2854C44.1085 81.9378 46.7066 84.6692 49.4705 83.714C51.9265 82.8614 52.6609 79.467 50.0233 77.7697C47.6937 76.5856 45.8379 77.9434 45.2615 79.2854H45.2536ZM58.6784 86.8795C57.2648 89.3583 59.6339 91.8765 62.5163 90.9608C65.0986 90.1398 66.1726 86.9584 63.6456 85.3954C61.4108 84.3218 59.397 85.6165 58.6863 86.8716L58.6784 86.8795ZM71.2978 93.6763C69.7736 95.7762 71.1872 97.876 73.8169 97.4181C76.8651 96.8892 78.5551 93.6605 76.5098 92.2633C76.4387 92.2159 76.336 92.1607 76.2649 92.1133C74.2591 91.2213 72.1506 92.4843 71.2978 93.6684V93.6763ZM82.2903 99.2259C80.8136 100.892 81.1769 102.494 83.0248 102.462C85.8519 102.415 88.8843 99.1232 87.4076 97.7102C87.3128 97.6155 87.1549 97.5286 87.0443 97.4655C85.4017 96.834 83.2696 98.1128 82.2824 99.2259H82.2903ZM2.23089 42.862L1.79655 44.4803C2.14402 43.2962 3.7629 38.315 4.05508 37.494C3.4944 39.1044 2.69681 41.228 2.23089 42.8699V42.862ZM3.59706 42.8541C2.90213 45.1829 2.95741 47.0854 3.70762 46.6275C4.7895 45.9644 6.44787 40.7306 5.63448 39.6965C5.00272 39.286 4.06298 41.299 3.59706 42.8541ZM8.15361 46.6828C7.37971 49.3194 8.19309 51.5929 9.66193 50.8745C11.4309 50.0062 12.6549 45.4118 11.0518 44.0067C9.81197 43.2725 8.61163 45.1355 8.15361 46.6828ZM16.327 52.4218C15.4267 55.3426 17.2272 58.0108 19.391 56.9609C21.5074 55.9268 22.2576 51.8534 20.0859 50.2114C18.2854 49.1931 16.8087 50.8903 16.3349 52.4297L16.327 52.4218ZM27.896 59.8738C26.8852 62.8499 29.5386 65.8654 32.1446 64.6892C34.4505 63.6472 35.0112 59.8343 32.4368 58.0503C30.1625 56.8109 28.4172 58.366 27.9039 59.8738H27.896ZM41.4867 68.1389C40.3337 71.0124 43.0977 73.9963 45.909 72.907C48.4044 71.936 49.0994 68.2337 46.3749 66.4417C43.9742 65.1944 42.0711 66.6864 41.4867 68.1389V68.1389ZM55.567 76.3014C54.2166 79.1275 56.8542 81.9299 59.8393 80.8484C62.4453 79.9011 63.3376 76.3409 60.629 74.6279C58.252 73.4517 56.2382 74.9042 55.567 76.3093V76.3014ZM69.2761 83.8876C67.831 86.4532 69.8842 88.9557 72.7508 88.1426C75.5779 87.3374 76.9441 83.7219 74.3144 82.1194C72.1032 81.0931 70.0342 82.5378 69.2761 83.8876V83.8876ZM81.7533 90.424C80.3161 92.6185 81.4454 94.7105 83.8381 94.2842C86.8548 93.7474 88.829 89.9661 86.8074 88.5846C86.7442 88.5373 86.6416 88.4899 86.5705 88.4504C84.6594 87.6531 82.5983 89.1214 81.7454 90.424H81.7533ZM92.1379 95.4446C90.7164 97.3392 91.0007 98.9812 92.7143 98.7601C93.5356 98.6575 94.3095 98.1444 94.5701 97.9786C95.3677 97.0945 96.1495 96.1866 96.9155 95.2473C97.5236 93.6842 96.7813 93.2737 96.5365 93.1395C95.0676 92.6501 93.0855 94.1894 92.1457 95.4367L92.1379 95.4446ZM5.8319 33.9338C4.90006 35.9073 4.42624 37.5493 4.82109 37.4467C5.39757 37.2967 8.39052 31.5735 8.02726 30.6657C7.72717 30.4525 6.65319 32.1971 5.8319 33.9338ZM8.55636 36.7836C7.47447 39.215 7.70348 41.2911 8.99859 40.7464C10.7201 40.0202 12.8286 35.2442 11.5888 33.9812C10.6175 33.397 9.2276 35.2679 8.55636 36.7836V36.7836ZM15.0871 41.6937C13.9105 44.433 15.0792 46.9354 17.1404 46.0986C19.3436 45.1987 20.8203 40.8569 18.9251 39.3255C17.3615 38.4334 15.7426 40.178 15.0871 41.7016V41.6937ZM25.1953 48.4589C23.9239 51.4903 26.3087 54.4742 29.0095 53.227C31.3944 52.1218 32.2473 48.2458 29.8071 46.4775C27.6986 45.3092 25.8428 46.9354 25.2032 48.4589H25.1953ZM38.3437 56.6767C37.0407 59.7238 39.781 62.8183 42.7265 61.6184C45.2851 60.5764 46.0985 56.7004 43.382 54.8532C40.9892 53.5901 38.9992 55.1531 38.3516 56.6688L38.3437 56.6767ZM52.5819 65.1234C51.2316 68.1231 54.0271 71.1545 57.0437 69.9704C59.6813 68.9362 60.5263 65.1076 57.7387 63.2998C55.2985 62.0684 53.2532 63.6314 52.5819 65.1313V65.1234ZM66.8755 73.2227C65.5409 76.0093 67.8626 78.8117 70.7608 77.9039C73.6195 77.0119 74.7882 73.0333 71.969 71.2808C69.6315 70.1677 67.5783 71.7465 66.8755 73.2227ZM80.3556 80.4932C79.021 83.0903 80.7346 85.5612 83.3564 84.8349C86.2625 84.0297 87.8656 79.9406 85.1964 78.3302C83.0958 77.4066 81.0979 79.0407 80.3556 80.4932ZM92.13 86.4532C90.7796 88.8767 91.7983 90.9608 94.0015 90.2977C96.6549 89.5003 98.7792 85.2612 96.5286 83.9666C94.8149 83.3193 92.9196 85.0323 92.13 86.4532V86.4532ZM8.25627 28.8895C8.24837 28.9053 8.23258 28.929 8.22468 28.9447C8.59584 28.5106 12.4338 22.7795 12.4575 22.74L12.4101 22.7952C11.1229 24.5951 9.40923 27.0028 8.26417 28.8895H8.25627ZM10.9097 27.6027C9.62245 29.6157 9.2197 31.3603 10.0726 31.2025C11.3993 30.9498 14.8186 26.0397 13.9737 24.9109C13.3182 24.4925 11.7862 26.2371 10.9097 27.6106V27.6027ZM15.4978 31.4709C14.1079 33.8075 14.4554 35.9784 16.1611 35.6074C18.3644 35.1337 20.9625 30.6341 19.3278 29.1816C18.0722 28.4395 16.327 30.0736 15.4978 31.4709V31.4709ZM23.7817 37.3046C22.3129 39.9807 23.6869 42.6173 26.1824 41.9305C28.8358 41.2043 30.581 37.0836 28.3067 35.3626C26.4904 34.3285 24.5635 35.8758 23.7817 37.3046V37.3046ZM35.5403 44.8908C34.1188 47.7248 36.409 50.7798 39.3071 49.9194C42.1579 49.0747 43.3741 45.1119 40.618 43.1936C38.3279 41.9463 36.2668 43.4304 35.5324 44.8908H35.5403ZM49.4074 53.3296C47.9859 56.353 50.7893 59.4949 53.8297 58.2792C56.4988 57.2056 57.3596 53.4322 54.572 51.5929C52.1634 50.3456 50.1023 51.8534 49.4074 53.3296V53.3296ZM63.7877 61.6737C62.4216 64.7129 65.2329 67.7679 68.2021 66.4733C70.8239 65.3365 71.6215 61.5553 68.8418 59.7949C66.4648 58.6186 64.4511 60.1896 63.7877 61.6737ZM77.8128 69.4415C76.5334 72.386 78.7762 75.141 81.5638 74.0437C84.2725 72.978 85.2912 68.9757 82.5667 67.3101C80.3635 66.2917 78.4603 67.9416 77.8128 69.4336V69.4415ZM90.5821 76.1435C89.3897 78.938 90.9928 81.3615 93.4014 80.3906C95.9679 79.3564 97.2867 75.1094 94.8702 73.6885C92.8723 72.8596 91.1823 74.7542 90.5821 76.1514V76.1435ZM101.227 81.2984C100.161 83.7692 100.896 85.7822 102.633 85.1349C103.557 84.7955 104.228 83.9113 104.481 83.5719C104.836 82.8772 105.176 82.1825 105.507 81.4878C105.792 80.3985 105.918 78.9854 104.876 78.4091C103.344 77.9039 101.827 79.909 101.227 81.2984V81.2984ZM15.2293 19.8429C13.8078 21.4454 12.955 22.8663 13.4288 22.8189C14.1632 22.7479 18.546 18.2167 18.2617 17.3483C17.9143 17.0957 16.2796 18.6587 15.2293 19.8507V19.8429ZM17.8353 22.5979C16.2875 24.4925 16.0664 26.316 17.4089 26.1502C19.3515 25.9055 22.8578 21.769 21.6258 20.4902C20.6782 19.906 18.8382 21.3743 17.8353 22.5979ZM24.1687 27.3817C22.5261 29.6236 23.2131 31.8971 25.4243 31.5024C27.9829 31.0446 30.5099 27.1449 28.6068 25.5898C27.0905 24.7135 25.1005 26.1108 24.1687 27.3738V27.3817ZM34.0162 33.9812C32.3736 36.5625 34.2847 39.3807 37.1592 38.615C39.9152 37.8888 41.4314 34.1943 38.9992 32.4339C36.9617 31.2972 34.8611 32.655 34.0241 33.9812H34.0162ZM46.8724 42.0174C45.3957 44.7329 47.7332 47.7169 50.7183 46.9196C53.6007 46.1539 54.8168 42.3647 52.0213 40.478C49.7153 39.2544 47.6226 40.6359 46.8803 42.0174H46.8724ZM60.8264 50.2983C59.4444 53.2665 62.2399 56.3057 65.225 55.0821C67.7915 54.0243 68.5575 50.3614 65.8173 48.5931C63.4719 47.409 61.4897 48.8773 60.8264 50.2983V50.2983ZM74.8514 58.2555C73.7063 61.129 76.1228 63.9866 78.8315 62.9683C81.4138 61.9973 82.2272 57.9713 79.5027 56.2741C77.2679 55.2084 75.4358 56.7872 74.8514 58.2555ZM88.0867 65.3997C87.068 68.3284 89.2397 70.9729 91.664 69.7572C93.9778 68.5968 94.6886 64.5392 92.2405 63.0709C90.2426 62.1947 88.6079 63.8998 88.0867 65.3997ZM99.6716 71.2729C98.795 74.0832 100.303 76.3725 102.278 75.2357C104.386 74.0121 105.286 69.7256 103.17 68.5178C101.543 67.9021 100.145 69.7572 99.6716 71.2729V71.2729ZM19.8174 14.8617L18.8777 15.7142C18.8224 15.7695 18.7592 15.8248 18.7119 15.88C18.9646 15.8169 24.2476 11.333 24.2871 11.2935C24.2476 11.3014 24.2397 11.3014 24.0502 11.4435C22.7709 12.4619 21.0336 13.7802 19.8174 14.8617V14.8617ZM21.8627 15.1143C20.2834 16.5115 19.5094 17.8851 20.236 17.9798C21.3415 18.1298 26.3324 14.3249 25.5585 13.2197C24.9347 12.8171 23.0236 14.0802 21.8706 15.1064L21.8627 15.1143ZM26.056 18.6903C24.3582 20.3797 24.2634 22.1716 25.8665 22.1874C28.2593 22.2032 31.6787 18.5403 30.502 17.222C30.4704 17.1825 30.4152 17.1431 30.3757 17.1036C29.199 16.401 27.1379 17.6088 26.056 18.6903ZM33.7319 24.1136C31.9788 26.166 32.8395 28.4395 35.2955 28.2264C38.2016 27.9738 40.4917 24.4372 38.7465 22.8979C38.6912 22.8505 38.6043 22.7874 38.5411 22.74C36.8512 21.7769 34.7111 22.961 33.7319 24.1136V24.1136ZM44.685 31.2025C43.0266 33.6259 45.0956 36.4441 48.0333 35.7731C50.8051 35.1416 52.2898 31.6603 49.8022 29.9236C47.67 28.7553 45.5221 29.971 44.685 31.1946V31.2025ZM57.7071 39.1439C56.3172 41.7016 58.6705 44.6066 61.5134 43.8488C64.2142 43.1304 65.3119 39.4439 62.6427 37.6756C60.4157 36.5152 58.4099 37.8335 57.6992 39.1439H57.7071ZM71.2346 47.0064C70.0421 49.8641 72.7903 52.8007 75.4989 51.5534C77.7891 50.5035 78.3655 46.8722 75.8148 45.2539C73.6195 44.1646 71.819 45.625 71.2346 47.0064V47.0064ZM84.4541 54.3401C83.5459 57.2214 85.8598 59.9212 88.2683 58.7844C90.519 57.7266 91.0244 53.7559 88.5052 52.2165C86.4678 51.2771 84.9121 52.8875 84.4541 54.3401V54.3401ZM96.5286 60.6869C95.8257 63.6551 97.8553 66.118 99.869 64.7366C101.756 63.4419 102.096 59.4081 99.9164 58.1292C98.1711 57.403 96.8918 59.187 96.5365 60.679L96.5286 60.6869ZM106.637 65.6049C106.139 68.3205 107.332 70.4124 108.808 69.3941C110.506 68.2179 111.091 63.5919 109.235 62.5657C107.908 62.1236 106.921 64.0814 106.637 65.6049V65.6049ZM27.7144 9.32792C26.0718 10.3778 24.9505 11.3725 25.2663 11.4988C25.8981 11.7593 31.426 8.27011 31.2996 7.69384C31.0074 7.4807 29.2069 8.37273 27.7144 9.32792ZM29.9413 11.7514C28.2593 12.9513 27.588 14.2617 28.5357 14.4986C30.2651 14.9327 34.9954 11.6093 34.2294 10.5041C34.2057 10.4726 34.1741 10.441 34.1425 10.4173C33.2818 9.8884 31.1654 10.8752 29.9334 11.7514H29.9413ZM35.5403 16.0063C33.7793 17.4983 33.8266 19.2508 35.6351 19.4166C38.1463 19.6455 41.542 16.6378 40.4838 15.1301C40.4206 15.0353 40.2943 14.9327 40.2074 14.8617C38.8491 14.0723 36.6617 15.0511 35.5403 16.0063ZM44.3217 21.9111C42.6081 23.7583 43.6584 26.0397 46.2012 25.9766C49.1152 25.9055 51.2947 22.9137 49.6917 21.2006C49.5811 21.0822 49.4153 20.9559 49.281 20.8612C47.4647 19.8507 45.2851 20.8612 44.3217 21.9111V21.9111ZM55.8513 29.1342C54.2719 31.4314 56.333 34.1075 59.1917 33.476C61.8372 32.8918 63.1718 29.6 60.7316 27.9422C58.6784 26.8449 56.641 27.9738 55.8513 29.1263V29.1342ZM68.4233 36.6099C67.2071 39.1044 69.4893 41.8358 72.1269 41.0385C74.5829 40.2965 75.4437 36.752 72.9087 35.1179C70.8318 34.0601 69.0392 35.3548 68.4233 36.6099V36.6099ZM81.09 43.8093C80.1581 46.6512 82.7641 49.3747 85.1253 48.0327C87.0838 46.9196 87.3681 43.3909 85.0148 41.9305C83.0405 40.9832 81.5243 42.4594 81.09 43.8093ZM93.0697 50.2904C92.509 53.1086 94.6965 55.6347 96.6233 54.3953C98.4317 53.227 98.5502 49.3194 96.3074 47.9695C94.5464 47.1959 93.354 48.8615 93.0697 50.2904ZM103.588 55.6347C103.288 58.4608 104.939 60.679 106.423 59.4712C107.979 58.2082 107.995 53.9532 106.029 52.8244C104.528 52.2481 103.731 54.2453 103.588 55.6347ZM35.2086 5.00985L32.7527 6.15449C32.1683 6.44657 32.0103 6.53341 31.9472 6.58867C32.2315 6.60446 38.4069 3.77048 38.4464 3.7389C38.4069 3.73101 38.3358 3.72311 37.3645 4.10992L35.2086 5.00195V5.00985ZM35.3981 6.38342C33.6529 7.22809 32.6184 8.1438 33.1317 8.38063C34.1188 8.83849 39.7731 6.18607 39.4967 5.39666C39.4888 5.37298 39.4651 5.35719 39.4572 5.33351C38.9518 5.00985 36.9538 5.61769 35.3902 6.37553L35.3981 6.38342ZM38.9597 9.43844C37.2144 10.4489 36.6459 11.6804 37.7593 12.0277C39.6467 12.6119 44.2664 10.0621 43.6505 8.78323C43.6189 8.71218 43.532 8.63324 43.4767 8.57798C42.4422 7.96224 40.2153 8.71218 38.9676 9.43844H38.9597ZM45.5299 14.096C43.7689 15.4222 43.9348 17.1036 45.8616 17.3799C48.4913 17.7509 51.8159 15.0906 50.5998 13.5749C50.5208 13.4802 50.3945 13.3776 50.2997 13.3065C48.8388 12.4777 46.6355 13.2671 45.5299 14.096V14.096ZM54.9352 20.1823C53.3243 21.8795 54.4851 24.1057 56.9727 24.082C59.7129 24.0583 61.7266 21.2401 60.1551 19.6534C60.0446 19.5429 59.8787 19.4245 59.7524 19.3297C57.9282 18.3351 55.8434 19.2271 54.9352 20.1744V20.1823ZM66.1568 27.0265C64.7828 29.1816 66.7965 31.7156 69.3709 31.0683C71.7558 30.4762 72.8298 27.358 70.5554 25.8503C68.6602 24.8635 66.8439 25.945 66.1568 27.0186V27.0265ZM77.8364 33.8154C76.9046 36.1994 79.0921 38.765 81.3348 37.9124C83.4275 37.1151 83.9566 33.7049 81.6507 32.2366C79.8028 31.3209 78.3103 32.6076 77.8364 33.8154V33.8154ZM89.2476 40.1544C88.7106 42.8068 90.8822 45.2697 92.7617 44.1488C94.4911 43.1146 94.5385 39.4676 92.3432 38.1256C90.6453 37.3441 89.5082 38.8439 89.2476 40.1623V40.1544ZM99.6873 45.6487C99.5215 48.4668 101.519 50.764 102.933 49.3668C104.236 48.0721 103.904 44.2514 101.977 43.1225C100.461 42.491 99.7663 44.3382 99.6873 45.6487V45.6487ZM108.445 49.9115C108.556 52.5876 109.89 54.569 110.869 53.5033C111.983 52.3034 111.533 47.7958 109.867 46.8643C108.729 46.4854 108.39 48.53 108.445 49.9036V49.9115ZM42.3396 2.72056C40.9181 3.15474 39.4256 3.74679 39.4493 4.0073C39.8599 4.29938 46.2802 2.41269 46.2565 2.0022C45.988 1.80485 43.9742 2.22323 42.3396 2.72056ZM44.1164 4.6783C42.3633 5.31772 41.3998 6.15449 42.0553 6.47026C43.2793 7.06231 48.6966 5.23878 48.5703 4.28359C48.5624 4.23623 48.515 4.18097 48.4834 4.1415C47.8122 3.73101 45.6958 4.10203 44.1164 4.6783ZM48.6572 8.13591C46.9277 8.97269 46.4539 10.1173 47.67 10.5278C49.6759 11.2146 54.2245 9.11478 53.4585 7.85962C53.4111 7.78857 53.3243 7.70963 53.2611 7.65437C52.1397 7.00705 49.8496 7.55964 48.6572 8.13591V8.13591ZM55.8039 12.9513C54.1613 14.1038 54.4614 15.73 56.3725 16.0616C59.0496 16.5194 61.7582 14.2144 60.858 12.8171C60.7395 12.6277 60.5658 12.5092 60.4315 12.4066C58.9469 11.5777 56.8305 12.2251 55.796 12.9513H55.8039ZM65.225 18.8561C63.7877 20.4428 64.9328 22.4795 67.2229 22.4321C69.6789 22.3769 71.3846 19.7639 69.9079 18.3193C69.8052 18.2246 69.6473 18.114 69.5367 18.0351C67.8784 17.151 66.0226 17.9798 65.2329 18.8561H65.225ZM75.5147 24.9819C74.425 27.066 76.3202 29.371 78.5472 28.6606C80.553 28.0211 81.2637 25.0766 79.2184 23.7425C77.5601 22.8979 76.0596 23.9636 75.5226 24.9819H75.5147ZM85.8992 30.8867C85.3228 33.2312 87.3523 35.5521 89.1449 34.589C90.7796 33.7128 90.8743 30.4367 88.8527 29.1658C87.2891 28.4237 86.1835 29.7184 85.8992 30.8788V30.8867ZM95.731 36.2152C95.6204 38.7887 97.6341 41.0306 98.945 39.7912C100.153 38.6545 99.7268 35.11 97.8553 33.9891C96.4101 33.3575 95.7862 35.0153 95.731 36.2152V36.2152ZM104.378 40.6122C104.662 43.4383 106.36 45.1829 107.174 44.0619C108.137 42.7357 107.134 38.7492 105.618 37.873C104.465 37.4388 104.244 39.3255 104.378 40.6122V40.6122ZM50.3787 0.644414C48.744 0.889131 47.2515 1.18121 47.0699 1.27594C47.2989 1.3312 54.0587 0.28918 54.0982 0.273392C53.9086 0.218133 52.2029 0.376015 50.3787 0.644414V0.644414ZM50.5761 1.58381C48.8704 1.89168 47.6226 2.35743 47.8517 2.60215C48.2939 3.0679 54.8484 1.98641 54.7931 1.44961C54.7931 1.43382 54.7773 1.41804 54.7694 1.41014C54.3509 1.14174 52.2266 1.28384 50.5761 1.58381ZM53.2295 3.88099C51.4764 4.33096 50.5919 5.04932 51.3421 5.41245C52.6688 6.05976 58.0151 4.8046 57.7703 3.89678C57.7545 3.84942 57.6992 3.79416 57.6597 3.75469C56.9411 3.32841 54.7852 3.4705 53.2295 3.8731V3.88099ZM58.2046 7.41755C56.6568 8.04118 56.1988 8.98058 57.2017 9.47791C59.1127 10.4173 63.3376 8.63324 62.9033 7.52017C62.848 7.38597 62.7374 7.29914 62.6427 7.2202C61.5213 6.58077 59.326 6.95969 58.2046 7.41755V7.41755ZM65.3592 12.0593C63.8904 13.0618 64.2616 14.5696 66.0463 14.8854C68.4785 15.3116 70.8397 13.275 69.9711 12.0119C69.8605 11.8461 69.7026 11.7356 69.5762 11.6488C68.2021 10.8988 66.2437 11.4435 65.3592 12.0514V12.0593ZM73.959 17.3167C72.7271 18.8561 74.0143 20.7823 76.0833 20.4823C78.1602 20.1823 79.2105 17.7114 77.7259 16.5905C77.6785 16.551 77.6074 16.5115 77.5522 16.4721C76.1307 15.73 74.5908 16.5194 73.959 17.3088V17.3167ZM82.93 22.5426C82.2114 24.5083 83.9645 26.5844 85.6939 25.8029C87.2022 25.124 87.4944 22.3137 85.765 21.2085C84.3909 20.5375 83.2775 21.5796 82.93 22.5347V22.5426ZM91.7193 27.4291C91.5456 29.8999 93.504 31.6919 94.6728 30.7051C95.8573 29.7026 95.265 26.537 93.7093 25.5819C92.4695 25.0135 91.8062 26.3239 91.7272 27.4291H91.7193ZM99.7821 31.684C100.137 34.2733 101.827 35.9547 102.586 34.9679C103.462 33.8391 102.357 30.1841 100.864 29.3079C99.7742 28.8658 99.6242 30.5236 99.7821 31.684ZM106.566 34.9995C107.268 37.5177 108.524 38.9939 108.99 38.2992C109.685 37.2651 108.098 32.876 106.755 32.1261C105.863 31.8419 106.313 34.1075 106.566 34.9995V34.9995ZM61.9714 0.0681452C60.3999 0.052357 58.3151 -0.0107958 56.7436 0.0444629C59.0812 -0.0502663 61.1423 0.0286747 62.161 0.0760393L61.9714 0.0681452ZM58.1888 0.249709C56.6568 0.281286 55.3222 0.423379 55.0853 0.573367C55.2985 0.936496 62.1373 0.526003 62.1926 0.50232C62.1926 0.494426 62.2004 0.486532 62.2004 0.486532C61.9951 0.344438 60.0999 0.210239 58.1809 0.249709H58.1888ZM59.3733 1.59171C57.5333 1.71801 56.562 2.08114 56.8384 2.31796C57.3833 2.79161 63.8272 2.41269 63.6614 1.92326C63.6535 1.90747 63.6377 1.89168 63.6298 1.88379C63.1718 1.60749 61.1423 1.47329 59.3733 1.59171V1.59171ZM62.5163 3.9994C60.9922 4.25202 60.163 4.78881 60.7079 5.17562C61.774 5.92556 67.2071 5.18352 66.8912 4.33096C66.8755 4.28359 66.8202 4.23623 66.7807 4.20465C66.0463 3.77837 63.9852 3.75469 62.5242 3.9994H62.5163ZM67.4993 7.36229C66.1252 7.84383 65.7541 8.67271 66.7096 9.13846C68.5733 10.0463 72.2375 8.62534 71.7637 7.60701C71.7084 7.49649 71.6057 7.40965 71.5189 7.3465C70.4686 6.76234 68.5022 7.00706 67.4993 7.36229ZM74.1091 11.5146C72.7824 12.4777 73.3826 13.7249 74.7961 13.9539C76.8177 14.2775 78.6735 12.4698 77.9075 11.4041C77.8128 11.2699 77.6785 11.183 77.5758 11.1041C76.4308 10.4962 74.8277 10.9857 74.1091 11.5146V11.5146ZM81.3664 15.8405C80.4503 17.372 81.8244 18.9192 83.2932 18.5719C84.9437 18.1851 85.4254 15.8327 84.0435 14.9248C82.9142 14.3565 81.8007 15.1222 81.3664 15.8405ZM88.7027 20.0165C88.4184 22.0137 90.1241 23.6083 91.1744 22.8189C92.2405 22.0216 91.822 19.3929 90.5032 18.564C89.4687 18.0746 88.829 19.1166 88.7027 20.0165ZM95.6678 23.7978C96.0232 26.0713 97.5552 27.5791 98.2185 26.7344C98.9608 25.795 97.8789 22.6216 96.5444 21.8085C95.6204 21.4059 95.5099 22.8189 95.6599 23.7978H95.6678ZM101.812 26.9318C102.672 29.3789 103.999 30.7209 104.323 29.8999C104.741 28.8342 103.036 25.1556 101.78 24.4372C100.982 24.1451 101.535 26.1423 101.812 26.9396V26.9318ZM66.4332 0.478638C64.8301 0.273392 63.4877 0.186557 63.1402 0.202345C63.2034 0.265498 70.1922 1.16542 70.2475 1.15753C70.0263 1.0628 68.3759 0.723355 66.4332 0.478638V0.478638ZM66.528 1.04701C65.0197 0.897025 63.7246 0.889131 63.5824 1.03122C63.6614 1.11017 63.764 1.20489 65.6988 1.41804C65.8962 1.44172 70.4844 1.93115 70.6028 1.78906C70.3501 1.63118 68.4864 1.24437 66.528 1.04701V1.04701ZM68.1548 2.46795C66.4964 2.4048 65.6119 2.59426 65.7383 2.8074C65.9831 3.22578 71.8426 3.56523 72.2691 3.19421C72.2612 3.17052 72.2454 3.14684 72.2375 3.13105C71.7795 2.86265 69.7578 2.539 68.1627 2.47584L68.1548 2.46795ZM71.2267 4.65461C69.7736 4.75724 69.213 5.13615 69.5051 5.42824C70.2869 6.22554 75.0883 5.75979 75.1594 5.23088C75.1673 5.17562 75.112 5.12826 75.0567 5.0809C74.4171 4.71777 72.506 4.55199 71.2267 4.64672V4.65461ZM75.6569 7.53596C74.3776 7.92277 74.2749 8.61745 75.033 8.97268C76.5413 9.69105 79.558 8.60166 79.1868 7.80436C79.1473 7.71752 79.0605 7.65437 78.9973 7.60701C78.2392 7.19651 76.6361 7.24388 75.6648 7.53596H75.6569ZM81.011 10.812C80.0239 11.6488 80.5451 12.6829 81.6507 12.8171C83.1511 12.9987 84.4146 11.4356 83.7908 10.5831C83.7118 10.4805 83.617 10.4173 83.5459 10.362C82.701 9.92787 81.5322 10.3699 81.0189 10.812H81.011ZM86.6021 14.0723C86.1519 15.4853 87.3207 16.7563 88.292 16.33C89.3107 15.88 89.2712 13.7486 88.2288 13.0776C87.447 12.6987 86.8074 13.4328 86.6021 14.0802V14.0723ZM92.0826 17.1273C92.3353 18.935 93.6304 20.2218 94.1674 19.5508C94.7991 18.7614 93.7646 16.1958 92.7617 15.5721C91.9799 15.2248 92.0115 16.6142 92.0826 17.1273ZM97.1129 19.7876C97.9895 21.8874 99.1819 23.0636 99.4031 22.369C99.6952 21.4296 97.871 18.3114 96.8602 17.7114C96.1337 17.4273 97.0735 19.6929 97.1129 19.7876V19.7876ZM101.361 21.8637C102.696 24.1136 103.628 25.0372 103.731 24.603C103.912 23.7662 101.227 19.8823 100.248 19.3218C100.224 19.3139 100.185 19.3061 100.153 19.3139C100.027 19.5666 101.046 21.3269 101.361 21.8558V21.8637ZM74.7961 2.1285C73.0272 1.63118 71.6136 1.33909 71.4794 1.31541C72.7113 1.66275 73.959 1.93115 75.1831 2.28639C76.2649 2.60215 77.3231 3.01264 78.4129 3.29683C78.2945 3.24157 76.8335 2.69688 74.7961 2.1285V2.1285ZM74.3302 2.19955C72.8377 1.80485 71.4873 1.54434 71.203 1.55224C71.4162 1.69433 78.1997 3.45471 78.2313 3.44682C77.9549 3.31262 76.2965 2.72056 74.3302 2.19955V2.19955ZM74.9067 2.86265C73.5958 2.56268 72.4428 2.3969 72.1506 2.46006C72.1506 2.47584 72.1506 2.49163 72.1506 2.49953C72.4507 2.68109 78.6814 4.10203 78.8236 4.02309C78.5946 3.88889 76.8414 3.29683 74.9146 2.86265H74.9067ZM76.4703 4.06256C75.4752 3.90468 74.346 3.81784 74.2196 4.0073C74.3539 4.42569 79.7949 5.10458 80.1345 5.02564C80.1266 5.01774 80.1266 5.00195 80.1187 4.98617C79.7791 4.79671 78.0576 4.31517 76.4624 4.06256H76.4703ZM78.9578 5.744C77.7101 5.70453 77.1968 5.94135 77.4416 6.17817C77.6548 6.38342 78.4366 6.5492 79.3921 6.58867C80.4503 6.62814 82.1877 6.5413 82.1561 6.35974C82.1482 6.33606 82.1166 6.31237 82.1008 6.29659C81.6902 6.07555 80.1582 5.77558 78.9578 5.73611V5.744ZM82.2666 7.82804C81.3585 8.06486 81.2085 8.53851 81.6507 8.79901C82.7168 9.44633 84.9121 8.46746 84.7463 7.99382C84.7305 7.94645 84.6752 7.90698 84.6357 7.87541C84.1935 7.64648 83.0405 7.62279 82.2666 7.82804ZM85.915 10.0068C85.3149 10.7568 85.8361 11.6093 86.6258 11.5462C87.6603 11.4672 87.9525 9.94366 87.4155 9.52527C87.3997 9.50948 87.376 9.50159 87.3602 9.4858C86.8864 9.25687 86.2151 9.65158 85.9229 10.0068H85.915ZM89.6029 12.1066C89.7135 13.5118 90.6769 14.3407 91.0481 13.867C91.5061 13.2829 90.6769 11.412 90.0609 11.0173C89.5161 10.7725 89.6029 12.0987 89.6029 12.1145V12.1066ZM93.1092 14.0091C94.0015 15.7932 94.807 16.4563 94.9492 16.1089C95.2019 15.4932 93.3382 12.825 92.6038 12.375C92.509 12.3356 92.3353 12.2645 92.7854 13.3065C92.8328 13.4092 92.9512 13.6855 93.1092 14.0091ZM96.2048 15.5879C98.0764 18.1219 98.3528 18.0351 98.4001 17.9483C98.6134 17.4904 95.6836 14.0012 94.807 13.4802C94.7991 13.4802 94.7833 13.4723 94.7754 13.4723C94.7596 13.5355 94.7438 13.6065 96.2048 15.5879ZM82.7484 4.97038C81.0505 4.20465 79.7001 3.71522 79.6843 3.70732C82.3693 4.82828 82.3693 4.82828 86.1283 6.65971C86.1125 6.65182 84.7226 5.85452 82.7484 4.96248V4.97038ZM82.2666 4.85197C80.6478 4.1415 79.4158 3.70732 79.1552 3.62838C79.2105 3.66785 79.2105 3.66785 79.708 3.8652C80.4109 4.1415 81.5875 4.60725 82.9142 5.19141C83.9487 5.64927 84.9437 6.17818 85.9782 6.64393C85.9624 6.63603 84.3909 5.77558 82.2666 4.85197ZM82.2745 5.01774C80.7188 4.37832 79.5264 3.99151 79.3053 3.95204C79.3606 3.98362 79.4316 4.02309 79.4869 4.04677C80.7899 4.59146 82.1324 5.04142 83.4275 5.58612C84.2962 5.94925 85.1332 6.4071 86.0177 6.73866C85.7808 6.61235 84.1777 5.80715 82.2745 5.01774V5.01774ZM82.7484 5.43613C81.4533 4.95459 80.4424 4.66251 80.1503 4.63093C80.1818 4.68619 80.1818 4.68619 80.3477 4.74934C81.4533 5.16773 82.5825 5.50718 83.6881 5.90978C84.5489 6.22554 85.378 6.60446 86.2309 6.92022H86.2388C86.0335 6.8176 84.5015 6.09134 82.7405 5.43613H82.7484ZM83.6644 6.09134C82.6536 5.78347 81.7691 5.58612 81.6033 5.64927C81.627 5.69663 81.6507 5.72821 82.1166 5.87031C82.1719 5.88609 86.6258 7.19651 86.6574 7.20441C86.5863 7.16494 85.228 6.56499 83.6723 6.09134H83.6644ZM84.9911 6.95969C84.1066 6.80181 83.6012 6.84128 83.6407 6.96758C83.6486 6.99127 83.7197 7.10968 84.4146 7.22809C84.4225 7.22809 87.1943 7.57543 87.2101 7.58332C87.2101 7.58332 87.2101 7.57543 87.218 7.57543C87.0917 7.51228 86.0177 7.14125 84.9911 6.95969V6.95969ZM86.61 7.95435C86.0177 8.06486 85.8677 8.34116 86.1283 8.49904C86.7205 8.85427 87.8972 8.09644 87.8972 7.99382C87.8972 7.98592 87.8893 7.97803 87.8814 7.97803C87.7629 7.92277 87.1075 7.85962 86.6021 7.95435H86.61ZM88.2999 8.94111C88.1578 9.68315 88.679 10.141 88.9238 9.93576C89.2791 9.64368 88.7737 8.51483 88.5684 8.37273C88.4658 8.33326 88.3157 8.85427 88.2999 8.94111ZM89.9662 9.87261C91.0007 11.5462 91.1665 11.333 91.1902 11.2778C91.3324 10.8909 89.6582 9.02794 89.2397 8.74376C89.2476 8.77533 89.2476 8.77533 89.3186 8.87796C89.5713 9.23319 89.7135 9.45422 89.9662 9.87261V9.87261ZM91.4982 10.6857C93.125 12.3908 93.125 12.3908 93.2987 12.454C93.3066 12.4461 93.3145 12.4303 93.3224 12.4224C93.0697 11.7356 90.4321 9.43844 89.8398 9.05952C89.8793 9.12267 89.9425 9.16214 89.9978 9.20951C90.361 9.54106 90.7796 9.92787 91.5061 10.6857H91.4982ZM92.7933 11.3251C95.0281 13.2908 95.0281 13.2908 95.0755 13.3144C95.0676 12.9039 91.3087 9.89629 90.3294 9.29634C91.127 10.0068 91.9878 10.6147 92.7933 11.3172V11.3251ZM88.4105 7.99382L88.2999 7.93066L88.4105 7.99382ZM88.4184 7.99382L88.3078 7.93066L88.4184 7.99382ZM88.4737 8.03329C88.7027 8.21485 88.9159 8.4122 89.1607 8.57009C89.137 8.53851 88.908 8.34116 88.4263 7.99382L88.4737 8.03329Z" fill="white"/>
</svg>
