<svg width="1920" height="160" viewBox="0 0 1920 160" fill="none" xmlns="http://www.w3.org/2000/svg">
<path d="M2027.69 156.027C2027.19 155.802 2026.96 155.211 2027.19 154.707C2027.41 154.202 2028 153.976 2028.51 154.201L2027.69 156.027ZM1996.11 140.723C1996.62 140.924 1996.88 141.504 1996.68 142.019C1996.48 142.533 1995.9 142.787 1995.38 142.585L1996.11 140.723ZM1981.36 137.216C1980.84 137.022 1980.58 136.445 1980.77 135.928C1980.97 135.411 1981.54 135.149 1982.06 135.343L1981.36 137.216ZM1949.01 123.486C1949.54 123.665 1949.81 124.234 1949.64 124.757C1949.46 125.279 1948.89 125.557 1948.36 125.377L1949.01 123.486ZM1934.15 120.569C1933.63 120.394 1933.35 119.828 1933.52 119.304C1933.7 118.78 1934.26 118.497 1934.79 118.671L1934.15 120.569ZM1901.37 107.946C1901.9 108.109 1902.19 108.669 1902.03 109.197C1901.87 109.724 1901.31 110.02 1900.78 109.856L1901.37 107.946ZM1886.35 105.454C1885.82 105.295 1885.52 104.737 1885.68 104.208C1885.84 103.679 1886.4 103.38 1886.93 103.539L1886.35 105.454ZM1853.29 93.7575C1853.82 93.907 1854.13 94.4592 1853.98 94.9908C1853.83 95.5225 1853.28 95.8323 1852.75 95.6828L1853.29 93.7575ZM1838.29 91.6741C1837.76 91.5285 1837.44 90.9785 1837.59 90.4458C1837.73 89.9131 1838.28 89.5993 1838.82 89.7449L1838.29 91.6741ZM1804.85 80.7537C1805.38 80.8908 1805.7 81.4356 1805.57 81.9706C1805.43 82.5056 1804.88 82.8282 1804.35 82.6912L1804.85 80.7537ZM1789.85 79.0293C1789.31 78.8958 1788.99 78.3531 1789.12 77.8172C1789.25 77.2813 1789.8 76.9551 1790.33 77.0885L1789.85 79.0293ZM1756.17 68.8541C1756.71 68.9794 1757.04 69.5171 1756.91 70.055C1756.79 70.5928 1756.25 70.9272 1755.71 70.8018L1756.17 68.8541ZM1741.14 67.452C1740.6 67.33 1740.26 66.7944 1740.38 66.2557C1740.51 65.7171 1741.04 65.3794 1741.58 65.5014L1741.14 67.452ZM1707.28 57.9905C1707.82 58.1048 1708.17 58.6355 1708.05 59.1758C1707.94 59.7161 1707.41 60.0615 1706.87 59.9472L1707.28 57.9905ZM1692.18 56.8863C1691.64 56.7753 1691.29 56.2467 1691.41 55.7057C1691.52 55.1647 1692.04 54.8161 1692.59 54.9272L1692.18 56.8863ZM1658.19 48.1121C1658.73 48.2157 1659.09 48.7395 1658.98 49.282C1658.88 49.8244 1658.35 50.1802 1657.81 50.0766L1658.19 48.1121ZM1642.99 47.2908C1642.45 47.1904 1642.09 46.6687 1642.19 46.1256C1642.29 45.5825 1642.81 45.2237 1643.36 45.3242L1642.99 47.2908ZM1608.86 39.1838C1609.41 39.277 1609.77 39.7938 1609.68 40.3382C1609.59 40.8825 1609.07 41.2483 1608.53 41.1551L1608.86 39.1838ZM1593.7 38.6614C1593.16 38.5713 1592.79 38.0566 1592.88 37.5117C1592.97 36.9668 1593.48 36.5981 1594.03 36.6881L1593.7 38.6614ZM1559.35 31.1904C1559.9 31.2733 1560.27 31.7832 1560.19 32.3292C1560.11 32.8752 1559.6 33.2507 1559.05 33.1678L1559.35 31.1904ZM1544.25 30.9633C1543.71 30.8834 1543.33 30.3757 1543.41 29.8292C1543.49 29.2827 1544 28.9044 1544.54 28.9843L1544.25 30.9633ZM1509.81 24.1386C1510.35 24.2113 1510.74 24.7141 1510.67 25.2616C1510.59 25.8091 1510.09 26.1939 1509.54 26.1211L1509.81 24.1386ZM1494.57 24.1739C1494.02 24.1042 1493.64 23.6035 1493.71 23.0557C1493.78 22.5078 1494.28 22.1202 1494.83 22.1899L1494.57 24.1739ZM1460.01 17.9868C1460.56 18.0495 1460.95 18.5452 1460.89 19.0939C1460.83 19.6426 1460.33 20.0366 1459.79 19.9739L1460.01 17.9868ZM1444.92 18.3171C1444.37 18.2574 1443.98 17.764 1444.03 17.2149C1444.09 16.6659 1444.59 16.2692 1445.14 16.3288L1444.92 18.3171ZM1410.24 12.7615C1410.79 12.8141 1411.2 13.3025 1411.14 13.8523C1411.09 14.402 1410.6 14.805 1410.05 14.7523L1410.24 12.7615ZM1395.03 13.3547C1394.48 13.305 1394.07 12.8189 1394.12 12.2688C1394.17 11.7188 1394.66 11.3131 1395.21 11.3628L1395.03 13.3547ZM1360.25 8.43234C1360.8 8.47497 1361.22 8.95591 1361.17 9.50655C1361.13 10.0572 1360.65 10.469 1360.1 10.4264L1360.25 8.43234ZM1345.19 9.31258C1344.64 9.27293 1344.22 8.79423 1344.26 8.24337C1344.3 7.69251 1344.78 7.27809 1345.33 7.31773L1345.19 9.31258ZM1310.33 5.02258C1310.88 5.05521 1311.3 5.5286 1311.27 6.07992C1311.24 6.63124 1310.76 7.05172 1310.21 7.01908L1310.33 5.02258ZM1295.19 6.17102C1294.64 6.1414 1294.21 5.67032 1294.24 5.11883C1294.27 4.56734 1294.74 4.14428 1295.3 4.1739L1295.19 6.17102ZM1260.27 2.51631C1260.82 2.5389 1261.25 3.00456 1261.22 3.55638C1261.2 4.1082 1260.74 4.53723 1260.18 4.51464L1260.27 2.51631ZM1245.25 3.94735C1244.7 3.92825 1244.27 3.46532 1244.29 2.91336C1244.31 2.36141 1244.77 1.92944 1245.32 1.94855L1245.25 3.94735ZM1210.91 1.038C1211.46 1.04819 1211.9 1.50409 1211.89 2.05628C1211.88 2.60847 1211.42 3.04785 1210.87 3.03766L1210.91 1.038ZM1196.12 2.81492C1195.56 2.80842 1195.12 2.35546 1195.13 1.80322C1195.14 1.25097 1195.59 0.808556 1196.14 0.815061L1196.12 2.81492ZM1161.72 0.669214C1162.28 0.66747 1162.72 1.11377 1162.73 1.66605C1162.73 2.21833 1162.28 2.66746 1161.73 2.6692L1161.72 0.669214ZM1146.97 2.76135C1146.41 2.76649 1145.96 2.32296 1145.96 1.77069C1145.95 1.21843 1146.4 0.766575 1146.95 0.761438L1146.97 2.76135ZM1112.53 1.31938C1113.08 1.30669 1113.54 1.74401 1113.56 2.29615C1113.57 2.84828 1113.13 3.30617 1112.58 3.31885L1112.53 1.31938ZM1097.82 3.69929C1097.27 3.71506 1096.81 3.28031 1096.8 2.72825C1096.78 2.17619 1097.22 1.71587 1097.77 1.7001L1097.82 3.69929ZM1063.37 2.89847C1063.92 2.87587 1064.38 3.30489 1064.41 3.85672C1064.43 4.40854 1064 4.8742 1063.45 4.89679L1063.37 2.89847ZM1048.71 5.53763C1048.16 5.563 1047.69 5.13632 1047.66 4.58461C1047.64 4.03291 1048.06 3.56511 1048.62 3.53974L1048.71 5.53763ZM1014.24 5.31295C1014.79 5.28151 1015.26 5.70301 1015.29 6.2544C1015.32 6.80579 1014.9 7.27827 1014.35 7.30971L1014.24 5.31295ZM999.626 8.18228C999.074 8.21616 998.6 7.79676 998.566 7.24551C998.532 6.69427 998.952 6.21993 999.503 6.18605L999.626 8.18228ZM965.151 8.46672C965.702 8.42752 966.18 8.84233 966.219 9.39322C966.259 9.94411 965.844 10.4225 965.293 10.4617L965.151 8.46672ZM950.586 11.5366C950.035 11.5779 949.556 11.165 949.514 10.6142C949.473 10.0635 949.886 9.58354 950.437 9.54223L950.586 11.5366ZM916.114 12.2615C916.665 12.2156 917.148 12.6247 917.194 13.175C917.24 13.7254 916.831 14.2087 916.28 14.2546L916.114 12.2615ZM901.592 15.502C901.041 15.5496 900.557 15.1421 900.509 14.5919C900.462 14.0417 900.869 13.557 901.419 13.5094L901.592 15.502ZM867.126 16.5971C867.676 16.5457 868.163 16.9499 868.215 17.4998C868.266 18.0497 867.862 18.5371 867.312 18.5884L867.126 16.5971ZM852.641 19.9778C852.091 20.0306 851.602 19.6277 851.55 19.0779C851.497 18.5282 851.9 18.0397 852.45 17.987L852.641 19.9778ZM818.182 21.3715C818.731 21.3158 819.222 21.7161 819.278 22.2656C819.333 22.8151 818.933 23.3056 818.384 23.3613L818.182 21.3715ZM803.727 24.8618C803.178 24.9186 802.687 24.5193 802.63 23.9699C802.573 23.4206 802.972 22.9292 803.522 22.8724L803.727 24.8618ZM769.276 26.481C769.825 26.4222 770.318 26.8196 770.377 27.3687C770.436 27.9179 770.039 28.4108 769.489 28.4696L769.276 26.481ZM754.829 30.0515C754.28 30.1111 753.787 29.7143 753.727 29.1652C753.667 28.6162 754.064 28.1228 754.613 28.0632L754.829 30.0515ZM720.4 31.8197C720.949 31.7588 721.443 32.1545 721.504 32.7034C721.565 33.2523 721.169 33.7466 720.62 33.8075L720.4 31.8197ZM705.951 35.4389C705.402 35.5001 704.908 35.1048 704.846 34.5559C704.785 34.007 705.18 33.5124 705.729 33.4512L705.951 35.4389ZM671.537 37.2801C672.086 37.2185 672.581 37.6134 672.642 38.1623C672.704 38.7111 672.309 39.206 671.76 39.2676L671.537 37.2801ZM657.083 40.9152C656.534 40.9767 656.039 40.5817 655.977 40.0329C655.916 39.4841 656.311 38.9892 656.859 38.9276L657.083 40.9152ZM622.663 42.7528C623.212 42.6917 623.707 43.0871 623.768 43.636C623.829 44.1849 623.434 44.6794 622.885 44.7405L622.663 42.7528ZM608.212 46.3685C607.663 46.4292 607.169 46.0334 607.108 45.4844C607.047 44.9355 607.443 44.4413 607.992 44.3806L608.212 46.3685ZM573.783 48.122C574.332 48.0627 574.825 48.4598 574.884 49.0089C574.944 49.5579 574.547 50.0511 573.998 50.1104L573.783 48.122ZM559.327 51.6839C558.778 51.7424 558.285 51.3446 558.227 50.7954C558.168 50.2462 558.566 49.7536 559.115 49.6951L559.327 51.6839ZM524.884 53.27C525.434 53.2139 525.925 53.6138 525.981 54.1632C526.037 54.7126 525.637 55.2035 525.088 55.2597L524.884 53.27ZM510.417 56.7424C509.868 56.7973 509.378 56.3964 509.323 55.8468C509.268 55.2973 509.669 54.8073 510.218 54.7523L510.417 56.7424ZM475.958 58.075C476.508 58.0234 476.995 58.4273 477.047 58.9772C477.099 59.5271 476.695 60.0147 476.145 60.0663L475.958 58.075ZM461.473 61.421C460.923 61.4709 460.436 61.0655 460.386 60.5155C460.336 59.9655 460.742 59.4791 461.292 59.4292L461.473 61.421ZM426.996 62.4105C427.546 62.365 428.029 62.7742 428.075 63.3246C428.121 63.875 427.711 64.3581 427.161 64.4037L426.996 62.4105ZM412.467 65.5932C411.916 65.6367 411.435 65.2256 411.391 64.675C411.348 64.1245 411.759 63.6429 412.309 63.5994L412.467 65.5932ZM377.993 66.1453C378.544 66.1072 379.022 66.523 379.06 67.074C379.098 67.625 378.682 68.1025 378.131 68.1406L377.993 66.1453ZM363.398 69.1252C362.847 69.1607 362.371 68.7428 362.336 68.1916C362.3 67.6405 362.718 67.1649 363.269 67.1294L363.398 69.1252ZM328.935 69.1437C329.486 69.1147 329.957 69.5383 329.986 70.0898C330.015 70.6413 329.592 71.1119 329.04 71.141L328.935 69.1437ZM314.282 71.8772C313.731 71.9032 313.262 71.477 313.236 70.9253C313.21 70.3737 313.637 69.9054 314.188 69.8794L314.282 71.8772ZM279.818 71.2636C280.37 71.2453 280.832 71.6779 280.851 72.2299C280.869 72.7818 280.437 73.2442 279.885 73.2625L279.818 71.2636ZM265.128 73.7055C264.576 73.7203 264.116 73.2847 264.102 72.7327C264.087 72.1806 264.522 71.721 265.074 71.7062L265.128 73.7055ZM230.679 72.3568C231.231 72.3509 231.684 72.7937 231.69 73.346C231.696 73.8982 231.253 74.3507 230.7 74.3567L230.679 72.3568ZM215.95 74.4622C215.397 74.4641 214.948 74.0179 214.946 73.4656C214.944 72.9134 215.39 72.4641 215.943 72.4622L215.95 74.4622ZM181.538 72.2731C182.09 72.2812 182.531 72.7354 182.523 73.2877C182.515 73.8399 182.061 74.281 181.509 74.2729L181.538 72.2731ZM166.77 73.9955C166.218 73.9828 165.78 73.5249 165.793 72.9728C165.806 72.4206 166.264 71.9833 166.816 71.996L166.77 73.9955ZM132.427 70.8597C132.979 70.8836 133.406 71.3503 133.383 71.9021C133.359 72.4538 132.892 72.8817 132.34 72.8578L132.427 70.8597ZM117.6 72.1507C117.048 72.1217 116.624 71.6511 116.653 71.0995C116.682 70.548 117.153 70.1244 117.705 70.1535L117.6 72.1507ZM83.386 67.9637C83.9367 68.0051 84.3496 68.4852 84.3081 69.0359C84.2667 69.5866 83.7866 69.9995 83.2359 69.958L83.386 67.9637ZM68.5123 68.7748C67.962 68.7278 67.5541 68.2435 67.6011 67.6933C67.6483 67.143 68.1324 66.735 68.6827 66.7821L68.5123 68.7748ZM34.4579 63.4334C35.0069 63.494 35.4027 63.9882 35.3421 64.5371C35.2814 65.0861 34.7872 65.4819 34.2383 65.4213L34.4579 63.4334ZM19.5732 63.7195C19.0249 63.6528 18.6346 63.1542 18.7014 62.606C18.768 62.0578 19.2665 61.6674 19.8148 61.7341L19.5732 63.7195ZM-14.2617 57.1277C-13.7156 57.2091 -13.3387 57.7179 -13.4199 58.2642C-13.5014 58.8104 -14.0102 59.1873 -14.5564 59.1059L-14.2617 57.1277ZM-29.1455 56.844C-29.6906 56.7562 -30.0614 56.2429 -29.9737 55.6977C-29.8857 55.1524 -29.3724 54.7817 -28.8272 54.8695L-29.1455 56.844ZM-62.6911 48.9157C-62.1485 49.0192 -61.7928 49.5429 -61.8961 50.0854C-61.9996 50.6279 -62.5233 50.9838 -63.0659 50.8803L-62.6911 48.9157ZM-77.5589 48.0204C-78.1 47.9101 -78.4493 47.3819 -78.3389 46.8408C-78.2286 46.2996 -77.7002 45.9504 -77.1591 46.0608L-77.5589 48.0204ZM-110.737 38.6826C-110.199 38.8094 -109.867 39.3479 -109.993 39.8854C-110.12 40.423 -110.659 40.756 -111.196 40.6292L-110.737 38.6826ZM2034.41 159.081C2032.26 158.086 2030.03 157.068 2027.69 156.027L2028.51 154.201C2030.85 155.245 2033.1 156.268 2035.25 157.266L2034.41 159.081ZM1995.38 142.585C1990.9 140.83 1986.22 139.039 1981.36 137.216L1982.06 135.343C1986.93 137.17 1991.62 138.964 1996.11 140.723L1995.38 142.585ZM1948.36 125.377C1943.75 123.789 1939.01 122.185 1934.15 120.569L1934.79 118.671C1939.65 120.29 1944.39 121.895 1949.01 123.486L1948.36 125.377ZM1900.78 109.856C1896.06 108.394 1891.25 106.926 1886.35 105.454L1886.93 103.539C1891.83 105.013 1896.64 106.482 1901.37 107.946L1900.78 109.856ZM1852.75 95.6828C1848 94.347 1843.18 93.0104 1838.29 91.6741L1838.82 89.7449C1843.71 91.0825 1848.53 92.4204 1853.29 93.7575L1852.75 95.6828ZM1804.35 82.6912C1799.57 81.4678 1794.74 80.2468 1789.85 79.0293L1790.33 77.0885C1795.23 78.3072 1800.06 79.5292 1804.85 80.7537L1804.35 82.6912ZM1755.71 70.8018C1750.9 69.6802 1746.04 68.5633 1741.14 67.452L1741.58 65.5014C1746.49 66.6137 1751.35 67.7315 1756.17 68.8541L1755.71 70.8018ZM1706.87 59.9472C1702.01 58.9202 1697.12 57.8997 1692.18 56.8863L1692.59 54.9272C1697.53 55.9413 1702.42 56.9626 1707.28 57.9905L1706.87 59.9472ZM1657.81 50.0766C1652.91 49.1399 1647.97 48.2111 1642.99 47.2908L1643.36 45.3242C1648.34 46.2452 1653.28 47.1747 1658.19 48.1121L1657.81 50.0766ZM1608.53 41.1551C1603.62 40.3148 1598.68 39.4834 1593.7 38.6614L1594.03 36.6881C1599.01 37.5108 1603.95 38.3428 1608.86 39.1838L1608.53 41.1551ZM1559.05 33.1678C1554.15 32.4231 1549.21 31.6881 1544.25 30.9633L1544.54 28.9843C1549.51 29.7097 1554.44 30.4452 1559.35 31.1904L1559.05 33.1678ZM1509.54 26.1211C1504.58 25.4613 1499.59 24.8121 1494.57 24.1739L1494.83 22.1899C1499.84 22.8286 1504.84 23.4783 1509.81 24.1386L1509.54 26.1211ZM1459.79 19.9739C1454.85 19.4105 1449.9 18.8581 1444.92 18.3171L1445.14 16.3288C1450.12 16.8703 1455.08 17.423 1460.01 17.9868L1459.79 19.9739ZM1410.05 14.7523C1405.07 14.2746 1400.06 13.8086 1395.03 13.3547L1395.21 11.3628C1400.24 11.817 1405.25 12.2834 1410.24 12.7615L1410.05 14.7523ZM1360.1 10.4264C1355.15 10.043 1350.18 9.67162 1345.19 9.31258L1345.33 7.31773C1350.32 7.67704 1355.3 8.04868 1360.25 8.43234L1360.1 10.4264ZM1310.21 7.01908C1305.22 6.7237 1300.21 6.44091 1295.19 6.17102L1295.3 4.1739C1300.32 4.44399 1305.34 4.72698 1310.33 5.02258L1310.21 7.01908ZM1260.18 4.51464C1257.67 4.41178 1255.16 4.31222 1252.63 4.21597L1252.71 2.21742C1255.23 2.31374 1257.75 2.41338 1260.27 2.51631L1260.18 4.51464ZM1252.63 4.21597C1250.17 4.12199 1247.71 4.03247 1245.25 3.94735L1245.32 1.94855C1247.78 2.03375 1250.25 2.12335 1252.71 2.21742L1252.63 4.21597ZM1210.87 3.03766C1205.95 2.94689 1201.03 2.87279 1196.12 2.81492L1196.14 0.815061C1201.06 0.872984 1205.98 0.947148 1210.91 1.038L1210.87 3.03766ZM1161.73 2.6692C1156.81 2.68475 1151.88 2.71562 1146.97 2.76135L1146.95 0.761438C1151.87 0.715665 1156.8 0.684773 1161.72 0.669214L1161.73 2.6692ZM1112.58 3.31885C1107.66 3.43192 1102.74 3.55888 1097.82 3.69929L1097.77 1.7001C1102.69 1.55959 1107.61 1.43253 1112.53 1.31938L1112.58 3.31885ZM1063.45 4.89679C1058.53 5.09812 1053.62 5.31189 1048.71 5.53763L1048.62 3.53974C1053.53 3.31385 1058.45 3.09993 1063.37 2.89847L1063.45 4.89679ZM1014.35 7.30971C1009.44 7.58977 1004.53 7.88078 999.626 8.18228L999.503 6.18605C1004.41 5.88437 1009.32 5.59318 1014.24 5.31295L1014.35 7.30971ZM965.293 10.4617C960.387 10.8107 955.485 11.1692 950.586 11.5366L950.437 9.54223C955.338 9.1746 960.243 8.81594 965.151 8.46672L965.293 10.4617ZM916.28 14.2546C911.381 14.6627 906.485 15.0786 901.592 15.502L901.419 13.5094C906.314 13.0859 911.213 12.6697 916.114 12.2615L916.28 14.2546ZM867.312 18.5884C862.418 19.0454 857.528 19.5087 852.641 19.9778L852.45 17.987C857.338 17.5177 862.23 17.0542 867.126 16.5971L867.312 18.5884ZM818.384 23.3613C813.495 23.8569 808.609 24.3572 803.727 24.8618L803.522 22.8724C808.405 22.3677 813.292 21.8673 818.182 21.3715L818.384 23.3613ZM769.489 28.4696C764.599 28.994 759.712 29.5214 754.829 30.0515L754.613 28.0632C759.497 27.533 764.385 27.0055 769.276 26.481L769.489 28.4696ZM720.62 33.8075C715.727 34.35 710.837 34.894 705.951 35.4389L705.729 33.4512C710.616 32.9062 715.506 32.3622 720.4 31.8197L720.62 33.8075ZM671.76 39.2676C666.864 39.8172 661.972 40.3665 657.083 40.9152L656.859 38.9276C661.748 38.379 666.641 37.8296 671.537 37.2801L671.76 39.2676ZM622.885 44.7405C617.99 45.2853 613.099 45.8281 608.212 46.3685L607.992 44.3806C612.879 43.8403 617.769 43.2975 622.663 42.7528L622.885 44.7405ZM573.998 50.1104C569.104 50.6388 564.214 51.1635 559.327 51.6839L559.115 49.6951C564.001 49.1748 568.89 48.6503 573.783 48.122L573.998 50.1104ZM525.088 55.2597C520.194 55.7596 515.304 56.2541 510.417 56.7424L510.218 54.7523C515.103 54.2641 519.992 53.7699 524.884 53.27L525.088 55.2597ZM476.145 60.0663C471.25 60.5254 466.36 60.9772 461.473 61.421L461.292 59.4292C466.177 58.9856 471.065 58.534 475.958 58.075L476.145 60.0663ZM427.161 64.4037C422.259 64.8097 417.361 65.2064 412.467 65.5932L412.309 63.5994C417.201 63.2128 422.097 62.8164 426.996 62.4105L427.161 64.4037ZM378.131 68.1406C373.216 68.4804 368.305 68.8088 363.398 69.1252L363.269 67.1294C368.173 66.8131 373.081 66.4849 377.993 66.1453L378.131 68.1406ZM329.04 71.141C324.117 71.4 319.198 71.6456 314.282 71.8772L314.188 69.8794C319.1 69.648 324.016 69.4026 328.935 69.1437L329.04 71.141ZM279.885 73.2625C274.962 73.4259 270.043 73.5738 265.128 73.7055L265.074 71.7062C269.985 71.5747 274.9 71.4269 279.818 71.2636L279.885 73.2625ZM230.7 74.3567C225.78 74.4098 220.863 74.4451 215.95 74.4622L215.943 72.4622C220.851 72.4452 225.763 72.4098 230.679 72.3568L230.7 74.3567ZM181.509 74.2729C176.592 74.2005 171.679 74.1082 166.77 73.9955L166.816 71.996C171.719 72.1086 176.627 72.2008 181.538 72.2731L181.509 74.2729ZM132.34 72.8578C127.423 72.6445 122.509 72.409 117.6 72.1507L117.705 70.1535C122.608 70.4114 127.515 70.6466 132.427 70.8597L132.34 72.8578ZM83.2359 69.958C78.324 69.5883 73.4162 69.1941 68.5123 68.7748L68.6827 66.7821C73.5797 67.2008 78.4808 67.5944 83.386 67.9637L83.2359 69.958ZM34.2383 65.4213C29.346 64.8808 24.4575 64.3138 19.5732 63.7195L19.8148 61.7341C24.6917 62.3275 29.5728 62.8937 34.4579 63.4334L34.2383 65.4213ZM-14.5564 59.1059C-19.4234 58.3809 -24.2863 57.6271 -29.1455 56.844L-28.8272 54.8695C-23.9761 55.6513 -19.1209 56.4039 -14.2617 57.1277L-14.5564 59.1059ZM-63.0659 50.8803C-67.9009 49.958 -72.7319 49.0049 -77.5589 48.0204L-77.1591 46.0608C-72.3406 47.0435 -67.5179 47.995 -62.6911 48.9157L-63.0659 50.8803ZM-111.196 40.6292C-113.594 40.0638 -115.99 39.4902 -118.386 38.9084L-117.914 36.9649C-115.523 37.5457 -113.13 38.1182 -110.737 38.6826L-111.196 40.6292Z" fill="url(#paint0_linear_83_2682)"/>
<defs>
<linearGradient id="paint0_linear_83_2682" x1="2039.6" y1="33.2646" x2="1921.91" y2="545.221" gradientUnits="userSpaceOnUse">
<stop stop-color="#386AE7"/>
<stop offset="1" stop-color="#38E8DE"/>
</linearGradient>
</defs>
</svg>
