<svg width="393" height="51" viewBox="0 0 393 51" fill="none" xmlns="http://www.w3.org/2000/svg">
<path d="M17.0718 39.9591H35.8058L26.4403 50.6901L17.0718 39.9591ZM41.1793 15.9783L51.9092 25.3438L41.1797 34.7118L41.1793 15.9783ZM0.842773 25.3452L11.5738 15.9772V34.7118L0.842773 25.3452ZM17.0718 10.7317L26.4392 0L35.8058 10.731L17.0718 10.7317Z" fill="white"/>
<path d="M18.3928 17.8193H34.4857V33.1081H18.3928V17.8193Z" fill="white"/>
<path d="M89.2085 25.1596C90.5889 25.5592 91.8085 26.3832 92.6945 27.5146C93.5587 28.6882 94.0028 30.1185 93.9554 31.5752C93.9546 33.8495 93.07 35.5986 91.3014 36.8225C89.5329 38.0464 86.9559 38.6583 83.5706 38.6583H70.146V12.6992H82.8289C85.9934 12.6992 88.4224 13.3049 90.1158 14.5163C90.9209 15.0575 91.5759 15.7935 92.0201 16.6559C92.4643 17.5182 92.6831 18.4789 92.6563 19.4486C92.6762 20.6364 92.3614 21.8059 91.7479 22.8233C91.1328 23.8211 90.254 24.6296 89.2085 25.1596ZM76.1166 17.2235V23.3424H82.0872C83.5706 23.3424 84.6955 23.0829 85.4619 22.5637C85.8367 22.313 86.1398 21.969 86.3414 21.5656C86.543 21.1622 86.6361 20.7133 86.6115 20.263C86.637 19.8157 86.5443 19.3697 86.3428 18.9696C86.1412 18.5696 85.8379 18.2296 85.4634 17.9839C84.697 17.4772 83.5721 17.2237 82.0887 17.2235H76.1166ZM83.1256 34.134C84.7078 34.134 85.9007 33.8744 86.704 33.3553C87.1009 33.0967 87.4218 32.7371 87.6336 32.3135C87.8455 31.8898 87.9407 31.4174 87.9095 30.9448C87.9095 28.7939 86.3148 27.7184 83.1256 27.7184H76.1166V34.134H83.1256ZM98.5156 12.6992H104.523V33.7632H117.54V38.6583H98.5156V12.6992ZM133.041 39.1034C130.505 39.1416 127.999 38.5423 125.754 37.3604C123.653 36.2559 121.895 34.5943 120.675 32.5578C119.44 30.4779 118.805 28.097 118.839 25.6784C118.805 23.2598 119.44 20.8789 120.675 18.799C121.896 16.7623 123.654 15.1009 125.756 13.9968C128.001 12.8149 130.506 12.2156 133.043 12.2538C135.575 12.2138 138.075 12.8133 140.313 13.9968C142.41 15.1079 144.166 16.7677 145.394 18.799C146.64 20.875 147.282 23.2574 147.248 25.6784C147.282 28.0994 146.64 30.4818 145.394 32.5578C144.166 34.5892 142.41 36.2492 140.313 37.3604C138.075 38.5441 135.573 39.1437 133.041 39.1034ZM133.041 33.9857C134.495 34.0065 135.928 33.6425 137.195 32.9304C138.42 32.2369 139.428 31.216 140.106 29.982C140.825 28.6635 141.19 27.1806 141.164 25.6788C141.19 24.1775 140.826 22.6951 140.107 21.377C139.429 20.143 138.421 19.1222 137.196 18.4286C135.929 17.716 134.496 17.3514 133.042 17.3718C131.589 17.3508 130.155 17.7149 128.888 18.4271C127.663 19.1207 126.655 20.1416 125.977 21.3755C125.258 22.6941 124.893 24.177 124.92 25.6788C124.893 27.18 125.258 28.6624 125.977 29.9806C126.654 31.2145 127.662 32.2354 128.888 32.929C130.155 33.6416 131.588 34.0062 133.041 33.9857ZM164.192 39.1034C161.693 39.1386 159.226 38.5452 157.016 37.3776C154.928 36.2761 153.184 34.6215 151.973 32.5948C150.735 30.5028 150.1 28.1091 150.137 25.6784C150.1 23.2477 150.735 20.854 151.973 18.762C153.184 16.7349 154.928 15.0799 157.017 13.9781C159.238 12.8076 161.719 12.2142 164.23 12.2523C166.323 12.2215 168.401 12.6256 170.33 13.439C172.105 14.1985 173.674 15.3677 174.91 16.8508L171.055 20.4124C170.265 19.4475 169.269 18.673 168.139 18.1466C167.009 17.6201 165.774 17.3552 164.528 17.3715C163.026 17.3444 161.543 17.7082 160.224 18.4271C158.983 19.1121 157.961 20.1343 157.276 21.3755C156.556 22.6939 156.192 24.1768 156.218 25.6788C156.191 27.18 156.555 28.6624 157.274 29.9806C157.959 31.2218 158.981 32.244 160.222 32.929C161.541 33.6481 163.023 34.0124 164.524 33.9861C165.774 34.0009 167.011 33.7315 168.142 33.1982C169.273 32.6649 170.268 31.8817 171.051 30.9077L174.907 34.4693C173.676 35.9729 172.099 37.1558 170.311 37.9167C168.375 38.7289 166.292 39.1329 164.192 39.1034ZM188.409 28.4601L184.923 32.0951V38.6583H178.952V12.6992H184.923V24.8258L196.419 12.6992H203.094L192.339 24.2696L203.724 38.6583H196.717L188.409 28.4601ZM217.893 39.1034C215.394 39.1386 212.926 38.5452 210.716 37.3776C208.628 36.2758 206.884 34.6208 205.673 32.5937C204.435 30.5017 203.8 28.108 203.837 25.6773C203.8 23.2466 204.435 20.8529 205.673 18.7609C206.884 16.7338 208.628 15.0788 210.716 13.977C212.938 12.8065 215.419 12.2131 217.93 12.2512C220.023 12.2203 222.101 12.6244 224.03 13.4379C225.805 14.1974 227.375 15.3666 228.61 16.8497L224.755 20.4113C223.966 19.4464 222.969 18.6719 221.839 18.1455C220.709 17.619 219.475 17.354 218.228 17.3704C216.726 17.3433 215.242 17.7075 213.923 18.4271C212.681 19.112 211.659 20.1342 210.974 21.3755C210.255 22.6936 209.891 24.176 209.917 25.6773C209.891 27.1786 210.255 28.661 210.974 29.9791C211.659 31.2204 212.681 32.2426 213.923 32.9275C215.241 33.6466 216.723 34.0109 218.224 33.9846C219.474 33.9994 220.711 33.73 221.842 33.1968C222.973 32.6636 223.968 31.8805 224.751 30.9066L228.607 34.4682C227.376 35.9724 225.798 37.1557 224.01 37.9167C222.073 38.7289 219.99 39.1329 217.891 39.1034H217.893ZM256.459 12.6992V38.6583H250.451V28.0151H238.658V38.6583H232.65V12.6992H238.658V22.9345H250.451V12.6992H256.459ZM279.711 33.0957H267.658L265.359 38.6583H259.203L270.773 12.6992H276.707L288.314 38.6583H282.011L279.711 33.0957ZM277.819 28.5343L273.703 18.5956L269.587 28.5343H277.819ZM291.021 12.6992H297.029V38.6583H291.021V12.6992ZM326.993 12.6992V38.6583H322.061L309.119 22.8974V38.6583H303.185V12.6992H308.154L321.059 28.4601V12.6992H326.993Z" fill="white"/>
<path d="M343.259 12.6995V38.6586H337.251V17.5205H332.06V12.6995H343.259ZM356.906 12.2545C360.54 12.2545 363.384 13.3609 365.436 15.5737C367.488 17.7865 368.514 20.9696 368.514 25.1228C368.514 28.0648 367.964 30.5861 366.863 32.6866C365.833 34.7168 364.21 36.3858 362.209 37.4719C360.072 38.5922 357.687 39.1535 355.274 39.1037C353.938 39.1092 352.606 38.9535 351.306 38.6399C350.166 38.3806 349.076 37.9358 348.08 37.3232L350.306 32.9105C351.566 33.7758 353.185 34.2085 355.163 34.2085C357.364 34.2085 359.107 33.5598 360.392 32.2625C361.678 30.9651 362.37 29.0925 362.469 26.6447C360.911 28.2023 358.76 28.981 356.016 28.981C354.451 29.0014 352.902 28.6587 351.492 27.9798C350.175 27.3501 349.058 26.3681 348.266 25.1426C347.462 23.8745 347.049 22.3978 347.079 20.8966C347.046 19.2804 347.498 17.6913 348.377 16.3345C349.252 15.0158 350.479 13.9687 351.919 13.3119C353.482 12.5926 355.186 12.2313 356.906 12.2545ZM357.351 24.4924C358.52 24.5418 359.664 24.1515 360.559 23.3985C360.961 23.0537 361.281 22.6234 361.496 22.1391C361.711 21.6547 361.816 21.1285 361.801 20.5988C361.818 20.0751 361.718 19.5541 361.51 19.0733C361.302 18.5924 360.989 18.1636 360.596 17.8175C359.792 17.1005 358.686 16.7421 357.277 16.7421C356.14 16.6914 355.025 17.061 354.143 17.7804C353.743 18.1293 353.427 18.5639 353.218 19.0519C353.01 19.5399 352.914 20.0686 352.938 20.5988C352.915 21.1316 353.011 21.6627 353.22 22.1535C353.428 22.6442 353.744 23.0822 354.143 23.4356C355.044 24.174 356.188 24.5507 357.351 24.4924ZM383.904 22.3785C385.469 22.3581 387.018 22.7009 388.428 23.3798C389.745 24.0095 390.862 24.9915 391.654 26.217C392.458 27.4852 392.871 28.9621 392.841 30.4633C392.874 32.079 392.422 33.6674 391.543 35.0236C390.668 36.3423 389.441 37.3894 388.001 38.0462C386.438 38.7653 384.734 39.1263 383.014 39.1029C379.379 39.1029 376.536 37.9904 374.484 35.7653C372.432 33.5402 371.406 30.3633 371.406 26.2346C371.406 23.2926 371.963 20.7713 373.075 18.6708C374.113 16.6463 375.734 14.9798 377.729 13.8869C379.859 12.7653 382.239 12.2038 384.645 12.2552C385.988 12.2502 387.326 12.4058 388.632 12.7186C389.779 12.9757 390.875 13.4206 391.877 14.0353L389.651 18.4483C388.366 17.583 386.747 17.1504 384.793 17.1504C382.593 17.1504 380.85 17.7932 379.564 19.0787C378.279 20.3643 377.587 22.2309 377.488 24.6785C379.021 23.1452 381.159 22.3785 383.904 22.3785ZM382.68 34.6164C383.817 34.6671 384.932 34.2974 385.814 33.5781C386.214 33.2292 386.53 32.7946 386.739 32.3066C386.947 31.8186 387.043 31.2898 387.019 30.7596C387.042 30.2269 386.946 29.6958 386.737 29.205C386.528 28.7143 386.213 28.2762 385.814 27.9229C384.913 27.1846 383.769 26.8079 382.606 26.8661C381.432 26.8189 380.283 27.2086 379.38 27.9599C378.973 28.302 378.648 28.7313 378.43 29.216C378.212 29.7006 378.105 30.2283 378.119 30.7596C378.103 31.2851 378.205 31.8075 378.416 32.2887C378.628 32.7699 378.945 33.1977 379.343 33.541C380.158 34.2579 381.271 34.6164 382.68 34.6164Z" fill="white"/>
</svg>
