<svg width="31" height="33" viewBox="0 0 31 33" fill="none" xmlns="http://www.w3.org/2000/svg">
<path fill-rule="evenodd" clip-rule="evenodd" d="M0.000252318 12.3106C0.000252318 14.7917 0.0628272 15.6412 0.671503 18.0859C0.996069 19.3895 1.52863 20.7135 2.06682 21.7852C2.33655 22.3223 2.64917 22.9109 2.97096 23.3965C3.63624 24.4003 4.29875 25.4109 5.18321 26.2805C5.42451 26.5178 5.55731 26.7582 5.80273 26.9513L7.14069 28.1297C7.40512 28.335 7.60908 28.4954 7.86998 28.6909C9.36564 29.8122 11.0477 30.7314 12.8424 31.3984C16.5206 32.7655 19.034 33 23.25 33V25.6524C23.25 25.4163 22.6314 25.3073 22.1922 25.1611L18.641 23.9357C18.2233 23.7938 17.896 23.6891 17.4777 23.5499C16.1465 23.107 16.8447 22.9748 14.3892 24.6084C13.5868 25.1423 13.7954 25.3691 12.412 24.4804C11.3209 23.7795 11.4464 23.7494 10.6189 23.1117C10.0397 22.6652 8.91037 21.172 8.48664 20.4701C8.39379 20.3161 7.94374 19.5155 7.94374 19.4006C7.94374 19.2149 9.1224 17.5394 9.29995 17.2737C10.0057 16.2173 9.91258 16.8185 9.25975 14.8646L7.69302 10.3052C7.62313 10.0921 7.58906 9.73272 7.36248 9.73272H0.19378C0.19378 10.209 0 11.3131 0 12.3108L0.000252318 12.3106ZM25.1875 7.7989H27.125V9.73247H25.1875V7.7989V7.7989ZM21.7529 8.39368e-05H22.6956C24.1152 0.0759628 25.5201 0.492541 26.7414 1.22086C26.9941 1.37161 27.1142 1.47057 27.3575 1.63719C29.3948 3.0323 31 5.82521 31 8.31453C31 10.2167 30.7651 11.6113 29.8112 13.1867C29.674 13.4135 29.5443 13.5897 29.399 13.8065C28.8809 14.5796 28.1009 15.3429 27.3316 15.8682C25.382 17.1998 22.8112 17.8617 20.4077 17.2742L19.1168 16.8867C18.6195 16.8867 15.9832 17.7138 15.5002 17.7245V14.373C15.5002 14.0651 15.3185 13.9869 15.1768 13.7933C14.013 12.204 13.5627 10.4887 13.5627 8.44337C13.5627 5.20928 15.7316 2.24271 18.5352 0.837605C19.5391 0.334488 20.639 0.0600148 21.7529 0V8.39368e-05ZM21.3126 7.7989H23.25V9.73247H21.3126V7.7989V7.7989ZM17.4376 7.7989H19.3751V9.73247H17.4376V7.7989V7.7989Z" fill="#262D3D"/>
</svg>
