<svg width="28" height="33" viewBox="0 0 28 33" fill="none" xmlns="http://www.w3.org/2000/svg">
<path fill-rule="evenodd" clip-rule="evenodd" d="M6.90036 11.9882C6.90036 14.9558 8.02318 16.8826 10.4932 18.3027C10.7812 18.4683 11.2589 18.6368 11.5893 18.748C12.0012 18.8865 12.3896 19.0137 12.9281 19.0137C12.9147 19.0222 12.8926 19.0167 12.8858 19.0356L10.3623 19.464C8.35188 19.9572 6.82187 20.7248 5.205 21.9503C4.56515 22.4352 4.16777 22.8295 3.61369 23.3801C3.43942 23.5532 3.40241 23.6082 3.2547 23.7926C3.12254 23.9577 3.04351 24.0165 2.89671 24.2062C2.65577 24.5175 2.44867 24.7622 2.2313 25.0844C1.42118 26.285 0.630162 27.8466 0.244157 29.2745C-0.0710853 30.4405 -0.214882 31.3267 0.662541 32.2444C1.02244 32.6209 1.58062 33 2.28341 33H24.9195C25.9246 33 26.6591 32.3624 27.0585 31.5406C27.5111 30.6095 27.1035 29.5054 26.8191 28.6413C26.2732 26.9829 25.2284 25.1551 24.1976 23.993C24.0421 23.8177 23.948 23.6741 23.7822 23.5082C23.0102 22.7362 22.7828 22.4794 21.8874 21.8035C19.9702 20.3561 17.2211 19.1425 14.5954 19.1425V19.0136C15.5154 19.0136 16.628 18.476 17.2122 18.0989L17.9498 17.5511C18.3394 17.221 18.7457 16.8921 19.02 16.371C18.5693 16.371 15.6463 16.4222 15.3529 16.3186C14.5379 16.0307 14.5863 14.6675 15.5059 14.5145L20.0461 14.5018C20.3346 13.257 20.5561 12.4989 20.2762 11.1124C19.4184 6.86356 15.1273 4.32266 10.8939 6.14062C10.4517 6.3305 10.2341 6.46689 9.86288 6.71565C9.45077 6.99182 8.87013 7.46839 8.56762 7.86296C7.67737 9.02443 6.90055 10.2735 6.90055 11.9881L6.90036 11.9882ZM1.32149 10.3124V14.4374C1.32149 16.1497 2.75582 17.476 4.52622 17.4683C5.23211 17.4652 5.93799 17.4668 6.64388 17.4668C6.11489 16.4619 6.14655 16.8905 5.55262 15.4054C4.6561 13.1641 4.94924 10.3732 6.02321 8.20614C6.20539 7.83855 6.43168 7.53714 6.64388 7.21863H4.65601C5.04356 6.48244 5.93299 5.22908 6.53455 4.72399C7.49374 3.91868 7.39378 3.95525 8.5799 3.23486C9.09087 2.9245 9.88653 2.61824 10.4664 2.42407C14.2326 1.16322 18.3929 2.33484 21.1213 5.10658L21.9318 6.09665C22.1056 6.3497 22.5417 6.95827 22.6109 7.21872H20.6231C20.7341 7.38538 20.8427 7.51127 20.9705 7.70745C21.3108 8.22991 21.5689 8.79927 21.786 9.40145C22.0676 10.1824 22.2474 11.2967 22.2776 12.3166C22.2823 12.4754 22.2337 12.8069 22.2275 13.0853C22.2031 14.1571 21.7378 15.475 21.2859 16.3928C21.0785 16.8143 20.8628 17.1068 20.6231 17.4668C21.9925 17.4668 23.4717 17.6112 24.3564 17.0943C25.1695 16.6191 25.9454 15.7628 25.9454 14.502V10.0547C25.9454 9.20316 25.4614 8.72284 25.212 8.08483C24.9448 7.40101 24.6778 6.77991 24.3396 6.19026C23.442 4.62562 22.2766 3.29173 20.8159 2.2554C20.6693 2.15137 20.583 2.06991 20.4041 1.9603C18.6327 0.874241 16.4515 0 14.1464 0C11.9178 0 10.5709 0.174062 8.62983 1.02947C6.899 1.79227 5.87169 2.59685 4.60653 3.88202L3.96495 4.65515C3.08689 5.72567 2.52071 6.94538 2.0191 8.24234C1.90059 8.54887 1.68985 8.73838 1.53942 9.11375C1.40008 9.46151 1.3214 9.85297 1.3214 10.3126L1.32149 10.3124Z" fill="#262D3D"/>
</svg>
