<svg width="66" height="58" viewBox="0 0 66 58" fill="none" xmlns="http://www.w3.org/2000/svg">
<path fill-rule="evenodd" clip-rule="evenodd" d="M16.8159 53.4534C16.8159 52.6257 17.0502 52.1155 17.5601 51.5978C17.7907 51.3634 17.9762 51.2274 18.3099 51.0838C20.3551 50.2051 21.8528 52.1193 21.8528 53.2531C21.8528 54.2339 21.7385 54.5627 21.0093 55.2751C19.7008 56.5563 16.8159 55.9516 16.8159 53.4534ZM18.7373 0H18.7392C19.669 0 20.5294 0.0453523 21.3223 0.400613C21.8003 0.616036 22.2015 0.984524 22.5745 1.34356C23.7368 2.46226 23.4837 3.35607 24.2391 3.54126C24.7396 3.66409 33.7488 3.67543 34.911 3.67543C37.5654 3.67543 40.006 3.60929 42.666 3.60929C42.7242 3.35985 43.1965 2.44525 43.3409 2.21849C44.1676 0.929723 45.3542 0.149285 46.717 0.00188968H47.6842C48.061 0.041573 48.4472 0.126609 48.8408 0.258886C51.0247 1.00153 52.2956 3.4071 51.7089 5.70873C51.5627 6.28508 51.2815 7.08442 50.9029 7.50204C50.7754 7.64187 50.5561 7.79116 50.5561 8.01981C50.5561 8.22389 53.4879 13.4092 53.9902 14.2463L57.5013 20.3953C57.91 21.0813 58.2549 21.7332 58.671 22.4249L59.5408 23.9536C59.6589 24.1501 59.7376 24.2748 59.8351 24.4581C61.6684 24.4581 62.8344 24.2956 64.0566 25.3463C65.47 26.5614 65.8 27.5931 65.8 29.4016C65.8 30.7791 64.8008 32.1359 64.0023 32.735C62.542 33.8291 61.3554 33.5456 59.8351 33.5456C59.6477 33.9009 59.4358 34.2467 59.2259 34.602L55.13 41.7639C54.7551 42.4611 54.3258 43.1584 53.9396 43.8387L52.7868 45.8834C52.4194 46.6147 51.9826 47.2609 51.6171 47.9771C51.4427 48.3154 51.229 48.6461 51.0416 49.0013C50.8429 49.3774 50.6798 49.6854 50.4886 50.0482C50.7641 50.3676 51.0322 50.6113 51.2421 51.0271C52.1119 52.7618 52.0501 54.9746 50.9029 56.2785C50.5636 56.664 50.4455 56.8265 50.0256 57.1326C49.3207 57.6466 48.4603 57.9395 47.5811 58H46.8726C46.3139 57.9603 45.7628 57.828 45.2529 57.5975C43.1234 56.6394 42.9304 54.3246 42.4692 54.3246H24.1098C23.7592 54.3246 23.6636 55.6341 22.5033 56.7812C21.5023 57.7732 20.4338 58 19.0054 58C16.8534 58 14.7632 55.9913 14.7632 53.4572C14.7632 50.8513 16.2104 50.4432 16.0492 49.897L12.9955 44.417C12.7668 44.0031 12.5381 43.6214 12.3151 43.2321C10.7873 40.5563 9.04584 37.3892 7.46934 34.7531L6.80949 33.5456C5.91908 33.5456 5.29485 33.6703 4.44942 33.5192C3.73334 33.3907 3.20659 33.1393 2.71171 32.7992C1.80817 32.1775 0.842773 30.8982 0.842773 29.6718C0.842773 27.767 0.887763 26.637 2.59361 25.2896C3.82332 24.3183 4.97617 24.46 6.80762 24.46C6.87885 24.1936 7.94922 22.4513 8.17605 22.0318L15.4231 9.29345C15.9611 8.24279 16.3191 8.12374 15.738 7.50582C15.0501 6.7764 14.7595 5.54811 14.7595 4.48232C14.7595 3.85117 14.9432 3.19167 15.1363 2.72492C15.708 1.35301 17.3989 0.00566904 18.7354 0.00566904L18.7373 0ZM44.7206 53.4534C44.7206 51.3408 47.3356 49.9707 49.047 51.5637C49.9768 52.4292 50.1005 54.1734 49.1145 55.2089C48.6702 55.6738 48.0329 55.9969 47.3281 55.91C46.3308 55.7872 46.1002 55.842 45.5004 55.2089C45.1348 54.8234 44.7224 54.1753 44.7224 53.4534H44.7206ZM61.2917 31.6049C60.2532 31.6049 58.7723 30.6525 58.7723 29.1994C58.7723 28.2885 58.896 27.8426 59.5502 27.1774C60.2794 26.4366 61.2617 26.293 62.2289 26.6502C63.1175 26.9771 63.8092 27.9711 63.8092 28.8649C63.8092 30.2935 62.677 31.6049 61.2898 31.6049H61.2917ZM5.34921 31.6049C4.71936 31.6049 3.98266 31.2402 3.64149 30.9209C2.03124 29.411 2.84105 26.4593 5.4167 26.4593C7.848 26.4593 8.95586 30.044 6.34648 31.3385C6.15902 31.4311 5.61915 31.603 5.34921 31.603V31.6049ZM8.53034 25.5239L17.6069 9.68462C17.8394 9.26889 17.74 9.21976 18.2068 9.21976C19.1085 9.21976 19.5209 9.33125 20.3476 9.17251C21.8528 8.88339 23.3187 7.51337 23.7274 6.03186C23.7874 5.81644 23.7405 5.67849 23.9729 5.67849H38.5551C39.0313 5.67849 42.413 5.69361 42.696 5.84668C42.8629 5.93549 42.8704 6.21894 42.9716 6.43815C43.4646 7.50771 44.4919 8.58293 45.6203 8.97977C46.7545 9.37849 47.4049 9.21976 48.7621 9.21976C48.8127 9.44085 49.6825 10.9091 49.9018 11.2776C50.108 11.6253 50.2842 11.9655 50.4811 12.2962C50.6854 12.6382 50.8579 12.95 51.0603 13.3147L52.23 15.3423C53.2161 17.1621 54.6632 19.5866 55.7242 21.4422L57.1751 23.9895C57.3701 24.3145 57.9849 25.3501 58.0412 25.5901C57.7487 26.0304 57.342 26.3573 57.0477 26.9922C56.459 28.264 56.429 29.7379 57.0458 31.0021C57.3382 31.5993 57.6981 31.9526 58.0412 32.4704L54.2752 39.0975C52.5412 41.9849 50.7604 45.3883 49.0152 48.2946C48.8971 48.4892 48.7958 48.6499 48.6965 48.8407C47.7592 48.6196 45.9147 48.767 44.9961 49.3188C44.4375 49.6533 44.0607 50.0218 43.6689 50.5187C43.4777 50.7606 43.0709 51.3011 42.9566 51.6053C42.7373 52.1911 43.1197 52.3139 40.4784 52.3139H23.9748C23.718 52.3139 23.7236 51.9228 23.6524 51.7036C23.4218 50.9855 22.9082 50.4715 22.4021 49.9575C21.1292 48.6669 19.9745 48.7727 18.3418 48.7727C18.1131 48.7727 18.085 48.8218 17.8769 48.8388C17.8244 48.6121 17.7213 48.4968 17.6088 48.3078L16.7297 46.7885C16.3397 46.0874 15.9423 45.4336 15.5599 44.7609L13.2149 40.6452C13.018 40.2823 12.8343 39.98 12.6281 39.6342L8.53221 32.4043C9.30078 31.8865 9.99062 30.267 9.99062 29.1294C9.99062 27.1094 9.30453 26.6842 8.53221 25.522L8.53034 25.5239ZM44.7206 4.54279C44.7206 1.94448 48.6646 1.0072 49.6356 3.66409C49.8175 4.16108 49.8512 4.64673 49.72 5.24009C49.5944 5.80888 49.3545 6.12635 49.0133 6.46649C47.5043 7.96879 44.7206 6.77829 44.7206 4.54468V4.54279ZM19.3334 7.14867C16.8309 7.14867 15.9873 4.01368 17.7213 2.58508C18.2499 2.14857 18.7279 2.13912 19.399 2.13912C20.3569 2.13912 20.7 2.37722 21.1724 2.88932C22.9232 4.79223 21.0918 7.15056 19.3315 7.15056L19.3334 7.14867Z" fill="white"/>
<path fill-rule="evenodd" clip-rule="evenodd" d="M25.8962 26.7276H40.7427V39.6228H25.8962V26.7276ZM29.1448 24.1879C29.1448 23.056 30.1027 20.6958 30.8582 19.7679C31.7148 18.7173 32.6577 18.0956 34.2099 18.6152C36.2438 19.2955 37.4979 22.9161 37.4979 24.5885H30.8694C30.4158 24.5885 29.1467 24.5715 29.1467 24.1879H29.1448ZM27.0903 24.5885C25.7163 24.5885 24.9683 24.3958 24.1416 25.0231C24.0198 25.1157 23.9092 25.1403 23.9092 25.3236V41.025C23.9092 41.1894 23.9673 41.1799 24.0648 41.2687C24.6759 41.8205 25.6019 41.7601 26.4942 41.7601H40.0154C42.8985 41.7601 42.0287 41.3481 42.7335 41.1591V25.1894C42.2892 25.0704 42.3117 24.5885 41.2095 24.5885H39.4868C39.4868 22.6705 38.7332 20.4822 37.6853 18.9214C36.1276 16.5989 33.1957 15.3423 30.5395 17.2395C28.4831 18.7059 27.0922 22.1792 27.0922 24.5885H27.0903Z" fill="white"/>
<path fill-rule="evenodd" clip-rule="evenodd" d="M32.3259 32.5403V34.8117C32.3259 36.1912 32.8583 36.0816 33.5856 36.0816C34.5154 36.0816 34.3148 33.916 34.3148 33.0071C34.3148 32.1737 34.2717 31.6239 33.5106 31.3366C33.1976 31.2195 32.8695 31.4254 32.654 31.5993C32.4253 31.7845 32.3259 32.1303 32.3259 32.5385V32.5403Z" fill="white"/>
</svg>
