<svg width="59" height="58" viewBox="0 0 59 58" fill="none" xmlns="http://www.w3.org/2000/svg">
<path fill-rule="evenodd" clip-rule="evenodd" d="M25.1984 51.8827C25.1984 50.2207 25.5219 49.3415 26.6405 48.2271C27.0521 47.817 27.415 47.5619 27.9952 47.3162C29.2684 46.7769 30.4174 46.7769 31.6906 47.3162C32.2708 47.5619 32.6336 47.817 33.0453 48.2271C36.7971 51.965 32.6912 57.8718 27.9952 55.8828C26.5473 55.2696 25.1984 53.647 25.1984 51.8827V51.8827ZM58.8429 28.6835V29.4729C58.7927 30.2799 58.5865 31.093 58.2047 31.8731C57.853 32.5918 57.3658 33.1412 56.834 33.6743C53.8321 36.6838 48.5784 35.6073 46.7184 31.9484C46.5808 31.6777 46.3739 31.1816 46.2922 30.9019C46.1575 30.4409 46.2653 29.9059 45.8156 29.9059H38.5656C38.1852 29.9059 38.2616 30.0993 38.1997 30.4463C37.9318 31.9506 37.2291 33.2188 36.4132 34.4372L36.914 34.8427C36.9304 34.8592 36.9531 34.8838 36.9691 34.9008L39.1808 37.1071C39.3658 37.3128 39.2914 37.2603 39.5196 37.448C39.8689 37.7353 40.0507 37.8754 40.3512 38.2024L42.3539 40.2779C42.519 40.4427 42.371 40.3244 42.5304 40.4412C42.9073 40.1888 43.257 39.8896 43.6668 39.6517C45.825 38.3993 48.9967 38.1541 51.2927 39.2686C52.6968 39.9502 53.7583 40.7291 54.7025 41.9761C55.6293 43.2002 56.3507 44.7346 56.3507 46.4451C56.3507 48.494 56.1251 49.5182 55.2582 51.2433C54.1703 53.4083 52.9523 52.5727 52.9523 51.7694C52.9523 50.9359 55.3272 49.2634 54.4534 45.5104C53.2776 40.4595 46.8279 38.5752 43.1231 42.28C39.7281 45.6751 40.9717 51.3325 45.249 53.2422C47.773 54.3691 48.5431 53.4687 50.2335 53.4687C50.3117 53.4687 52.9316 55.5078 47.2882 55.5078C42.3046 55.5078 37.6968 49.5986 39.9558 43.9838C40.3095 43.1048 40.7853 42.4193 41.3119 41.6597L35.2804 35.57C34.5304 36.0722 34.0212 36.429 33.1319 36.82C32.2277 37.2176 30.7491 37.2972 30.7491 37.7224V44.9725C30.7491 45.4245 31.3501 45.3205 31.8314 45.4762C32.9383 45.8344 33.7897 46.4749 34.5747 47.2641C35.4468 48.1409 36.2999 49.9355 36.2999 51.6561C36.2999 55.2539 33.3409 57.8747 30.0838 58H29.6012C28.0697 57.9421 26.5018 57.3246 25.1683 55.991C21.8562 52.6789 23.5703 46.7258 27.9406 45.4491C28.4015 45.3144 28.9366 45.4223 28.9366 44.9725V37.7224C28.9366 37.2523 28.1354 37.3247 27.7339 37.2259C26.4696 36.9146 25.4235 36.2518 24.4053 35.57L21.4414 38.61C20.8869 39.0746 20.4656 39.6644 19.9263 40.1536L19.1338 40.947C18.9368 41.1821 18.7159 41.4602 18.4014 41.574C18.5588 42.1633 21.8417 45.7777 19.5739 50.4497C18.6901 52.2707 17.4368 53.7048 15.6097 54.6418C14.2872 55.3202 12.8303 55.5078 11.2647 55.5078C9.0919 55.5078 7.17035 54.4141 5.741 52.9885C3.3002 50.554 2.56451 46.3456 4.23932 43.158C5.70913 40.3606 8.59081 38.5154 11.8311 38.5154C14.02 38.5154 15.536 39.3269 17.1829 40.4687L23.2725 34.4372C22.5718 33.3908 21.902 32.3053 21.5939 31.018C21.479 30.5381 21.5661 29.9059 21.1202 29.9059H13.8702C13.4179 29.9059 13.4712 30.5921 13.3488 30.9705C13.2064 31.4105 13.1295 31.6468 12.9287 32.023C12.5681 32.6984 12.0957 33.2184 11.5786 33.7315C10.6993 34.6038 8.90939 35.4567 7.18654 35.4567C3.60877 35.4567 0.995612 32.5332 0.842773 29.2984V28.721C0.909666 27.2017 1.52824 25.6484 2.85174 24.325C5.83537 21.3414 11.1031 22.4065 12.9675 26.0507C13.2902 26.6814 13.4606 28.0934 13.8701 28.0934H21.1201C21.5005 28.0934 21.4241 27.8999 21.486 27.5529C21.7498 26.0717 22.4635 24.781 23.2449 23.5896L17.1553 17.5581C16.7784 17.8104 16.4287 18.1096 16.0189 18.3475C15.6295 18.5734 15.2171 18.7447 14.7786 18.9197C11.7368 20.1339 8.26988 19.1898 5.95813 17.0872C5.89206 17.0272 5.84604 16.9892 5.78114 16.9243C5.14233 16.2864 4.62255 15.5885 4.2009 14.7663C3.0453 12.5132 3.08153 9.45434 4.20216 7.21029C4.55099 6.51178 5.19427 4.95015 6.18473 5.29211C6.68759 5.46574 6.9817 6.01262 6.70025 6.52564C6.07918 7.6576 4.45989 9.17117 5.23225 12.4888C5.33014 12.9093 5.46844 13.3089 5.63669 13.6703C6.02352 14.5013 6.41574 15.0091 6.96057 15.6316C9.40043 18.4195 14.0429 18.2388 16.5625 15.7192C19.0988 13.1829 19.2709 8.48477 16.4121 6.06675C13.0122 3.19111 11.0225 4.53053 9.45215 4.53053C8.74497 4.53053 8.37693 3.36203 9.1082 2.94118C10.7813 1.97838 14.1918 2.61145 15.6846 3.39579C16.9752 4.07391 18.1145 5.09246 18.9019 6.29564C19.1938 6.74166 19.3801 7.13273 19.6111 7.62552C20.5105 9.54405 20.4909 12.1276 19.6974 14.0963C19.4188 14.7875 18.4583 16.212 18.4014 16.4253C18.691 16.5301 18.8144 16.6856 18.9783 16.8679C18.9939 16.8852 19.0155 16.9109 19.0309 16.9286L20.367 18.3111C20.4381 18.3842 20.5002 18.4386 20.5401 18.478C20.5566 18.4943 20.5805 18.5179 20.597 18.5343L21.1059 19.045C22.0618 20.0551 23.2114 20.9568 24.1307 22.0241C24.3242 22.2488 24.2658 22.1656 24.4053 22.4292C25.054 21.9948 25.7584 21.4773 26.5393 21.1648C27.4786 20.789 28.9365 20.698 28.9365 20.2769V13.0268C28.9365 12.5748 28.3356 12.6788 27.8543 12.523C25.26 11.6836 23.3857 9.32583 23.3857 6.34308C23.3857 0.76622 30.2494 -2.24914 34.5174 2.0082C37.5333 5.01654 36.4459 10.2545 32.7917 12.1241C32.1609 12.4469 30.749 12.6172 30.749 13.0268V20.2769C30.749 20.6572 30.9425 20.5809 31.2895 20.6427L33.2108 21.2135C34.0554 21.5744 34.5883 21.9658 35.2527 22.4017L41.2842 16.3119C41.0318 15.9351 40.7327 15.5854 40.4948 15.1755C38.894 12.4171 39.0875 8.86454 40.8292 6.22787C41.3708 5.40786 42.004 4.75409 42.8191 4.13962C46.6685 1.23752 51.8958 2.22848 54.8142 6.06698C56.0368 7.67504 56.3506 9.45965 56.3506 11.5541C56.3506 14.7742 53.9457 17.4885 51.2166 18.7679C50.3873 19.1566 49.0259 19.4839 47.8545 19.4839C45.5818 19.4839 44.2273 18.6945 42.5303 17.5581C41.9578 17.9775 42.1428 17.9156 41.5541 18.5077L38.4552 21.6393C38.4392 21.6563 38.4173 21.6817 38.4013 21.6987L38.2919 21.8158C38.1619 21.9497 38.2333 21.8811 38.121 21.9848L36.798 23.2672C36.635 23.4127 36.5661 23.4596 36.4131 23.562C36.8475 24.2107 37.365 24.9151 37.6775 25.6961C38.0533 26.6353 38.1444 28.0933 38.5655 28.0933H45.8155C46.2207 28.0933 46.3316 26.7734 46.7571 25.9764C47.1581 25.2253 47.5381 24.8336 48.1071 24.2677C49.7499 22.6337 52.783 22.0743 55.0682 23.1452C57.2764 24.18 58.6974 26.3509 58.8428 28.6836L58.8429 28.6835ZM5.03427 47.1248C5.03427 43.5509 8.01071 40.3279 11.4913 40.3279C13.6719 40.3279 15.1957 40.913 16.5627 42.28C20.3379 46.0553 18.3503 52.4422 13.3323 53.6105C10.91 54.1744 8.55587 53.3149 7.10044 51.8556C5.86843 50.6204 5.03427 48.9196 5.03427 47.1249V47.1248ZM30.296 35.6833C28.0308 35.6833 26.7664 35.3302 25.1379 33.818C23.083 31.9099 22.5596 28.5383 23.7975 26.0128C24.7461 24.0777 27.0954 22.3159 29.1632 22.3159C31.2898 22.3159 33.0199 22.5269 34.6612 24.2945C38.9387 28.9011 35.3133 35.6833 30.296 35.6833V35.6833ZM47.7413 28.9996C47.7413 27.8734 48.286 26.5843 49.0702 25.7972C51.0036 23.8565 53.8713 23.8463 55.8148 25.7972C58.7493 28.7426 56.3272 33.6442 52.7257 33.6442C51.084 33.6442 50.1723 33.3083 49.0702 32.202C48.6601 31.7904 48.405 31.4275 48.1592 30.8473C47.9753 30.4131 47.7413 29.5567 47.7413 28.9996H47.7413ZM2.54209 28.9996C2.54209 26.703 4.56079 24.355 6.96006 24.355C8.62203 24.355 9.50122 24.6786 10.6156 25.7971C13.5501 28.7426 11.1279 33.6442 7.52648 33.6442C5.88471 33.6442 4.97307 33.3083 3.87096 32.202C3.08673 31.4148 2.54209 30.1258 2.54209 28.9996ZM48.1945 17.6713C46.0139 17.6713 44.4901 17.0861 43.1231 15.7192C39.3479 11.9438 41.3354 5.55701 46.3535 4.38872C49.9376 3.55429 53.4958 5.71937 54.4295 9.3971C55.4931 13.5865 52.0884 17.6713 48.1945 17.6713ZM25.1984 6.68289C25.1984 4.51761 26.1974 2.87783 27.9952 2.11636C31.3364 0.701224 34.4874 3.40275 34.4874 6.11648C34.4874 7.77847 34.1639 8.65766 33.0453 9.77205C30.0999 12.7065 25.1984 10.2844 25.1984 6.6829V6.68289Z" fill="white"/>
</svg>
