<svg width="52" height="58" viewBox="0 0 52 58" fill="none" xmlns="http://www.w3.org/2000/svg">
<path fill-rule="evenodd" clip-rule="evenodd" d="M41.0686 36.5898C38.0653 36.5898 37.866 31.8854 41.0686 31.8854C44.271 31.8854 44.0718 36.5898 41.0686 36.5898ZM33.0917 49.8436C33.0917 50.6042 33.341 50.9764 34.3453 50.9764H42.3221C44.0046 50.9764 43.8723 49.1639 42.664 49.1639H34.0035C33.587 49.1639 33.0917 49.4766 33.0917 49.8436ZM7.45212 30.8124C7.45212 31.2583 7.82379 31.7186 8.36374 31.7186H25.0011C26.1473 31.7186 26.4353 29.9062 24.7731 29.9062H8.70564C8.06922 29.9062 7.45212 30.2392 7.45212 30.8124ZM7.45212 39.7616C7.45212 40.0822 7.81387 40.5546 8.1358 40.5546H32.5219C33.3641 40.5546 33.575 38.8554 32.294 38.8554H8.3636C8.06791 38.8554 7.85982 38.9412 7.70669 39.1086C7.59886 39.2263 7.45212 39.5832 7.45212 39.7616ZM7.45212 35.2304C7.45212 35.7783 7.81256 36.1366 8.36374 36.1366H32.2941C33.5752 36.1366 33.3641 34.4373 32.522 34.4373H8.13593C7.814 34.4373 7.45212 34.9098 7.45212 35.2304ZM7.45212 44.1796C7.45212 44.7528 8.06922 45.0858 8.70564 45.0858H32.1801C33.5526 45.0858 33.519 43.2734 32.2941 43.2734H8.4777C7.92523 43.2734 7.45212 43.6484 7.45212 44.1796ZM12.694 57.9999H9.54323C8.29964 57.9358 7.13515 57.7051 5.74065 56.9824C4.61259 56.3979 4.00946 55.7791 3.14811 54.9151C1.38872 53.1505 0.842773 50.4112 0.842773 47.8045V29.1132C0.842773 26.6117 1.08624 24.8471 1.86966 23.1106C2.25843 22.2488 2.65164 21.6617 3.20281 20.9242C3.93949 19.9384 17.0826 7.02206 19.0469 5.06932C20.2478 3.87551 21.2848 2.64796 22.7437 1.72083C23.9788 0.935947 26.1059 0 28.0778 0H42.7778C46.4179 0 49.7857 2.80875 50.8848 6.10104C51.2835 7.2955 51.4383 8.57562 51.4383 10.1952V47.8045C51.4383 49.4766 51.282 50.7164 50.856 51.9833C49.7664 55.2234 46.3602 57.9997 42.7778 57.9997H15.8847C15.5155 57.9997 15.201 57.5075 15.201 57.0935C15.201 56.0792 16.5271 56.2995 17.1382 56.3004L41.0687 56.3006C44.2389 56.3014 46.5866 55.6286 48.3804 53.034C49.0128 52.1193 49.6153 50.5713 49.6153 49.0506V29.9062H49.1594C48.8146 29.9062 45.979 32.8818 45.4762 33.3814C44.686 34.1668 45.7569 35.2501 44.0624 37.0736C42.5714 38.6781 39.6169 38.733 38.0749 37.0736C36.4041 35.2757 36.5488 32.3332 38.8525 30.7617C39.2733 30.4746 40.0886 30.1534 40.7264 30.1324C42.1004 30.0871 41.6751 30.1551 42.4645 29.368C43.3457 28.4895 44.146 27.6965 45.0285 26.8192C47.0372 24.8223 46.6057 24.9217 49.6151 24.9217V23.9022H39.929C39.5976 23.9022 38.492 25.1185 38.2351 25.3975C37.8467 25.8189 38.0694 25.5095 38.0757 25.86C38.0826 26.2508 38.1067 26.1693 38.0469 26.5573C37.2002 32.0573 29.7871 30.9577 29.7871 26.168C29.7871 24.1154 31.5047 22.091 33.8934 22.0939C34.7967 22.0949 34.7252 21.8852 35.2284 21.3819C38.1401 18.4698 37.1445 18.918 42.2081 18.918C42.5521 18.918 42.8751 19.3058 42.9443 19.6585C43.2123 21.0244 40.9218 20.7321 39.8151 20.7305C38.1677 20.728 38.5593 20.5575 37.6784 21.4385C37.2236 21.8934 36.6191 22.383 36.2825 22.8829C36.7302 23.0018 37.0781 23.4478 37.308 23.7892C37.8922 23.4003 38.7031 22.09 39.4732 22.09H49.615V20.7306H46.0824C43.9812 20.7306 44.3802 18.9181 45.5125 18.9181H49.6149V17.7853H43.4614C42.2532 17.7853 41.2087 16.3954 40.5271 15.7179C39.6664 14.8622 38.8669 14.0936 38.021 13.2247C37.1385 12.3184 37.3787 12.8589 36.1325 12.61C30.5322 11.4914 32.5176 3.26348 37.9227 4.59927C39.3852 4.9607 40.7324 6.33036 40.9413 7.83498C41.1621 9.42526 40.5549 8.72525 41.7237 9.88389C42.284 10.4393 42.7594 10.9135 43.3191 11.4699C45.2448 13.3842 43.9162 12.9142 49.615 12.9142C49.615 9.67625 50.0582 6.7241 47.7687 4.21448C46.2662 2.56762 44.3845 1.69942 41.9801 1.69942H31.0405C29.0299 1.69942 27.2952 2.38931 26.2569 3.96752C23.7511 7.77658 27.3914 15.7081 23.5874 20.6848C23.0628 21.371 22.5259 21.9008 21.8272 22.4468C20.8687 23.1957 19.5039 23.8339 18.2513 24.1028C16.4013 24.4999 10.4718 24.3686 7.90708 24.3549C4.96689 24.339 2.666 26.3567 2.666 29.5665V49.0509C2.666 50.5719 3.26847 52.1194 3.90084 53.0342C7.27889 57.9211 12.6617 55.5073 13.3868 56.6401C13.7183 57.1581 13.5069 57.9999 12.694 57.9999ZM44.4872 31.832L43.7871 31.1686C43.6374 31.0426 43.6139 31.027 43.4616 30.9258C43.6195 30.6916 47.438 26.7344 47.7919 26.7344H49.6151V28.2071H48.3616C47.8731 28.2071 45.1769 31.3728 44.4872 31.832ZM31.6104 26.2813C31.6104 23.0009 36.2826 23.0127 36.2826 26.2813C36.2826 27.4947 35.1246 28.4336 34.3454 28.4336C33.5081 28.4336 32.937 28.5083 32.2025 27.7318C31.8803 27.3911 31.6104 26.904 31.6104 26.2813ZM39.2454 11.8945C39.4044 11.7887 39.6333 11.6626 39.7771 11.5169C40.0648 11.2254 39.8713 11.2542 40.2709 10.9883C40.7839 11.3297 41.728 12.38 42.2366 12.8857C42.8667 13.5122 43.75 14.6133 44.3733 14.6133H49.6151V16.0859H43.8035C43.2158 16.0859 42.8556 15.5407 42.5216 15.208C41.8117 14.5009 39.5647 12.3687 39.2454 11.8945ZM37.0802 10.875C33.444 10.875 34.1316 6.23043 36.7383 6.23043C40.1625 6.23043 39.8136 10.875 37.0802 10.875ZM3.46377 24.0156C3.87839 22.2462 7.0644 19.4733 8.39219 18.1534L21.8957 4.72957C22.6591 3.97063 23.9554 2.76086 25.1149 2.49222C24.4935 3.65969 23.7252 4.48559 23.6325 6.34282C23.5084 8.83063 23.8657 15.054 23.4335 16.9066C23.2789 17.5689 22.9745 18.3365 22.6591 18.8556C22.455 19.1914 22.3581 19.3846 22.1179 19.6771C19.4708 22.9016 17.0565 22.5429 12.8077 22.5429C10.3995 22.5429 7.27327 22.2196 5.21872 23.0418C4.47799 23.3382 4.08727 23.6877 3.46377 24.0156Z" fill="white"/>
</svg>
