<svg width="266" height="39" viewBox="0 0 266 39" fill="none" xmlns="http://www.w3.org/2000/svg">
<path d="M231.119 8.18818C229.755 5.78639 227.755 3.79661 225.348 2.45141C222.814 1.00749 219.946 0.247773 217.031 0.247773C216.979 0.247773 216.928 0.247773 216.877 0.247773C216.672 0.243287 216.465 0.237305 216.26 0.237305C214.307 0.237305 212.363 0.588749 210.533 1.26771C207.676 2.18072 205.202 4.03365 203.517 6.52143C202.187 8.63533 201.481 11.0865 201.481 13.587C201.481 13.7178 201.484 13.8539 201.488 13.9825C201.481 14.1283 201.478 14.2801 201.478 14.4274C201.478 17.1074 202.421 19.7036 204.139 21.7547C205.326 22.9608 206.792 23.8648 208.402 24.3815C209.961 24.964 211.619 25.2646 213.284 25.2646C213.563 25.2646 213.845 25.2542 214.122 25.2392C216.22 25.1517 218.285 24.6575 220.198 23.7908C221.183 23.3489 222.133 22.8075 223.016 22.1831C223.016 22.8449 223.124 24.9027 223.033 26.067C222.796 28.9376 222.715 29.4618 221.876 30.6941C220.77 32.1402 219.062 32.9972 217.245 33.0144C217.175 33.0166 217.104 33.0189 217.033 33.0189C215.409 33.0189 213.873 32.2636 212.878 30.976C212.255 30.1161 211.875 29.0999 211.782 28.0403H202.546C202.627 29.6786 203.104 31.2781 203.931 32.6921C205.234 34.9705 207.256 36.7584 209.675 37.7693C211.754 38.5006 213.942 38.873 216.146 38.873C218.129 38.873 220.104 38.5679 221.997 37.975C225.474 36.9947 228.5 34.8217 230.546 31.8352C232.56 28.72 232.481 25.4867 232.589 19.1667C232.674 13.9347 232.589 11.1366 231.117 8.18967L231.121 8.19042L231.119 8.18818ZM222.672 14.8559C222.757 17.9112 220.358 19.8292 217.314 19.9152C217.263 19.9167 217.211 19.9174 217.16 19.9174C214.175 19.9174 211.731 17.5329 211.647 14.5389C211.645 14.4357 211.647 11.1074 211.647 11.1074C211.647 11.0625 211.646 11.0162 211.646 10.9706C211.646 7.9145 214.115 5.43644 217.16 5.43644C220.138 5.43644 222.58 7.81131 222.672 10.7978C222.674 10.9003 222.672 14.8566 222.672 14.8566V14.8559Z" fill="white"/>
<path d="M236.201 30.9197C237.565 33.3237 239.564 35.309 241.972 36.6564C244.507 38.1011 247.375 38.8608 250.29 38.8608C250.341 38.8608 250.393 38.8608 250.444 38.8608C250.649 38.8653 250.856 38.8713 251.062 38.8713C253.015 38.8713 254.958 38.5199 256.788 37.8409C259.646 36.9286 262.121 35.0749 263.806 32.5872C265.134 30.4733 265.841 28.0229 265.841 25.5216C265.841 25.3908 265.838 25.2569 265.835 25.1276C265.841 24.9818 265.844 24.8285 265.844 24.6812C265.844 22.002 264.9 19.4058 263.184 17.3547C261.996 16.1478 260.532 15.2445 258.921 14.7271C257.36 14.1453 255.702 13.8447 254.035 13.8447C253.758 13.8447 253.477 13.8537 253.201 13.8686C251.102 13.9576 249.037 14.4519 247.124 15.3185C246.137 15.7605 245.193 16.3011 244.308 16.9247C244.308 16.2629 244.199 14.2051 244.29 13.0409C244.527 10.1702 244.609 9.64682 245.449 8.41377C246.555 6.96911 248.263 6.11218 250.078 6.09423C250.147 6.09199 250.22 6.0905 250.29 6.0905C251.914 6.0905 253.449 6.84498 254.446 8.13261C255.069 8.99253 255.448 10.0095 255.541 11.069H264.777C264.697 9.43071 264.221 7.83276 263.394 6.41801C262.09 4.13811 260.068 2.35172 257.65 1.34001C255.574 0.610953 253.38 0.236328 251.179 0.236328C249.195 0.236328 247.219 0.541412 245.326 1.13438C241.852 2.11394 238.824 4.28916 236.779 7.27419C234.766 10.3893 234.844 13.6226 234.736 19.9434C234.651 25.1754 234.736 27.9735 236.208 30.9204L236.202 30.9189L236.201 30.9197ZM244.649 24.252C244.563 21.1966 246.962 19.2786 250.007 19.1926C250.058 19.1912 250.11 19.1904 250.162 19.1904C253.147 19.1904 255.592 21.575 255.674 24.5697C255.678 24.6729 255.674 28.0012 255.674 28.0012C255.675 28.0565 255.676 28.1156 255.676 28.1709C255.676 31.227 253.207 33.7051 250.162 33.7051C247.171 33.7051 244.725 31.3108 244.649 28.3108C244.646 28.2076 244.649 24.252 244.649 24.252H244.649H244.649Z" fill="white"/>
<path d="M181.031 9.51733H190.427V38.9781H199.402V0.0874023H190.429C190.429 0.0874023 190.882 5.90568 181.032 5.33739V9.51733H181.031Z" fill="white"/>
<path d="M54.8951 38.999V29.6909H88.8107V38.999H54.8951ZM54.8951 24.2174V14.9138H73.8413V24.2219L54.8951 24.2174ZM54.8951 9.43727V0.125488H79.1778V9.43727H54.8951Z" fill="white"/>
<path d="M93.2881 0.0629883H83.6656V19.5308H93.2881V8.97024C99.033 9.10633 103.653 13.7656 103.764 19.5308C103.654 25.2982 99.0367 29.5223 93.2911 29.6636V39C104.398 38.9529 113.386 30.2625 113.386 19.5308C113.386 8.79975 104.394 0.110845 93.2874 0.0629883H93.2881Z" fill="white"/>
<path d="M138.005 38.9999H147.645V19.4999H138.005V30.0792C132.25 29.9416 127.623 25.2756 127.511 19.5007C127.623 13.725 132.247 9.49274 138.002 9.35216V0C126.878 0.0471085 117.875 8.75172 117.875 19.4999C117.875 30.2482 126.881 38.952 138.006 38.9999H138.005Z" fill="white"/>
<path d="M152.097 38.9993V29.6763H186.067V38.9993H152.097ZM152.097 24.1938V14.8753H171.073V24.1983L152.097 24.1938ZM152.097 9.38973V0.0629883H176.417V9.38973H152.097Z" fill="white"/>
<path d="M13.208 30.5517H27.48L20.3448 38.7569L13.208 30.5517ZM0.842773 19.3781L9.01896 12.2161V26.54L0.842773 19.3781ZM31.5745 12.2168L39.7499 19.3781L31.5745 26.54V12.2168ZM13.2073 8.20511L20.3433 0L27.48 8.20511H13.2073Z" fill="white"/>
<path d="M14.2139 13.624H26.4748V25.3137H14.2139V13.624Z" fill="white"/>
</svg>
