<svg width="59" height="58" viewBox="0 0 59 58" fill="none" xmlns="http://www.w3.org/2000/svg">
<path fill-rule="evenodd" clip-rule="evenodd" d="M31.5647 36.3211V48.6289C31.5647 50.5141 32.8088 51.1297 34.0123 51.8488L41.1331 56.0592C41.7701 56.4342 42.2835 56.7209 42.8826 57.0823C45.5204 58.6753 46.2665 57.8397 49.2226 56.058L56.5035 51.7665C59.3858 50.2182 58.7922 48.6428 58.7922 44.2851C58.7922 43.0691 57.8732 42.7258 57.2244 43.0767C56.6283 43.3988 56.7392 44.2251 56.743 44.7668C56.7502 45.6915 56.7426 46.6183 56.7438 47.543C56.7464 49.3741 57.1709 49.158 54.3717 50.7177L45.525 55.8658C44.8619 56.0938 44.2312 55.5568 43.6646 55.2131L34.0187 49.5498C33.7016 49.3133 33.6127 49.0077 33.6127 48.5086V36.3215C33.6127 35.3926 34.7771 35.0134 36.0903 34.2175L44.9377 29.0816C46.0473 29.0816 48.1771 30.6071 49.1927 31.2155L55.864 35.1524C56.2097 35.3538 56.579 35.4872 56.7 35.8836C57.1574 37.3821 55.8729 41.0276 57.7084 41.0276C58.291 41.0276 58.6721 40.6459 58.6721 40.0624V35.9596C58.6721 34.2429 57.087 33.5711 56.1043 32.9808L49.0401 28.8342C48.4638 28.504 47.9309 28.1367 47.3061 27.7955C44.6557 26.349 44.2405 27.0621 41.1335 28.8912L34.0128 33.1016C32.8096 33.8207 31.5651 34.4363 31.5651 36.3215L31.5647 36.3211Z" fill="white"/>
<path fill-rule="evenodd" clip-rule="evenodd" d="M27.8296 14.4806C27.8296 22.7959 19.5942 29.0883 11.3985 26.3518C9.23835 25.6307 7.16043 24.318 5.76292 22.5843C5.10527 21.7682 4.38354 20.7384 3.93921 19.7047C1.13239 13.1746 3.76046 6.86109 9.05623 3.6429C12.5806 1.50137 16.7811 1.57906 20.3438 3.03321C24.769 4.83906 27.8288 9.71576 27.8288 14.481L27.8296 14.4806ZM0.842773 13.7564C0.842773 16.4756 1.02025 18.3241 2.20655 20.7164C2.68208 21.6753 3.4856 23.0175 4.18709 23.8007C4.34518 23.9772 4.45057 24.0482 4.60655 24.2251C5.24397 24.9475 4.55976 24.345 5.50576 25.1346L6.88261 26.2898C11.0035 29.3931 16.8131 29.7782 21.5254 27.5932C23.1561 26.837 23.8302 26.2526 25.03 25.1907C25.288 24.9627 25.3373 24.9973 25.5691 24.7651C26.513 23.8197 27.8165 21.9615 28.3928 20.7151C30.2372 16.7247 30.2469 12.2364 28.3928 8.24515C26.2453 3.62179 21.1203 0.000366211 16.0231 0.000366211C13.1155 0.000366211 11.6881 0.155745 9.0752 1.36711C8.13173 1.80453 6.74813 2.67263 5.99521 3.3503C5.81056 3.51623 5.75238 3.60321 5.5593 3.75859C2.96032 5.85113 0.843195 10.333 0.843195 13.756L0.842773 13.7564Z" fill="white"/>
<path fill-rule="evenodd" clip-rule="evenodd" d="M39.3954 40.3026C39.8022 40.5754 40.2904 40.8477 40.7621 41.1057C46.3896 44.185 44.0069 44.1352 49.5156 41.1471C49.9776 40.8963 50.5341 40.5889 50.9612 40.3026V45.7324C50.2934 46.0863 45.4158 48.9903 45.1781 48.9903C44.9407 48.9903 40.0627 46.0863 39.3949 45.7324V40.3026H39.3954ZM40.4796 38.4925C41.2448 38.3139 44.8083 35.9588 45.1781 35.9588C45.3699 35.9588 47.202 37.0473 47.5186 37.2347C48.019 37.5311 49.4266 38.3878 49.8769 38.493V38.7345C49.0982 38.916 45.5739 41.2682 45.1781 41.2682C44.8083 41.2682 41.2448 38.9127 40.4796 38.7345V38.493V38.4925ZM37.4675 38.6133V46.3358C37.4675 47.1494 38.2715 47.4234 39.075 47.863C39.7866 48.2523 40.397 48.6052 41.0753 48.9966C41.7292 49.3737 42.3683 49.7355 43.0605 50.1455C45.6443 51.6761 44.9753 51.4789 49.2804 48.9966L52.2857 47.3006C52.6099 47.1059 52.8886 46.8577 52.8886 46.3358V38.6133C52.8886 38.0914 52.6095 37.8432 52.2857 37.6485L49.2804 35.9524C48.6265 35.5754 47.9874 35.2135 47.2952 34.8036C45.0558 33.4769 45.2999 33.4769 43.0605 34.8036C42.3683 35.2135 41.7292 35.5754 41.0753 35.9524C40.397 36.3438 39.7866 36.6968 39.075 37.0861C38.7259 37.277 38.3815 37.4615 38.0704 37.6485C37.7462 37.8432 37.4675 38.0914 37.4675 38.6133Z" fill="white"/>
<path fill-rule="evenodd" clip-rule="evenodd" d="M28.0708 52.0071C23.4499 52.0071 18.5812 49.6371 15.11 46.888C11.6671 44.1613 9.1212 40.23 7.75404 36.0352C7.35777 34.8191 6.78022 32.4665 6.74523 31.0124C6.73005 30.3837 6.69928 28.672 6.41809 28.3232C5.87384 27.6477 4.7394 27.9251 4.69134 29.0739C4.61588 30.895 4.9447 33.1459 5.27521 34.5363C6.33124 38.9755 8.49812 43.2045 11.6557 46.3661C15.0691 49.7836 18.2103 51.7837 23.0246 53.1999C24.425 53.6119 26.5544 54.0587 28.3115 54.0587C27.9161 54.6498 26.8487 55.5571 26.2884 56.1347C25.3061 57.1472 26.3769 58.5811 27.5421 57.7544C27.8971 57.5023 31.5352 53.9333 31.6609 53.4177C31.8771 52.5298 30.8886 51.8732 29.9678 50.9515C29.2381 50.2206 28.5779 49.5814 27.8604 48.8391C26.3912 47.3187 25.5051 49.0122 26.0477 49.8081C26.1712 49.9893 26.8596 50.6137 27.0763 50.8312C27.5265 51.2817 27.7681 51.4362 28.0704 52.0075L28.0708 52.0071Z" fill="white"/>
<path fill-rule="evenodd" clip-rule="evenodd" d="M28.7932 4.82729C28.7932 5.50032 30.2447 6.70366 30.9318 7.39146C31.2906 7.75078 33.0241 9.65374 33.3715 9.65374C34.3546 9.65374 34.5763 9.43208 34.5763 8.44703C34.5763 8.02902 32.7307 6.51662 32.4078 6.03359C33.78 6.03359 35.9683 6.65299 37.0935 7.01189C40.9682 8.24731 44.6219 10.8719 47.2559 13.8477C47.6926 14.3413 48.0615 14.872 48.4666 15.4104C48.9084 15.9972 49.2331 16.5238 49.6146 17.1567C51.0757 19.5815 52.1672 22.5502 52.5989 25.51C52.9433 27.8694 52.48 29.9252 53.853 29.9252C54.9989 29.9252 54.8168 28.7881 54.8168 27.9943C54.8168 22.5498 52.5167 17.2922 49.2592 13.1683C47.5527 11.0078 44.6034 8.37694 42.1671 7.11871C39.1402 5.55563 35.5329 3.982 32.0465 3.982C32.3972 3.4576 32.936 3.03073 33.4018 2.56417C34.0814 1.88397 34.5763 1.69861 34.5763 0.724115C34.5763 0.0844449 33.8259 0 33.3715 0C32.9921 0 30.2582 2.93742 29.7873 3.40862C29.4226 3.77342 28.7932 4.18551 28.7932 4.82645V4.82729Z" fill="white"/>
<path fill-rule="evenodd" clip-rule="evenodd" d="M14.3363 4.82727V7.7233H13.1315C11.8061 7.7233 10.4811 9.05036 10.4811 10.3778C10.4811 12.0047 10.2151 13.656 11.3558 14.6904C13.4177 16.5596 18.1916 14.2129 18.1916 16.5318C18.1916 18.1797 18.4909 19.2876 16.8742 19.3146L12.0443 19.3037C9.58987 19.2809 10.3972 21.2374 11.4452 21.2374H14.3368C14.3368 23.2945 13.9514 25.0987 15.3005 25.0987C16.6495 25.0987 16.2642 23.2945 16.2642 21.2374H17.469C18.7944 21.2374 20.1194 19.9104 20.1194 18.5829C20.1194 16.9561 20.3854 15.3048 19.2447 14.2703C18.0854 13.2194 16.1811 13.4998 14.2141 13.5166C12.1054 13.5348 12.4085 12.9108 12.4085 10.7397C12.4085 9.27034 14.4405 9.65372 16.1432 9.65372C18.1983 9.65372 20.119 10.0265 20.119 8.68851C20.119 7.33739 18.3176 7.7233 16.2638 7.7233C16.2638 5.66623 16.6491 3.86206 15.3 3.86206C14.7174 3.86206 14.3363 4.24375 14.3363 4.82727Z" fill="white"/>
<path fill-rule="evenodd" clip-rule="evenodd" d="M28.6732 39.5788C30.2195 39.5788 30.3089 37.8718 28.7289 37.5923C26.8828 37.2659 25.3812 36.7322 24.0031 35.4478C23.135 34.6388 22.6494 34.03 22.0866 32.9026C21.3434 31.4147 21.3821 30.0463 20.3603 30.0463C18.1213 30.0463 20.2962 34.1047 20.8409 34.874C22.5908 37.3444 25.6729 39.5788 28.6732 39.5788Z" fill="white"/>
<path fill-rule="evenodd" clip-rule="evenodd" d="M30.8418 19.5486C30.8418 20.0658 31.2726 20.4306 31.7359 20.5835C33.9121 21.3017 33.9812 21.2966 35.713 22.7541C36.3496 23.2899 37.0869 24.3455 37.471 25.0958C38.4322 26.9738 37.8867 27.7537 39.2749 27.7537C39.5751 27.7537 39.6282 27.7321 39.8196 27.5755C40.7141 26.8438 39.3765 24.4464 39.0759 23.8506C37.8424 21.4051 34.3442 18.5834 31.6849 18.5834C31.3329 18.5834 30.8418 19.1846 30.8418 19.5486Z" fill="white"/>
</svg>
