<?xml version="1.0" encoding="UTF-8"?>
<!DOCTYPE svg PUBLIC "-//W3C//DTD SVG 1.1//EN" "http://www.w3.org/Graphics/SVG/1.1/DTD/svg11.dtd">
<!-- Creator: CorelDRAW 2021 (64-Bit) -->
<svg xmlns="http://www.w3.org/2000/svg" xml:space="preserve" width="7.20433in" height="1.35922in" version="1.1" style="shape-rendering:geometricPrecision; text-rendering:geometricPrecision; image-rendering:optimizeQuality; fill-rule:evenodd; clip-rule:evenodd"
viewBox="0 0 7198.71 1358.16"
 xmlns:xlink="http://www.w3.org/1999/xlink"
 xmlns:xodm="http://www.corel.com/coreldraw/odm/2003">
 <defs>
  <style type="text/css">
   <![CDATA[
    .fil0 {fill:white}
    .fil1 {fill:white;fill-rule:nonzero}
   ]]>
  </style>
 </defs>
 <g id="Layer_x0020_1">
  <metadata id="CorelCorpID_0Corel-Layer"/>
  <path class="fil0" d="M84.59 635.49l-0.57 -11.16 2.01 -11.41 -0.54 -3.76c0.78,-7.99 0.09,-8.28 3.69,-13.74l-0.36 -8.46 1.75 -6.75 0.05 -6.01 2.73 -6.88 -0.56 -5.06 2.92 -6.22 -0.86 -5.37 3.23 -6.01 -1.11 -3.57 3.46 -6 -0.84 -2.6 2.68 -5.43 -0.54 -4.06 2.92 -6.9 2.95 -6.68 -0.07 -3.61 1.74 -4.28 0.41 -2.87 1.79 -4.13 0.41 -3.04 1.9 -3.89 0.36 -3.18 2.03 -3.72 0.44 -2.9 1.98 -4.34 -0.44 -1.48 3.24 -4.43 -0.21 -1.52 1.92 -4.4 -0.28 -1.53 3.34 -4.14 -0.32 -1.61 1.97 -4.02 2.72 -7.85 2.04 -3.4 0 -1.59c0,-3.83 -1.09,-3.11 2.29,-3.11l-0.05 -1.49c-0.02,-4.17 -1.25,-3.46 2.26,-3.46l-0.05 -1.24 2.22 -3.82 11.64 -24.43 2.46 -2.93 -0.06 -1.62c0.15,-3.73 -0.9,-2.96 2.49,-2.96l0.03 -1.43c0.1,-3.99 -1.06,-3.25 2.42,-3.25l0.17 -1.08 2.36 -3.15 1.87 -3.99 2.43 -3.54 0.14 -1.07 2.47 -3.01 1.88 -4.42 2.55 -2.93 0.08 -1.38 2.16 -2.93c-0.11,-3.6 -1.07,-2.83 2.31,-2.83l0.06 -1.24c0.22,-3.8 -0.85,-2.99 2.69,-2.99l1.97 -4.08 2.69 -2.66 1.86 -4.47 2.79 -2.58 3.93 -6.9 2.86 -2.64 2.12 -3.97 2.79 -2.57 4.2 -6.76 2.39 -2.64c0.03,-3.38 -0.83,-2.54 2.53,-2.54l4.22 -6.65 2.54 -2.47c0,-3.49 -0.9,-2.66 2.53,-2.66l4.53 -6.4 2.37 -2.41 2.2 -2.49 2.25 -2.43c-0.1,-3.2 -0.88,-2.44 2.31,-2.32 -0.12,-3.62 -1.03,-2.77 2.47,-2.77l11.24 -13.42 2.69 -2.3 2.36 -2.29 2.44 -2.2 2.37 -2.29 2.3 -2.35 2.26 -2.39 2.22 -2.44 2.32 -2.32 2.29 -2.61 13.5 -11.26c0,-3.56 -0.9,-2.73 2.65,-2.56 -0.18,-3.2 -0.91,-2.38 2.35,-2.28l2.39 -2.28 2.62 -2.08 2.31 -2.45 6.53 -4.45c0,-3.45 -0.88,-2.61 2.53,-2.61l2.4 -2.55 6.61 -4.17c0,-3.45 -0.84,-2.55 2.7,-2.53l2.6 -2.4 4.04 -2.16c0,-3.34 -0.8,-2.44 2.67,-2.41l2.68 -2.4 3.85 -2.1 2.79 -2.85 4.2 -2c0,-3.28 -0.77,-2.39 2.64,-2.36l2.81 -2.3 4.26 -1.95 2.84 -2.56 3.94 -2.12c0,-3.46 -0.8,-2.42 2.89,-2.66l1.21 -0.1 3.02 -2.68 4.24 -1.82 2.84 -2.55 4.55 -1.85c0,-3.4 -0.76,-2.36 2.95,-2.45l1.31 -0.13 3.26 -2.41 4.11 -1.93 3.25 -2.24 0.92 -0.25c0,-3.46 -0.74,-2.29 3.23,-2.45l1.29 -0.11c0,-3.45 -0.73,-2.29 3.25,-2.36l1.59 0 2.87 -2.44 1.63 0 3.29 -2.25 9.81 -3.73 3.56 -3.58 1.57 0.25 3.6 -2.32 1.06 -0.02 3.62 -2.26 1.26 0.03c0,-3.49 -0.72,-2.3 3.35,-2.3l1.43 0.03 3.5 -2.11 8.03 -2.66 3.79 -2.05 0.93 -0.09 3.95 -1.97 1.94 0.28 4.06 -3.24 2.07 0.51 4.81 -2.71 4.82 -2.53 3.55 0.02 3.66 -2.14 3.2 -0.26 3.74 -2.03 2.31 0.37 3.93 -2.99 2.29 0.38 3.89 -1.85 2.86 -0.42 4.39 -1.73 3.95 0.19 6.11 -3.69 9.85 -1.22 6.54 -3.56 4.21 0.61 5.51 -2.51 4.15 0.27 5.27 -2.49 5.5 -0.11 4.83 -1.64 7.08 -0.5 6.2 -2.01 7.34 -0.43 6.83 -1.75 12.63 -0.56 2.5 2.62 2.31 2.35 2.34 2.3 2.33 2.33 2.35 2.29 2.3 2.36 2.32 2.33 2.32 2.32 2.33 2.33 2.3 2.34 2.35 2.31 2.32 2.32 2.35 2.3 2.33 2.33 2.3 2.35 2.29 2.36 2.36 2.29 2.31 2.35 2.32 2.33 2.31 2.34 2.39 2.26 2.28 2.34 2.48 2.19 2.33 2.32 2.32 2.32 2.33 2.32 2.32 2.33 2.34 2.31 2.32 2.32 2.33 2.33 2.32 2.32 2.31 2.34 2.54 2.14 4.88 0.54c-0.37,-3.27 -1.13,-2.49 2.09,-2.51l2.32 -2.32 2.31 -2.35 2.26 -2.38 2.29 -2.36 2.29 -2.36 2.39 -2.27 2.38 -2.26 2.38 -2.27 2.3 -2.36 2.31 -2.34 2.27 -2.38 2.29 -2.37 2.29 -2.35 2.38 -2.27 2.39 -2.27 2.36 -2.29 2.32 -2.32 2.32 -2.32 2.25 -2.4 2.29 -2.37 2.29 -2.36 2.32 -2.32 2.4 -2.24 2.4 -2.26 2.32 -2.32 2.31 -2.35 2.27 -2.38 2.29 -2.36 2.29 -2.36 2.33 -2.32 2.4 -2.25c-0.07,-3.32 -0.78,-2.3 2.88,-2.26l8.11 0.06 7.31 2.5 4.42 -0.24 5.97 2.11 6.68 -0.2 6.29 2.9 5.15 -0.78 6.06 3.18 4.63 -0.52 5.41 2.55 2.48 -0.62 5.08 2.82 4.1 -0.59 6.6 3.44 18.56 4.17 4.22 2.82 2.24 -0.39 4.1 1.85 3.05 0.39 3.72 2.03 3.01 0.34 4.16 1.98 2.01 -0.44 4.17 3.27 2.13 -0.68 4.71 2.79 4.88 2.54 2.22 -0.58 3.74 3.31 2.21 -0.33 3.65 1.99 1.37 0.03 3.36 2.14 7.75 2.77c4.65,-0.24 3.92,-1.63 3.92,2.16l0.9 0.11 3.93 2.14 0.63 0.08 3.89 2.19 0.9 0.16 3.73 2.18 0.82 0.17 3.65 2.16 1.15 0.15 3.32 2.18 1.58 0.11 3.04 2.29 1.48 0.03c4.09,-0.06 3.34,-1.24 3.34,2.32l1.22 0.04c4.2,-0.09 3.41,-1.27 3.41,2.44l4.06 1.74 3.34 2.48 0.96 0.13 3.35 2.42 1.09 0.17c3.64,0.14 2.87,-0.88 2.87,2.5l4.48 1.8 2.98 2.5 1.55 0.09c3.67,0.05 2.85,-0.93 2.85,2.55l4.27 1.9c3.82,0.26 3.05,-0.85 3.05,2.6l3.88 2.01 2.84 2.66 4.05 2.02 2.8 2.63 4.51 1.9 2.54 2.84 4.14 2.07 2.62 2.32c3.56,-0.02 2.76,-0.95 2.76,2.45l3.82 2.2 2.68 2.36c3.52,-0.06 2.71,-0.97 2.71,2.42l4.09 2.13 2.52 2.42c3.38,0.1 2.55,-0.77 2.55,2.59l6.5 4.34 2.47 2.47 2.52 2.17c3.38,0.03 2.54,-0.83 2.54,2.55l9 6.55 2.41 2.54 2.33 2.32 2.46 2.21c3.17,-0.12 2.39,-0.87 2.29,2.34 3.34,-0.1 2.4,-0.85 2.4,2.66 9.09,6.71 25.52,23.05 32.15,32.16 3.51,0 2.76,-0.94 2.66,2.4l2.3 2.34 2.21 2.45 2.31 2.36 2.63 2.33 6.44 9.09c3.43,0 2.64,-0.9 2.64,2.42l2.13 2.58 2.53 2.42 2.17 3.9c3.43,0 2.53,-0.83 2.5,2.7l2.56 2.44 4.14 6.79c3.39,0 2.55,-0.84 2.49,2.55l2.3 2.75 2.18 3.93 2.87 2.73 2.04 3.97c3.33,0 2.42,-0.78 2.36,2.71l2.34 2.72 1.93 4.26 2.75 2.7 1.92 4.22 2.63 2.85 2.07 3.86c3.56,0 2.42,-0.78 2.56,3.19l0.07 1.23 2.65 2.94 1.84 4.43 2.45 2.95 1.88 4.41c3.41,0 2.4,-0.77 2.38,2.93l0.18 1.37 2.34 3.22 0.18 1.04 2.51 3.3 0.02 1.05 2.48 3.34 4.2 8.91 2.21 3.15 0.1 1.57 2.14 3.27 0.15 1.33 2.15 3.4 0.19 1.08 2.14 3.63 0.2 0.92 2.14 3.79 2.95 7.28 2.27 3.41 -0.05 1.62 2.16 3.3 0.02 1.61 2.06 3.36 0.02 1.74c3.46,0 2.34,-0.71 2.08,3.25l0.64 2.78 1.94 4.23 -0.28 1.37 2.74 4.72 2.59 4.78 -0.6 2.06 3.26 4.4 -0.49 1.6 1.94 4.24 0.47 2.84 1.95 4.07 0.38 3.07 1.89 3.9 0.36 3.09 1.86 3.99 0.41 2.86 1.71 4.35 -0.06 3.75 2.9 6.83 2.8 6.86 -0.36 3.9 2.6 5.63 -0.28 3.79 2.57 5.46 -0.69 4.78 3.26 5.74 -0.28 4.47 1.63 4.9 0.04 6.25 2.7 6.59 -0.5 6.89 2.86 9.08 -0.59 5.05 2.56 9.7 -0.38 8.9c3.57,4.97 3.02,9.26 3.07,16.43l0 91.89c-0.06,5.65 0.49,13.22 -3.07,16.44l0.38 8.91 -2.56 9.7 0.59 5.05 -2.86 9.08 0.5 6.89 -2.7 6.59 -0.04 6.24 -1.63 4.9 0.22 4.26 -3.2 5.95 0.69 4.79 -2.57 5.46 0.28 3.79 -2.6 5.63 0.36 3.9 -2.8 6.86 -2.9 6.83 0.06 3.75 -1.71 4.35 -0.41 2.86 -1.86 3.99 -0.36 3.1 -1.89 3.9 -0.38 3.07 -1.95 4.07 -0.47 2.84 -1.94 4.24 0.49 1.61 -3.26 4.4 0.6 2.06 -2.59 4.78 -2.74 4.72 0.28 1.37 -1.94 4.23 -0.64 2.79c0.26,3.97 1.38,3.25 -2.08,3.25l-0.02 1.74 -2.06 3.36 -0.02 1.61 -2.16 3.3 0.05 1.62 -2.27 3.41 -2.95 7.28 -2.14 3.79 -0.2 0.91 -2.14 3.63 -0.19 1.08 -2.15 3.39 -0.15 1.34 -2.14 3.27 -0.1 1.57 -2.21 3.15 -4.2 8.91 -2.48 3.34 -0.02 1.04 -2.51 3.3 -0.18 1.04 -2.34 3.22 -0.18 1.37c0.02,3.71 1.03,2.93 -2.38,2.93l-1.88 4.41 -2.45 2.95 -1.84 4.43 -2.65 2.95 -0.07 1.22c-0.15,3.98 1,3.2 -2.56,3.2l-2.07 3.86 -2.63 2.85 -1.92 4.22 -2.75 2.7 -1.93 4.26 -2.34 2.72c0.06,3.49 0.97,2.7 -2.36,2.7l-2.04 3.97 -2.87 2.73 -2.18 3.93 -2.3 2.74c0.06,3.53 0.96,2.71 -2.44,2.71l-4.19 6.63 -2.56 2.45c0.03,3.52 0.93,2.69 -2.5,2.69l-2.17 3.9 -2.53 2.41 -2.13 2.58c0,3.32 0.8,2.42 -2.64,2.42l-6.44 9.09 -2.63 2.33 -2.31 2.36 -2.21 2.45 -2.3 2.34c0.11,3.34 0.86,2.4 -2.66,2.4 -6.63,9.11 -23.06,25.44 -32.15,32.16 0,3.51 0.94,2.76 -2.4,2.66 0.1,3.2 0.89,2.45 -2.29,2.33l-2.46 2.21 -2.33 2.32 -2.41 2.54 -9 6.55c0,3.38 0.84,2.52 -2.54,2.55l-2.52 2.17 -2.47 2.47 -6.5 4.34c0,3.36 0.83,2.49 -2.55,2.59l-2.52 2.42 -4.09 2.13c0,3.39 0.81,2.48 -2.71,2.42l-2.68 2.36 -3.82 2.19c0,3.41 0.81,2.47 -2.76,2.45l-2.62 2.32 -4.14 2.07 -2.54 2.84 -4.51 1.9 -2.8 2.62 -4.05 2.02 -2.84 2.67 -3.88 2.01c0,3.46 0.77,2.35 -3.05,2.61l-4.27 1.89c0,3.49 0.81,2.51 -2.85,2.55l-1.55 0.09 -2.98 2.5 -4.48 1.8c0,3.38 0.77,2.37 -2.87,2.49l-1.13 0.16 -3.29 2.43 -0.98 0.13 -3.34 2.48 -4.06 1.74c0,3.72 0.79,2.53 -3.41,2.45l-1.22 0.04c0,3.55 0.74,2.38 -3.34,2.32l-1.48 0.03 -3.04 2.3 -1.58 0.11 -3.32 2.18 -1.15 0.15 -3.65 2.16 -0.82 0.17 -3.73 2.18 -0.9 0.16 -3.89 2.19 -0.63 0.08 -3.93 2.14 -0.9 0.1c0,3.79 0.72,2.4 -3.92,2.16l-7.75 2.77 -3.36 2.14 -1.37 0.03 -3.65 1.99 -2.21 -0.33 -3.74 3.3 -2.22 -0.57 -4.84 2.6 -4.9 2.66 -1.98 -0.62 -4.17 3.29 -2.01 -0.45 -4.16 1.99 -3.01 0.34 -3.72 2.02 -3.05 0.39 -4.1 1.84 -2.24 -0.38 -4.22 2.82 -18.56 4.17 -6.6 3.45 -4.1 -0.59 -5.08 2.82 -2.48 -0.62 -5.41 2.55 -4.63 -0.51 -6.06 3.18 -5.15 -0.78 -6.29 2.9 -6.68 -0.2 -5.97 2.11 -20.58 1.8 -13.86 3.53 -4.14 -0.76 -13.19 2.24 -12.95 -0.11c-11.57,5.08 -62.59,4.81 -74.6,0.13l-8.13 0.31 -13.75 -2.12 -11.36 -0.55 -7.79 -1.48 -11.27 -0.93 -6.83 -1.75 -7.34 -0.43 -6.2 -2.02 -7.08 -0.5 -4.83 -1.64 -5.18 -0.24 -5.73 -2.31 -4 0.21 -5.51 -2.51 -4.21 0.61 -6.54 -3.56 -9.95 -1.16 -6.08 -3.67 -3.88 0.11 -4.39 -1.73 -2.86 -0.42 -3.89 -1.85 -2.29 0.38 -3.93 -2.99 -2.31 0.37 -3.74 -2.03 -3.2 -0.26 -3.66 -2.14 -3.55 0.02 -4.82 -2.53 -4.81 -2.71 -2.07 0.52 -4.06 -3.24 -1.94 0.28 -3.95 -1.97 -0.93 -0.1 -3.79 -2.04 -8.03 -2.66 -3.5 -2.11 -1.43 0.04c-4.07,-0 -3.35,1.19 -3.35,-2.3l-1.26 0.03 -3.62 -2.26 -1.06 -0.02 -3.6 -2.32 -1.57 0.25 -3.56 -3.58 -9.81 -3.73 -3.29 -2.25 -1.63 0 -2.87 -2.44 -1.59 0c-3.98,-0.07 -3.25,1.09 -3.25,-2.36l-1.29 -0.11c-3.97,-0.15 -3.23,1.01 -3.23,-2.45l-0.92 -0.26 -3.25 -2.24 -4.11 -1.93 -3.26 -2.41 -1.31 -0.13c-3.72,-0.09 -2.95,0.95 -2.95,-2.45l-4.55 -1.85 -2.84 -2.55 -4.24 -1.82 -3.02 -2.68 -1.21 -0.1c-3.69,-0.25 -2.89,0.79 -2.89,-2.66l-3.94 -2.12 -2.84 -2.56 -4.26 -1.95 -2.81 -2.3c-3.42,0.03 -2.64,0.92 -2.64,-2.36l-4.2 -1.99 -2.79 -2.85 -3.85 -2.1 -2.68 -2.41c-3.47,0.03 -2.67,0.93 -2.67,-2.41l-4.04 -2.16 -2.6 -2.41c-3.54,0.02 -2.7,0.93 -2.7,-2.53l-6.61 -4.17 -2.4 -2.55c-3.4,0 -2.53,0.84 -2.53,-2.61l-6.53 -4.45 -2.31 -2.46 -2.62 -2.08 -2.39 -2.28c-3.27,0.11 -2.53,0.92 -2.35,-2.28 -3.55,0.17 -2.65,1 -2.65,-2.56l-13.5 -11.26 -2.29 -2.61 -2.32 -2.32 -2.22 -2.43 -2.26 -2.39 -2.3 -2.35 -2.37 -2.29 -2.44 -2.2 -2.36 -2.29 -2.69 -2.29 -11.24 -13.42c-3.5,0 -2.59,0.84 -2.47,-2.77 -3.19,0.12 -2.41,0.89 -2.31,-2.32l-2.29 -2.39 -2.06 -2.65 -2.48 -2.28 -4.53 -6.4c-3.43,0 -2.53,0.84 -2.53,-2.66l-2.54 -2.47 -4.22 -6.65c-3.36,0 -2.5,0.83 -2.53,-2.55l-2.39 -2.64 -4.2 -6.75 -2.74 -2.69 -2.17 -3.86 -2.86 -2.64 -3.93 -6.9 -2.79 -2.58 -1.86 -4.47 -2.69 -2.66 -1.97 -4.08c-3.54,0 -2.47,0.82 -2.69,-2.99l-0.06 -1.24c-3.38,0 -2.42,0.77 -2.31,-2.83l-2.16 -2.93 -0.08 -1.38 -2.55 -2.93 -1.88 -4.42 -2.47 -3 -0.14 -1.08 -2.43 -3.54 -1.87 -3.99 -2.36 -3.15 -0.17 -1.09c-3.48,0 -2.32,0.74 -2.42,-3.25l-0.03 -1.43c-3.4,0 -2.35,0.77 -2.49,-2.95l0.06 -1.62 -2.46 -2.93 -11.64 -24.43 -2.22 -3.81 0.05 -1.24c-3.51,0 -2.28,0.71 -2.26,-3.46l0.05 -1.49c-3.38,0 -2.29,0.72 -2.29,-3.1l0 -1.59 -2.04 -3.39 -2.72 -7.86 -1.97 -4.02 0.32 -1.61 -3.34 -4.14 0.28 -1.53 -1.92 -4.39 0.21 -1.52 -3.24 -4.44 0.44 -1.47 -1.98 -4.34 -0.44 -2.9 -2.03 -3.72 -0.36 -3.18 -1.9 -3.89 -0.41 -3.04 -1.79 -4.13 -0.41 -2.87 -1.74 -4.29 0.07 -3.61 -2.95 -6.68 -2.92 -6.9 0.54 -4.06 -2.68 -5.43 0.84 -2.6 -3.46 -6 1.11 -3.57 -3.23 -6.01 0.86 -5.37 -2.92 -6.22 0.56 -5.06 -2.73 -6.88 -0.05 -6.01 -1.75 -6.75 0.36 -8.46c-3.6,-5.46 -2.9,-5.75 -3.69,-13.74l0.54 -3.76 -2.01 -11.4 0.57 -11.16c-6.43,-11.05 -6.42,-76.1 0,-87.13zm449.85 -206.61l-1.61 4.77 -0.55 2.8 -2.07 3.42 -0.09 1.42 -2.21 3.21 -0.08 1.64 -2.17 2.75c0.06,3.56 0.99,2.77 -2.4,2.77l-2.1 3.96 -2.75 2.26 -2.32 2.32 -2.26 2.39 -2.43 2.62 -3.97 2.08 -2.74 2.73 -4.55 1.77c0,3.49 0.77,2.47 -3.04,2.32l-2.99 0.56 -4.31 1.93 -0.47 0.05 -4.28 2.05c-2.36,14.5 -2.64,141.18 1.02,148.59l4.94 3.15 1.4 -0.34 4.1 2.14 5.49 2.4 3.23 2.51 1.37 0.11 2.65 2.32c3.46,-0.02 2.6,-0.89 2.6,2.55l8.8 8.91c3.46,0 2.65,-0.89 2.61,2.48l2.34 2.6 0.04 1.58 2.68 2.74 4.26 11.07 1.75 4.19c0.92,7.17 30.37,3.87 37.81,3.87 7.02,-0 14,0.01 21.02,0.09 8.23,0.1 15.93,2.01 19.21,-3.8l1.66 -4.76 0.05 -0.4 2.01 -4.31 2.44 -5.52 2.48 -3.13 1.99 -4.29 2.96 -2.39 8.87 -8.89c0,-3.48 -0.88,-2.64 2.55,-2.59l2.71 -2.29 1.37 -0.11 3.17 -2.59 5.03 -1.27 3.49 -3.74 3.59 0.15 4.24 -2.05 3.62 0.22 7.7 -2.65 13.53 0.01 7.73 2.65 3.34 -0.15 4.6 1.97 3.42 -0.05 3.74 3.57 4.97 1.41 3.16 2.53 4.01 2.09 2.48 2.57c3.46,0.02 2.6,-0.85 2.6,2.6l4.12 4.05c3.51,0 2.67,-0.89 2.63,2.6l2.5 2.51 1.99 4.31 2.45 3.04 0.09 1.18 2.23 3.58 0.11 0.92 1.95 4.13 -0.04 1.21 2.56 5.49c12.35,6.79 62.99,2.27 81.53,2.04l2 -3.86 0.41 -2.88 1.94 -3.97 2.25 -6.03 2.43 -3.17 0.06 -1.28 2.71 -2.85 4.24 -6.5 2.59 -2.4 2.33 -2.34 2.32 -2.63 7.05 -3.95c0,-3.45 -0.8,-2.44 2.88,-2.57l1.06 -0.17 3.73 -2.2 0.7 -0.17 4.19 -2.07 1.15 0.06 5.11 -2.97c6.1,-12.14 0.58,-122.72 2.08,-147.94 -4.31,0 -3.45,1.2 -3.45,-2.68l-2.77 -0.55 -3.91 -1.92 -1.09 -0.06 -3.45 -2.21 -1.49 -0.02 -2.97 -2.47 -4.26 -1.96 -2.66 -2.9c-5.93,-4.58 -6.51,-5.08 -11.03,-11.2 -3.36,0 -2.44,0.81 -2.49,-2.69l-2.18 -2.88 -0.18 -1.03c-3.52,0 -2.32,0.74 -2.5,-3.3l-0.02 -1.11 -2.31 -3.49 0.03 -1.23c-3.7,0 -2.3,0.68 -2.01,-3.95l-0.09 -3.76 -2.54 -4.57 2.43 -36.83 2.02 -3.65 4.58 -10.6 2.7 -3.02 2.24 -3.81 2.36 -2.66 2.32 -2.32 2.29 -2.36 2.4 -2.25 2.54 -2.43 4.17 -2.09 3.14 -2.44 0.94 -0.17 3.68 -1.84 4.03 -3.05 2.34 0.63 4.4 -3.14 2.9 0.85 6.92 -3.01 30.03 2.27 4.6 3.12 1.55 -0.27 4.01 2.16 0.75 0.12 3.66 2.29 1.03 0.24 2.87 2.5 6.91 4.02 2.53 2.52 2.32 2.32 2.38 2.7 4.24 6.48c3.49,0 2.45,-0.81 2.66,2.9l0.09 1.22c3.44,0 2.33,-0.75 2.51,3.09l-0.05 1.49 2.22 3.31 -0.03 1.51c3.65,0 2.31,-0.68 1.98,3.78l0.33 3.04 1.71 4.46 0.39 26.07 -2.14 5.67 -0.11 3.52 -1.93 3.8 -0.5 3.1c0.15,4.04 1.28,3.28 -2.3,3.28l-0.08 1.31c0.1,4.06 1.24,3.28 -2.37,3.28l-2.01 3.86 -2.4 2.78c-0.06,3.34 0.78,2.49 -2.59,2.49l-6.27 6.68c0,3.47 0.85,2.58 -2.68,2.54l-2.44 2.49 -4.21 1.97c0,3.41 0.75,2.32 -3.04,2.49l-1.36 0.07 -3.51 2.14 -1.44 0.02 -3.72 1.98 -2.58 0.58 -3.94 2.07 2.45 148.9 4.98 2.9 1.39 -0.07 4.26 1.94 0.64 0.18 3.3 2.32 4.19 1.86 2.86 2.72c7.52,4.53 9.26,5.79 13.71,13.34 3.45,0 2.56,-0.83 2.42,2.72l2.18 2.97 0.11 1.07c3.55,0 2.32,-0.73 2.39,3.44l0 1.22 2.28 3.32 0 1.5c3.63,0 2.36,-0.7 2.06,3.61l-0.25 4.3 2.95 6.16 -0.25 25.42 -2.58 4.54 0.28 2.38 -1.89 4.01 -0.47 2.96c0.16,4.23 1.38,3.49 -2.24,3.49l-0.03 1.22c0.02,4.06 1.15,3.26 -2.5,3.26l-1.93 3.96 -2.48 2.63c0,3.47 0.88,2.62 -2.55,2.62l-8.72 8.76 -2.69 2.94 -4.18 1.93 -3.16 2.42 -5.86 2.37 -4.15 1.89 -1.73 -0.26 -4.45 3.48 -0.18 103.9 3.83 2.19 3.24 0.28 3.6 2.12 1.42 -0.09 3.27 2.37 1.38 -0.03 2.96 2.6 1.21 0.17 2.67 2.29c3.41,0.01 2.61,-0.87 2.61,2.44l11.13 11.32c3.48,0 2.47,-0.84 2.85,2.71l1.98 3.89c3.52,0 2.42,-0.78 2.49,3.13l0.04 1.48c3.57,0 2.31,-0.71 2.17,3.56l4.85 23.4 0.05 7.81 -0.18 9.63 -2.51 4.78 -0.13 3.78c0.36,4.58 1.73,3.89 -1.97,3.89l0.04 1.4 -2.21 3.52 0 1.36c-0.17,3.76 0.9,3 -2.53,3l-0.11 1.29 -2.15 2.89c0,3.46 0.89,2.63 -2.51,2.63l-13.54 13.4 -2.65 2.79 -4.27 1.84c0,3.66 0.83,2.61 -3.09,2.53l-7.95 2.58 -4.1 1.81 -4.05 -0.13 -7.07 2.58 -19 -0.52 -4.88 -1.63 -2.89 -0.3 -3.91 -1.83 -3.04 -0.44c-4.21,0.22 -3.49,1.44 -3.49,-2.13l-1.53 0c-3.99,0.06 -3.22,1.18 -3.22,-2.39l-1.24 -0.12 -2.99 -2.07c-3.54,0.03 -2.74,0.96 -2.74,-2.43l-3.7 -2.28 -2.64 -2.46 -2.27 -2.38 -2.7 -2.39 -4.25 -6.48c-3.45,0 -2.4,0.8 -2.71,-2.89l-0.06 -1.13 -2.48 -3.3 -2.2 -6.07 -2.03 -3.67 -0.33 -3.02 -1.68 -4.54 0.13 -4.7 -3.2 -5.68c0.23,-1.83 0.08,-5.72 0.37,-7.27 1.12,-6.01 1.49,-5.05 2.06,-6.4l0.22 -5.1 2.49 -4.81 0.01 -3.74 2.08 -3.62 -0.05 -1.42 2.24 -3.41 -0.05 -1.41c0.23,-3.77 -0.86,-3.01 2.56,-3.01l0.14 -1.33c0.24,-3.62 -0.79,-2.83 2.63,-2.83 5.73,-8.89 6.8,-10.26 15.7,-15.94l2.84 -2.69 1.05 -0.11 3.18 -2.16 3.26 -1.97 2.86 -0.6 3.39 -2.19 1.43 0.05 4.01 -1.97 1.17 -103.6 -4.27 -4.06 -1.5 0.26 -4.23 -1.93 -10.41 -4.83 -2.64 -2.34c-3.52,0.03 -2.7,0.94 -2.7,-2.49l-11.08 -11.04c-3.34,0 -2.34,0.76 -2.41,-2.86l-2.21 -2.84 -0.17 -1.03c-3.51,0 -2.29,0.73 -2.45,-3.38l0 -1.2 -2.28 -3.41 0.03 -1.35 -2.02 -3.74c-2.02,-4.02 -0.37,-2.38 -4.89,-3.65l-78.08 0.02 -3.99 3.81 0.17 1.78 -1.91 4.01 -0.13 1.01 -2.22 3.43 -0.07 1.44c-0.06,3.65 0.92,2.84 -2.56,2.84l-4.05 6.81 -2.61 2.38 -2.2 2.47 -2.48 2.2 -2.34 2.63 -4.04 2.1c0,3.34 0.77,2.4 -2.76,2.36l-2.8 2.1 -1.77 0.04 -3.06 2.22 -1.5 0.1 -3.64 1.93 -2.23 -0.18 -4.28 2.84 -5.76 0.09c-8.94,4 -15.61,3.95 -24.51,0.04l-4.83 -0.45 -4.93 -1.6 -2.52 -0.67 -3.7 -1.95 -1.33 -0.06 -3.17 -2.25 -1.67 -0.07c-3.73,0.01 -2.93,1.01 -2.93,-2.48l-6.73 -4.05 -2.41 -2.61 -2.31 -2.34 -2.35 -2.31 -2.26 -2.4 -2.44 -2.54 -1.94 -4.29c-3.36,0 -2.33,0.77 -2.52,-2.87l-0.14 -1.42 -2.29 -3.32 -0.14 -0.94 -1.89 -4.28 0.19 -1.45 -3.87 -4.04 -74.73 0.07 -3.89 3.71 0.33 2.05 -2.01 3.65 -0.1 1.42 -2.2 3.16 -0.06 1.72c-0.2,3.6 0.8,2.81 -2.6,2.81l-1.97 3.97 -2.52 2.56 -2.31 2.36 -2.28 2.37 -2.3 2.35 -2.32 2.33 -2.67 2.36 -4.15 1.95c0,3.48 0.79,2.44 -2.99,2.45l-1.6 0.12 -3.16 2.21 -1.44 0.06 -3.56 2.01 -2.68 0.59 -4.08 1.48 0.36 105.73 3.67 1.72 2.87 0.42 3.8 2.08 1.37 -0.03c4.07,0.06 3.34,-1.14 3.34,2.37l1.15 0.13 2.99 2.54 3.99 2.05 2.58 2.46 2.56 2.14 2.32 2.32 2.36 2.29 2.23 2.44 2.53 2.49 2.01 4.1c3.41,0 2.36,-0.78 2.6,2.91l0.03 1.42 2.26 3.38 0.04 1.22 2.01 3.76 0.02 1.22 1.86 3.96 -0.65 4.34c6.98,3.49 4.02,24.19 1.05,29.89l-0.42 4.98 -1.74 4.3 -4.39 11.07 -2.58 2.74 -0.08 1.37 -2.23 2.82 -2.2 2.48c0.12,3.45 0.91,2.51 -2.66,2.51l-4.11 4.11c0,3.49 0.88,2.63 -2.59,2.6l-2.44 2.25 -2.86 2.17 -1.06 0.2c0,3.42 0.77,2.34 -2.98,2.62l-1.53 -0.03 -3.13 2.35 -1.5 -0.03 -3.41 2.1 -1.67 -0.04 -3.82 1.88 -4.88 0.55 -6.59 1.84 -27.16 -1.78 -4.12 -2.86 -2.28 0.37 -3.3 -2.17 -1.55 0.03 -3.16 -2.35 -1.48 0c-3.8,-0.17 -3,0.9 -3,-2.61l-3.91 -2.1 -2.48 -2.49 -2.49 -2.2 -2.32 -2.32 -2.32 -2.32 -2.24 -2.43 -2.45 -2.6 -1.96 -4.21 -2.47 -3.02 -0.17 -1.08 -2.22 -3.65 -0.13 -0.74 -2.01 -4.32 0.41 -1.81 -3.77 -5.6 1.27 -3.75c-5.35,-4.27 -4.47,-21.43 0.07,-26.62l-1.01 -3.31 2.95 -4.72 0.15 -3.14 2.05 -4.26 0.14 -0.65 2.19 -3.82 0.21 -1.04 2.44 -2.95 3.98 -6.9 2.59 -2.5 2.33 -2.32 2.37 -2.28 2.62 -2.5 3.77 -2.17c0,-3.38 -0.77,-2.41 2.82,-2.36l3.17 -2 0.88 -0.18c0,-3.61 -0.74,-2.36 3.51,-2.38l1.05 -0.03c0,-3.65 -0.7,-2.29 3.83,-2.1l3.08 -0.42 3.64 -1.7 0.5 -105.91 -4.22 -1.43 -2.7 -0.64 -3.29 -2.03 -1.72 -0.04c-3.96,0.08 -3.24,1.22 -3.24,-2.23l-4.41 -1.79 -2.58 -2.74 -4.13 -2.12 -2.45 -2.57 -2.31 -2.36 -2.32 -2.32 -2.66 -2.4 -2.12 -4.05c-3.34,0 -2.35,0.74 -2.24,-2.91l-2.11 -2.74 -0.23 -1.31 -2.22 -3.63 -0.08 -0.73 -2.05 -4.13 -2.41 -12.95c-4.6,-6.86 -4.28,-16.76 -0.24,-23.4l-0.3 -6.23 2.94 -4.99 -0.22 -1.5 2.01 -4.31 0.07 -0.7 2.27 -3.8 0.17 -0.87 2.48 -3.14 1.99 -4.12 2.43 -2.67c-0.04,-3.32 -0.81,-2.4 2.67,-2.4l4.06 -4.25c0,-3.56 -0.92,-2.74 2.54,-2.67l2.58 -2.48 4.12 -2.01 3.26 -2.49 0.83 -0.09 3.79 -2.3 0.69 -0.07 4.2 -2.1 1.24 0.18 4.71 -2.76 1.11 -149.51 -3.74 -1.6 -8.11 -2.5c-3.84,0.16 -3.08,1.21 -3.08,-2.27l-4.47 -1.77c-4.05,1.28 -2.78,1.77 -2.78,-2.77l-3.95 -2.17 -2.6 -2.38 -2.24 -2.42 -2.32 -2.33 -2.67 -2.38 -2.09 -3.97 -2.23 -3.03 -2.15 -2.74 -0.22 -1.28 -2.34 -3.43 -0.08 -0.77 -2.03 -4.11 0.04 -1.39 -2.79 -5.24 0.52 -4.55 -2.91 -9.28 2.14 -22.71 2.92 -4.86 -0.33 -1.66 2.2 -3.95 0.02 -0.77 2.29 -3.86 0.05 -0.8 2.46 -3.45 0.24 -1.17 2.23 -2.69c0.09,-3.44 -0.82,-2.63 2.54,-2.63l8.7 -8.89c0,-3.45 -0.84,-2.55 2.69,-2.49l2.67 -2.4 4.25 -1.91 3.36 -2.23 1.64 0.11 3.53 -3.67 2.66 0.84 4.35 -2.99 3.11 0.8 6.89 -2.91 20.31 0.26 5.75 2.44 3.78 -0.16 4.84 2.95 1.45 0.02 4.05 2.01 0.85 0.23 3.3 2.27 4.11 2.02c3.48,0.29 2.66,-0.68 2.66,2.73l11.55 10.93c3.43,0 2.59,-0.87 2.55,2.54l2.32 2.72 0.04 1.46 2.61 2.84 2.24 6.07 1.94 3.87 0.09 1.21 1.75 4.12 -0.63 4.16c6.54,6.17 4.48,20.87 1.32,28.11l-0.55 4.63zm42.86 -258.73l-5.2 -0.61 -4.95 2.51 -6.2 -0.2 -5.4 2.42 -3.28 0.21 -4.7 1.63 -4.84 0.62 -6.21 1.87 -6.38 3.2 -1.75 -0.66 -5.67 2.58 -10.07 2.51 -4.03 1.93 -3.18 0.34 -3.58 1.98 -8.34 2.4 -3.84 1.96 -2.47 0.68 -4.4 1.97 -1.27 -0.2 -4.04 3.38 -1.96 -0.42 -3.7 2.2 -1.22 -0.05 -3.6 2.18 -1.33 0c0,3.49 0.71,2.31 -3.36,2.19l-6.47 2.19c0,3.49 0.75,2.42 -3.13,2.23l-10.74 4.69 -3.51 2.19 -0.76 0.23 -3.78 2.18 -0.9 0.17c0,3.58 0.76,2.41 -3.32,2.43l-1.28 0.08c0,3.43 0.74,2.32 -3.12,2.38l-1.7 0.02 -2.91 2.42 -4.54 1.8c0,3.34 0.77,2.36 -2.81,2.44l-1.37 0.18 -3.16 2.45 -3.98 1.99c0,3.45 0.79,2.41 -2.93,2.56l-1.37 0.11 -2.83 2.71 -4.34 1.87 -2.84 2.69 -4.15 1.94 -2.94 2.23 -2.63 2.2 -1.11 0.29c0,3.39 0.77,2.4 -2.89,2.36l-2.65 2.38 -4.03 2.08c0,3.36 0.8,2.44 -2.69,2.47l-2.56 2.42 -4.2 2.08 -2.56 2.45 -2.63 2.11 -2.51 2.46 -3.94 2.21c0,3.4 0.86,2.57 -2.5,2.57l-2.41 2.27 -2.49 2.54 -11.33 8.79c0,3.43 0.9,2.63 -2.4,2.66l-2.3 2.35 -2.4 2.26 -2.35 2.29 -2.34 2.31 -2.4 2.25 -2.38 2.27 -2.37 2.28 -2.23 2.42 -2.33 2.33 -2.23 2.42 -2.32 2.32 -2.34 2.31 -2.22 2.44 -2.32 2.34 -2.7 2.32 -8.77 11.38 -2.55 2.49 -2.29 2.38c-0.02,3.38 0.83,2.54 -2.53,2.54l-4.34 6.39 -2.5 2.6c-0,3.45 0.89,2.63 -2.48,2.63l-2.11 4.12 -2.32 2.64c-0.03,3.48 0.87,2.64 -2.54,2.64l-2.11 3.9 -2.32 2.76c-0.02,3.61 0.97,2.85 -2.38,2.85l-2.09 3.93 -2.63 2.76 -1.97 4.28 -2.68 2.79 -1.9 4.25c-0.28,3.7 0.78,2.92 -2.66,2.92l-1.98 3.79 -2.55 3.38 -0.17 1.05 -2.41 3.09 -4.42 8.77 -2.43 3.03 -0.08 1.51c-0.04,3.86 1.04,3.09 -2.45,3.09l-4.11 8.79 -2.36 3.57 -0.06 0.89 -2.29 3.7 -9.68 21.63c0.1,5.18 1.83,5.1 -2.2,3.77l-0.02 0.83 -2.06 4.15 0.28 1.48 -3.37 4.02 0.13 1.61 -1.85 4.31 0.15 1.42 -3.17 4.06 0.33 1.99 -1.84 4.02 -0.5 3.05 -1.92 3.78 -0.43 2.88c0.42,4.71 1.84,4.03 -1.93,4.03l0.49 2.26 -3.16 4 0.73 2.64 -2.87 4.91 0.77 2.31 -2.95 6.78 -2.87 6.77 0.94 2.62 -3.36 6.42 0.44 4.53 -2.44 5.1 0.32 4.53 -2.53 4.8 0.22 6.46 -2.42 5.36 0.09 6.03 -2.15 6.4 -1.6 22.88 -3.34 20.34c0.39,2.33 0.39,81.15 0,83.48l3.34 20.34 1.6 22.87 2.15 6.41 -0.09 6.03 2.42 5.36 -0.22 6.46 2.53 4.8 -0.32 4.53 2.44 5.1 -0.44 4.52 3.36 6.42 -0.94 2.62 2.87 6.77 2.38 7.27 2.98 6.42 -1.04 2.95 3.16 4 -0.49 2.26c3.76,0 2.34,-0.68 1.93,4.02l0.43 2.88 1.92 3.78 0.5 3.05 1.84 4.02 -0.33 1.99 3.17 4.06 -0.15 1.42 1.85 4.31 -0.13 1.61 3.37 4.02 -0.28 1.49 2.06 4.14 0.02 0.83c3.65,0 2.31,-0.71 2.2,3.77l9.68 21.63 2.29 3.7 0.06 0.89 2.36 3.57 4.11 8.79c3.49,0 2.41,-0.77 2.45,3.09l0.08 1.51 2.43 3.03 4.42 8.77 2.41 3.1 0.17 1.05 2.55 3.38 1.98 3.79c3.43,0 2.37,-0.79 2.66,2.92l1.9 4.25 2.68 2.8 1.97 4.28 2.63 2.76 2.09 3.93c3.34,0 2.35,-0.76 2.38,2.85l2.32 2.76 2.11 3.89c3.41,0 2.51,-0.83 2.54,2.65l2.32 2.64 2.11 4.12c3.37,0 2.48,-0.82 2.48,2.63l2.5 2.6 4.34 6.39c3.36,0 2.5,-0.84 2.53,2.54l2.29 2.38 2.55 2.49 8.77 11.38 2.7 2.33 2.32 2.33 2.22 2.44 2.34 2.3 2.32 2.33 2.23 2.42 2.33 2.33 2.23 2.42 2.37 2.28 2.34 2.31 2.43 2.22 2.34 2.31 2.35 2.3 2.4 2.26 2.3 2.35c3.3,0.03 2.4,-0.77 2.4,2.66l11.33 8.79 2.49 2.54 2.41 2.27c3.36,0 2.5,-0.83 2.5,2.57l3.94 2.21 2.51 2.46 2.63 2.11 2.56 2.45 4.2 2.09 2.56 2.42c3.49,0.03 2.69,-0.89 2.69,2.47l4.03 2.08 2.65 2.38c3.66,-0.04 2.89,-1.02 2.89,2.36l1.11 0.29 2.63 2.2 2.94 2.24 4.15 1.94 2.84 2.7 4.34 1.87 2.83 2.71 1.37 0.11c3.73,0.15 2.93,-0.89 2.93,2.56l3.98 1.98 3.16 2.45 1.37 0.18c3.58,0.08 2.81,-0.9 2.81,2.43l4.54 1.81 2.91 2.4 1.78 0.03c3.71,0.07 2.95,-0.96 2.95,2.42l1.38 0.03c4.11,-0.07 3.32,-1.23 3.32,2.44l0.9 0.17 3.78 2.18 0.81 0.26 3.3 2.23 10.9 4.62c3.88,-0.19 3.13,-1.25 3.13,2.23l6.47 2.2c4.07,-0.12 3.36,-1.3 3.36,2.19l1.33 0 3.6 2.18 1.22 -0.06 3.7 2.2 1.96 -0.41 4.04 3.38 1.27 -0.2 4.4 1.97 2.47 0.68 3.84 1.96 8.34 2.4 3.58 1.98 3.18 0.34 4.03 1.93 10.07 2.51 5.67 2.56 1.82 -0.67 6.32 3.22 6.21 1.87 4.84 0.61 4.7 1.63 3.28 0.21 5.4 2.42 6.2 -0.19 4.95 2.51 5.2 -0.61 6.31 2.98 6.66 -0.41 7.5 2.61 5.31 -1.13 15.74 3.09 22.77 3.25 74.45 -0.35 17.17 -2.81 12.42 0.04 8.29 -2.45 7.78 0.03 6.48 -2.17 7.2 -0.33 4.66 -1.74 5.74 -0.1 5.23 -2.4 4.34 0.27 5.13 -2.46 4.32 0.28 5.12 -2.53 4.15 0.28 7.01 -2.77 6.77 -2.94 3.49 0.18 4.35 -1.98 2.9 -0.23 3.97 -2.03 3.08 -0.3 3.8 -1.99 8.35 -2.35 3.61 -1.95 3 -0.53 4.23 -1.9 1.52 0.26 4.09 -3.34 1.43 0.26 4.39 -1.93 0.57 -0.13 4.22 -2 2.53 -0.72 3.36 -2.22 1.69 0.03 3.3 -2.17 1.55 -0.02 3.23 -2.16 1.73 -0.01 3.1 -2.19 1.48 -0.08 3.39 -2.17 1.13 -0.18 3.67 -2.12 0.79 -0.2 3.79 -2.14 0.84 -0.2c0,-3.59 -0.76,-2.38 3.36,-2.49l1.08 -0.03 3.25 -2.39 1.57 -0.02 3.04 -2.43 4.45 -1.77c0,-3.38 -0.75,-2.32 2.99,-2.4l1.4 -0.15 3.17 -2.45 4.22 -1.89c0,-3.41 -0.75,-2.34 3.01,-2.45l1.09 -0.17c0,-3.45 -0.78,-2.35 2.99,-2.66l4.16 -1.9c0,-3.48 -0.82,-2.45 2.86,-2.71l4.26 -1.93 2.84 -2.6 4.1 -2.03 2.76 -2.77 3.93 -1.99c0,-3.42 -0.8,-2.48 2.78,-2.45l2.64 -2.33 4.19 -2.11c0,-3.31 -0.79,-2.41 2.65,-2.42l2.56 -2.41 6.56 -4.3c0,-3.42 -0.86,-2.57 2.55,-2.57l2.54 -2.4 6.51 -4.4c0,-3.35 -0.85,-2.51 2.47,-2.58l2.41 -2.25 2.51 -2.55 15.76 -13.58c0,-3.42 -0.87,-2.59 2.51,-2.59l2.34 -2.31 2.33 -2.32 2.32 -2.32 2.32 -2.33 2.3 -2.34 2.7 -2.32 15.79 -18.26 2.58 -2.5 2.16 -2.53c-0.04,-3.27 -0.81,-2.38 2.58,-2.38l4.37 -6.53 2.46 -2.57c0.02,-3.45 -0.87,-2.62 2.53,-2.62l4.32 -6.51 2.43 -2.52 2.39 -2.71 2.07 -4.19 2.4 -2.57c-0.06,-3.63 -1.03,-2.85 2.38,-2.85l0.17 -1.11 2.28 -2.72 2.32 -2.82 2.06 -4.08 2.65 -2.8 1.95 -4.25c0.26,-3.69 -0.8,-2.91 2.64,-2.91l1.88 -4.1c0.35,-3.85 -0.79,-3.09 2.65,-3.09l0.16 -1.18 2.47 -3.03 1.94 -4.02 2.4 -3.3 0.12 -1.31 2.44 -2.87 4.2 -9.19 2.41 -3.17 0.03 -1.27 2.39 -3.41 0.08 -0.97 2.27 -3.65 0.16 -0.89 2.18 -3.66 0.15 -0.96 2.18 -3.58 0.12 -1.16 2.2 -3.38 0.07 -1.39 2.1 -3.5 0.02 -1.55 2.22 -3.25 2.79 -7.54 2 -4.25 -0.26 -1.47 2.79 -4.43 2.59 -4.83 -0.54 -2.28 3.19 -3.8 -0.35 -2.28 1.91 -3.83 0.46 -3.02 1.85 -3.91 0.46 -3.02 1.86 -4.24 -0.48 -1.99 3.18 -4.1 -0.98 -2.77 2.94 -6.6 2.97 -6.73 -0.19 -3.98 2.55 -5.09 0.09 -3.76 1.59 -4.65 4.56 -24.72 2.51 -5.16 -0.02 -7.82 2.13 -6.57 -0.05 -7.75 2.41 -8.5 -0.86 -9.05 4.15 -24.26 0.07 -61.6c-2.94,-4.68 -3.91,-16.97 -4.15,-24.24l0.78 -9 -2.41 -8.5 0.05 -7.75 -2.13 -6.56 0.02 -7.82 -2.51 -5.16 -1.95 -16.06 -2.42 -5.3 -0.19 -3.36 -1.59 -4.65 -0.09 -3.76 -2.55 -5.09 0.19 -3.97 -2.97 -6.73 -2.94 -6.6 0.98 -2.77 -3.18 -4.1 0.48 -1.99 -1.86 -4.24 -0.46 -3.02 -1.85 -3.91 -0.46 -3.01 -1.91 -3.84 0.35 -2.28 -3.19 -3.8 0.54 -2.28 -2.59 -4.83 -2.79 -4.43 0.26 -1.47 -2 -4.25 -2.79 -7.55 -2.2 -3.25 -0.02 -1.64 -2.14 -3.3 -0.07 -1.49 -2.16 -3.38 -0.12 -1.21 -2.19 -3.52 -0.15 -0.96 -2.18 -3.65 -0.16 -0.9 -2.27 -3.65 -0.08 -0.98 -2.45 -3.18 -0.02 -1.5 -2.36 -3.17 -4.2 -9.19 -2.44 -2.86 -0.12 -1.31 -2.4 -3.31 -1.94 -4.02 -2.47 -3.03 -0.16 -1.18c-3.44,0 -2.3,0.76 -2.65,-3.09l-1.88 -4.1c-3.43,0 -2.38,0.79 -2.64,-2.91l-1.95 -4.25 -2.65 -2.8 -2.06 -4.08 -2.32 -2.82 -2.28 -2.72 -0.17 -1.11c-3.41,0 -2.44,0.78 -2.38,-2.86l-2.4 -2.57 -2.07 -4.18 -2.39 -2.71 -2.43 -2.52 -4.32 -6.51c-3.4,0 -2.51,0.83 -2.53,-2.62l-2.46 -2.57 -4.37 -6.52c-3.8,1.62 -2.62,1.96 -2.58,-2.38l-2.16 -2.53 -2.58 -2.5 -15.79 -18.26 -2.7 -2.32 -2.3 -2.35 -2.32 -2.33 -2.32 -2.32 -2.33 -2.32 -2.34 -2.31c-3.38,-0 -2.51,0.83 -2.51,-2.59l-15.76 -13.58 -2.51 -2.56 -2.41 -2.25c-3.32,-0.06 -2.47,0.77 -2.47,-2.58l-6.51 -4.39 -2.54 -2.4c-3.41,0 -2.55,0.85 -2.55,-2.57l-6.56 -4.3 -2.56 -2.41c-3.44,-0.02 -2.65,0.89 -2.65,-2.42l-4.19 -2.11 -2.64 -2.33c-3.58,0.04 -2.78,0.98 -2.78,-2.45l-3.93 -1.99 -2.76 -2.77 -4.1 -2.04 -2.84 -2.6 -4.26 -1.93c-3.67,-0.26 -2.86,0.77 -2.86,-2.71l-4.16 -1.9c-3.76,-0.3 -2.99,0.79 -2.99,-2.66l-1.09 -0.17c-3.76,-0.1 -3.01,0.97 -3.01,-2.44l-4.22 -1.9 -3.17 -2.45 -1.4 -0.15c-3.74,-0.08 -2.99,0.98 -2.99,-2.4l-4.45 -1.77 -3.04 -2.43 -1.57 -0.02 -3.25 -2.39 -1.08 -0.02c-4.11,-0.11 -3.36,1.09 -3.36,-2.5l-0.84 -0.2 -3.79 -2.14 -0.79 -0.2 -3.67 -2.12 -1.13 -0.18 -3.39 -2.17 -1.48 -0.09 -3.1 -2.21 -1.7 -0.02 -3.29 -2.14 -1.51 -0.02 -3.3 -2.17 -1.69 0.03 -3.36 -2.22 -2.53 -0.72 -4.22 -2 -0.57 -0.13 -4.39 -1.94 -1.43 0.27 -4.09 -3.34 -1.52 0.26 -4.23 -1.9 -3 -0.52 -3.61 -1.95 -1.38 -0.05 -4 -1.86 -2.97 -0.44 -3.8 -1.99 -3.08 -0.3 -4.06 -2 -2.66 -0.31 -4.56 -1.92 -3.45 0.18 -6.77 -2.95 -6.9 -2.87 -4.26 0.39 -5.12 -2.53 -4.32 0.28 -5.13 -2.46 -4.34 0.27 -5.23 -2.4 -5.65 -0.12 -4.76 -1.72c-14.56,2.05 -76.23,78.5 -93.94,87.98l-81.53 -81.25c-6.25,-6.53 -4.65,-7.19 -16.28,-7.36l-6.31 2.97zm-577.29 506.59c0,77.36 12.42,151.61 35.73,220.09 22.97,67.47 47.22,111.24 86.14,169.69 71.43,107.3 185.49,194.39 305.69,243.16 75.36,30.57 167.85,48.48 249.21,48.48 26.35,0 53.71,-3.08 79,-4.73 23.83,-1.55 50.9,-7.6 73.51,-12.53 79.95,-17.42 169.69,-56.89 235.87,-103.68 146.73,-103.74 231.05,-233.44 274.44,-404.66 12.3,-48.56 14.93,-94.42 18.27,-151.52 0.55,-9.35 -1.4,-7.9 -2,-18.24 -0.37,-6.47 -0.01,-14.37 0.04,-20.98 0.22,-32.77 -7.44,-81.23 -15.37,-112.55 -3.02,-11.92 -4.98,-22.57 -8.16,-33.7 -13.48,-47.07 -37.14,-108.27 -62.09,-149.56 -19.33,-31.98 -29.01,-47.7 -50.97,-76.94 -16.8,-22.37 -60.63,-72.81 -80.43,-89.36 -5.18,-4.33 -6.36,-4.33 -11.55,-9.38 -14.39,-14.01 -42.68,-35.08 -59.5,-47.49 -31.75,-23.42 -70.22,-44.04 -108.12,-61.65 -54.73,-25.43 -135.35,-49.74 -199.61,-56.22 -72.12,-7.27 -89.49,-5.93 -159.89,-0.18 -23.27,1.9 -49.69,6.89 -71.38,12.35 -23.28,5.86 -44.61,10.14 -65.36,18.37 -10.68,4.24 -20.95,6.96 -30.94,10.92 -26.69,10.59 -63.28,27.05 -86.76,41.16 -9.6,5.77 -17.02,9.39 -26.26,15.61 -9.56,6.42 -17.54,11.75 -26.51,17.68 -90.72,60.08 -191.27,176.79 -232.24,277.08l-23.87 59.85c-7.51,20.76 -13.73,42.52 -19.23,66.81 -10.35,45.62 -17.68,97.44 -17.68,152.09z"/>
  <path class="fil1" d="M1828.21 941.62l0 -524.34 106.19 0 0 206.52 206.52 0 0 -206.52 106.18 0 0 524.34 -106.18 0 0 -229.22 -206.52 0 0 229.22 -106.19 0zm1115.15 0l-114.36 0 -45.28 -119.37 -210.3 0 -43.57 119.37 -112.29 0 203.59 -524.34 112.17 0 210.05 524.34zm-194.07 -207.98l-72.86 -194.07 -70.79 194.07 143.66 0zm699.92 14.65l102.53 31.49c-15.74,57.73 -41.99,100.57 -78.6,128.64 -36.61,27.95 -82.99,41.99 -139.26,41.99 -69.69,0 -126.94,-23.8 -171.85,-71.4 -44.8,-47.6 -67.25,-112.66 -67.25,-195.29 0,-87.27 22.58,-155.13 67.62,-203.46 45.04,-48.33 104.36,-72.5 177.83,-72.5 64.2,0 116.32,19.04 156.35,57 23.92,22.46 41.74,54.68 53.71,96.79l-104.72 24.9c-6.23,-27.1 -19.17,-48.58 -38.82,-64.32 -19.77,-15.74 -43.69,-23.56 -71.77,-23.56 -38.93,0 -70.55,13.91 -94.71,41.86 -24.29,27.83 -36.37,72.99 -36.37,135.48 0,66.15 11.96,113.39 35.76,141.46 23.92,28.19 54.93,42.23 93.13,42.23 28.19,0 52.48,-8.91 72.74,-26.85 20.26,-17.94 34.91,-46.02 43.69,-84.46zm308.86 193.33l0 -524.34 106.18 0 0 232.27 213.96 -232.27 142.32 0 -197.85 204.2 208.1 320.15 -136.94 0 -144.27 -246.18 -85.32 87.63 0 158.55 -106.18 0zm639.87 0l0 -524.34 159.04 0 93.98 357.62 92.88 -357.62 159.4 0 0 524.34 -98.13 0 -0.37 -412.78 -103.38 412.78 -102.03 0 -102.89 -412.78 -0.37 412.78 -98.13 0zm1197.77 0l-114.36 0 -45.28 -119.37 -210.3 0 -43.57 119.37 -112.29 0 203.59 -524.34 112.17 0 210.05 524.34zm-194.07 -207.98l-72.86 -194.07 -70.79 194.07 143.66 0zm364.51 207.98l0 -524.34 102.77 0 215.79 351.39 0 -351.39 98.13 0 0 524.34 -106.07 0 -212.5 -344.68 0 344.68 -98.13 0zm639.14 0l0 -524.34 106.18 0 0 524.34 -106.18 0zm793.41 0l-114.36 0 -45.28 -119.37 -210.3 0 -43.57 119.37 -112.29 0 203.59 -524.34 112.17 0 210.05 524.34zm-194.07 -207.98l-72.86 -194.07 -70.79 194.07 143.66 0z"/>
 </g>
</svg>
