<svg width="225" height="63" viewBox="0 0 225 63" fill="none" xmlns="http://www.w3.org/2000/svg">
<path fill-rule="evenodd" clip-rule="evenodd" d="M111.233 39.7673C109.599 39.7673 109.073 39.2526 108.02 38.691L110.292 27.5348C111.392 22.3092 111.839 18.2691 116.05 18.2691C120.789 18.2691 117.048 39.7642 111.233 39.7642V39.7673ZM101.062 2.14932C101.612 3.51577 100.875 2.57049 102.094 3.26307C102.78 3.65304 102.752 3.52825 103.741 3.75912C103.741 8.23285 99.2811 27.5691 98.0785 33.0068C97.4538 35.8271 96.248 40.3258 96.248 42.9901C105.568 42.9901 101.028 43.7481 106.954 39.7673C113.253 49.2108 129.438 40.3975 129.438 24.7208C129.438 19.7198 127.542 15.1712 123.707 13.7891C121.268 12.9062 119.232 13.0342 117.041 13.8765C114.844 14.7219 114.07 16.5501 112.305 17.7356L116.053 0.00292969H115.913C112.843 0.00604944 102.989 0.115241 101.065 2.15244L101.062 2.14932Z" fill="white"/>
<path fill-rule="evenodd" clip-rule="evenodd" d="M73.7606 38.6908C70.6374 34.0112 72.8314 25.5878 74.2889 22.0251C76.5855 16.4126 80.7342 15.5672 81.9493 18.0536C82.4807 19.1393 80.3022 27.5564 79.8734 29.7808C79.0125 34.2327 78.4159 38.3009 73.7606 38.6908ZM60.9136 32.2423C60.9136 41.4362 67.7846 46.2874 74.8359 41.9198C76.9273 40.6251 77.0174 39.3054 78.5775 38.1542C80.1966 45.13 86.0421 44.1754 90.5513 41.5766C92.2356 40.6064 93.3761 39.8982 93.5657 37.6176C89.591 37.9514 88.2454 40.3661 91.959 24.7206C92.5837 22.0875 94.1002 16.1787 94.1002 13.4364C81.2998 13.4364 88.4474 16.1943 82.8598 16.6622C80.9673 9.54918 60.9136 12.3258 60.9136 32.2454V32.2423Z" fill="white"/>
<path fill-rule="evenodd" clip-rule="evenodd" d="M46.46 1.61291C46.7148 3.95585 47.0753 3.20399 49.1357 4.29902C49.1357 7.25343 48.1505 10.1891 47.6595 12.4915C46.2766 18.9868 42.7122 33.0039 42.7122 38.6943C42.7122 43.7764 48.6882 44.3723 53.9743 41.9389C55.8109 41.0934 57.4953 40.1263 57.7004 37.618C53.3963 37.9768 52.8773 40.1357 55.5965 26.9079L61.4451 0C58.2287 0 48.3401 0.705065 46.4569 1.61291H46.46Z" fill="white"/>
<path fill-rule="evenodd" clip-rule="evenodd" d="M134.251 23.1082C134.251 32.2054 145.492 31.441 145.492 37.6181C145.492 42.1886 134.251 43.4552 134.251 32.2459H132.644C132.094 34.6169 131.249 38.2951 131.038 40.844C134.459 41.7612 141.063 46.4221 150.691 41.2246C152.142 40.4415 152.944 39.8425 153.854 38.4885C161.686 26.83 144.422 24.4091 144.422 18.2725C144.422 14.5195 154.059 13.2528 154.059 23.1082H156.201C156.263 20.2598 157.27 18.1009 157.27 15.0467C152.046 13.8238 149.765 12.0018 142.605 13.7582C138.322 14.8096 134.251 18.0136 134.251 23.105V23.1082Z" fill="white"/>
<path fill-rule="evenodd" clip-rule="evenodd" d="M205.982 51.5917C206.65 54.0999 207.303 51.8693 206.016 57.5442C205.208 61.1132 205.721 62.5139 206.728 62.8758H208.148C209.606 62.5326 211.265 61.4251 211.874 61.2629C212.11 62.1552 212.434 62.6512 212.803 62.8758H213.931C215.277 62.2737 216.759 59.9963 217.229 59.65C217.384 61.525 218.319 62.5982 219.497 62.8758H220.784C221.797 62.6574 222.844 61.9399 223.652 60.7263C221.306 60.5298 221.368 59.7717 220.7 57.7095C219.693 54.596 220.299 56.2838 220.977 53.7381C225.824 56.9982 225.598 51.0519 223.118 51.0519C221.231 51.0519 220.818 53.2108 219.37 54.2778C219.218 52.4527 218.963 52.3092 218.298 51.0519C216.234 51.2235 216.191 51.5885 213.481 51.5885C214.096 53.2982 214.14 52.3966 215.094 54.2684C215.628 55.3167 216.971 58.8732 215.442 59.6843C213.329 60.8043 215.986 59.1103 213.481 59.1103C210.522 59.1103 213.956 60.3176 210.268 60.7232C210.268 56.8952 211.138 54.2185 211.874 51.0488C209.547 51.1019 208.953 51.5854 205.985 51.5854L205.982 51.5917Z" fill="white"/>
<path fill-rule="evenodd" clip-rule="evenodd" d="M12.198 27.9434H22.9039V19.3453C22.9039 18.1068 22.5309 17.7324 21.2972 17.7324H12.198V27.9434Z" fill="white"/>
<path fill-rule="evenodd" clip-rule="evenodd" d="M165.3 51.5915C166.739 57.0355 164.349 57.4785 164.228 62.8757H168.51C168.967 60.9133 169.268 59.2911 169.694 57.076C170.172 54.5833 169.893 53.4446 172.792 53.2013C172.792 56.8265 169.84 62.8757 173.864 62.8757C175.235 62.8757 180.108 61.0849 176.006 60.7261C176.061 60.0367 180.518 46.0321 170.651 52.6647V51.0518C168.292 51.1048 168.149 51.5884 165.297 51.5884L165.3 51.5915Z" fill="white"/>
<path fill-rule="evenodd" clip-rule="evenodd" d="M142.816 62.8758H147.098C147.25 61.032 147.835 58.8981 148.254 57.0512C148.823 54.5554 148.45 53.4479 151.381 53.2045C151.306 56.5146 150.308 58.0183 150.308 62.3392C155.312 63.5434 158 61.0258 154.591 60.7263C154.613 59.6936 158.985 46.1133 149.236 52.6648V51.0519C148.326 51.0706 145.774 51.4075 144.91 51.6259C142.406 52.2499 144.127 51.3795 144.28 54.1904C144.41 56.5926 142.813 59.5813 142.813 62.8758H142.816Z" fill="white"/>
<path fill-rule="evenodd" clip-rule="evenodd" d="M112.302 62.8758H116.584C116.733 61.0694 117.302 58.8513 117.672 56.9826C118.166 54.4992 118.141 53.4323 120.866 53.2045C120.792 56.5146 119.794 58.0183 119.794 62.3392C124.798 63.5434 127.489 61.0258 124.077 60.7263C124.098 59.6936 128.471 46.1133 118.722 52.6648V51.0519C117.812 51.0706 115.26 51.4075 114.396 51.6259C111.891 52.2499 113.613 51.3795 113.765 54.1904C113.896 56.5926 112.299 59.5813 112.299 62.8758H112.302Z" fill="white"/>
<path fill-rule="evenodd" clip-rule="evenodd" d="M103.737 61.7992C102.848 60.2144 102.659 53.1326 106.413 52.1249C106.991 54.6144 107.261 60.854 103.737 61.7992ZM105.176 62.8756H103.308C100.919 62.5168 98.9204 60.7011 98.9204 56.9636C98.9204 50.3279 111.233 48.1316 111.233 56.427C111.233 60.0116 108.222 62.4481 105.176 62.8756Z" fill="white"/>
<path fill-rule="evenodd" clip-rule="evenodd" d="M131.575 56.4271C131.575 53.7035 131.566 52.7052 133.716 52.1281C134.077 53.0016 134.22 53.2387 133.57 54.6083C132.756 56.3304 133.064 55.6378 131.575 56.4271ZM132.458 62.8756H130.954C128.685 62.52 126.758 60.5608 126.758 57.5003C126.758 54.2713 129.965 51.0518 133.182 51.0518C138.067 51.0518 140.376 55.4413 131.575 57.5003C131.672 61.9023 133.838 60.7854 136.392 60.1864C135.317 61.7962 133.887 62.6541 132.458 62.8725V62.8756Z" fill="white"/>
<path fill-rule="evenodd" clip-rule="evenodd" d="M183.498 56.4266C183.557 53.8029 183.585 52.3429 186.174 52.1276C186.115 54.8106 185.664 55.8464 183.498 56.4266ZM184.433 62.8752H182.901C180.614 62.5071 178.678 60.5042 178.678 57.4998C178.678 56.2301 179.853 53.856 180.658 53.0386C185.984 47.6477 195.87 54.6047 183.495 57.4998C183.591 61.9018 185.757 60.785 188.312 60.186C187.236 61.7989 185.832 62.6474 184.43 62.8721L184.433 62.8752Z" fill="white"/>
<path fill-rule="evenodd" clip-rule="evenodd" d="M195.811 54.2776C195.811 59.5032 198.924 57.2819 199.782 60.0117C200.687 62.885 196.156 62.729 195.811 58.5766H194.742C194.742 60.6793 192.899 62.8756 198.489 62.8756C204.061 62.8756 205.83 58.352 201.681 55.3321C201.311 55.0638 201.025 55.0357 200.466 54.3993C198.962 52.6834 199.854 53.7441 200.093 53.2013C200.245 52.8269 199.465 51.292 201.917 52.3246C203.002 52.7832 203.058 53.7503 203.306 54.8142H204.378C204.419 53.0234 205.83 51.0518 201.165 51.0518C198.757 51.0518 195.811 52.0688 195.811 54.2776Z" fill="white"/>
<path fill-rule="evenodd" clip-rule="evenodd" d="M157.804 51.5915C158.472 54.0998 159.122 51.8691 157.838 57.544C157.03 61.1099 157.636 62.4981 158.643 62.8756H160.172C161.316 62.5824 162.403 61.8305 162.49 61.7182C164.218 59.4408 162.136 62.91 162.161 58.6889C162.167 57.363 163.339 52.5836 163.693 51.0518C161.365 51.1048 160.772 51.5884 157.804 51.5884V51.5915Z" fill="white"/>
<path fill-rule="evenodd" clip-rule="evenodd" d="M20.7629 10.2109H14.3394L11.0049 13.312L23.4417 13.4336L20.7629 10.2109Z" fill="white"/>
<path fill-rule="evenodd" clip-rule="evenodd" d="M15.2528 37.0817C16.098 36.0646 15.0725 36.595 16.9868 36.3548C17.4841 36.2924 19.0876 36.4047 19.6905 36.4172L22.2325 33.8558C20.1815 32.7265 15.0383 33.4534 12.1948 33.4534C12.7107 35.1505 14.047 36.0833 15.2496 37.0817H15.2528Z" fill="white"/>
<path fill-rule="evenodd" clip-rule="evenodd" d="M3.63345 25.1676H6.84676C7.3906 25.5981 7.08294 25.1644 7.9189 25.9756V22.3847C7.79148 22.2568 7.51801 22.0197 7.46207 21.9698C7.40614 21.923 6.98039 21.6329 6.84676 21.5206L2.56441 21.4956L0.842773 22.9931C1.89316 24.5093 1.8683 24.84 3.63345 25.1676Z" fill="white"/>
<path fill-rule="evenodd" clip-rule="evenodd" d="M26.652 22.6583V26.0745C26.8291 25.8467 27.6744 25.2602 27.721 25.2165C28.0722 25.2165 28.9796 25.1822 29.2904 25.2602C30.4402 25.5472 29.7534 25.2665 30.4153 25.7937C32.3172 24.7611 32.3794 24.9482 33.6069 23.1076C32.572 21.2576 33.4173 22.624 32.5348 22.2403C30.1356 22.1935 28.4389 21.9845 26.6458 22.6583H26.652Z" fill="white"/>
<path fill-rule="evenodd" clip-rule="evenodd" d="M159.411 47.8287C159.411 50.2559 161.757 49.9782 163.159 49.9782C163.693 48.9643 164.187 48.5712 163.883 47.5916L162.09 45.6792C161.362 46.066 159.414 46.8553 159.414 47.8287H159.411Z" fill="white"/>
<path fill-rule="evenodd" clip-rule="evenodd" d="M207.589 47.8291C207.589 50.0286 211.871 51.5666 211.871 47.8291V46.7559C210.833 46.2037 210.5 45.7389 209.494 46.029C208.81 46.2256 207.589 47.2832 207.589 47.8291Z" fill="white"/>
<path fill-rule="evenodd" clip-rule="evenodd" d="M12.1979 33.4531C15.0414 33.4531 20.1845 32.7262 22.2356 33.8556L23.4383 32.2427H11.1257L12.1979 33.45V33.4531Z" fill="white"/>
<path fill-rule="evenodd" clip-rule="evenodd" d="M2.56445 21.4949L6.8468 21.5199C6.98043 21.6353 7.40618 21.9223 7.46211 21.9691C7.51805 22.0191 7.79153 22.2562 7.91894 22.3841V18.9991C6.80951 18.3315 7.92826 18.7714 6.31228 18.4282C4.78953 18.6154 5.68143 18.135 4.26745 19.4328C3.51229 20.1254 3.09275 20.6994 2.56445 21.4949Z" fill="white"/>
<path fill-rule="evenodd" clip-rule="evenodd" d="M26.6516 18.9991V21.1736L31.4685 21.0644C30.9712 20.2252 31.0893 20.2158 30.3031 19.4234C29.0973 18.2098 29.6194 18.5967 28.2583 18.4282C26.6423 18.7714 27.761 18.3315 26.6516 18.9991Z" fill="white"/>
<path fill-rule="evenodd" clip-rule="evenodd" d="M7.91582 25.975C7.08297 25.1639 7.38752 25.5975 6.84368 25.167H3.63037C4.81749 27.1356 5.8741 27.9342 7.91272 29.0168V25.9719L7.91582 25.975Z" fill="white"/>
<path fill-rule="evenodd" clip-rule="evenodd" d="M19.6938 36.4166C19.0909 36.4041 17.4874 36.2918 16.9902 36.3542C15.0759 36.5944 16.1014 36.0641 15.2561 37.0811C15.9615 38.0888 16.4121 38.8594 17.0181 39.7672C18.8641 38.5255 18.7491 38.4569 19.6938 36.4166Z" fill="white"/>
<path fill-rule="evenodd" clip-rule="evenodd" d="M26.6516 26.0747V29.0198C28.6685 27.9497 29.116 27.6783 30.4181 25.7971C29.7562 25.2698 30.4429 25.5506 29.2931 25.2636C28.9824 25.1856 28.0749 25.2199 27.7238 25.2199C27.6771 25.2605 26.8319 25.8501 26.6547 26.0779L26.6516 26.0747Z" fill="white"/>
<path fill-rule="evenodd" clip-rule="evenodd" d="M14.3391 10.2105H20.7626L19.6936 9H14.8767L14.3391 10.2105Z" fill="white"/>
<path fill-rule="evenodd" clip-rule="evenodd" d="M14.877 9.00021H19.6938L17.1269 6.33594L14.877 9.00021Z" fill="white"/>
<path fill-rule="evenodd" clip-rule="evenodd" d="M26.6516 21.1741V22.6591C28.4416 21.9821 30.1384 22.1943 32.5406 22.2411C32.0838 21.2022 32.3914 21.4549 31.4685 21.0649L26.6516 21.1741Z" fill="white"/>
<path fill-rule="evenodd" clip-rule="evenodd" d="M6.30926 18.4281C7.92524 18.7713 6.80648 18.3314 7.91592 18.999C7.91592 18.6995 7.94389 18.0007 7.87552 17.748C7.6238 16.784 7.7077 17.1771 7.37829 16.6592C6.85931 17.411 6.76298 17.6169 6.30615 18.4281H6.30926Z" fill="white"/>
<path fill-rule="evenodd" clip-rule="evenodd" d="M26.6516 18.9992C27.761 18.3315 26.6392 18.7714 28.2583 18.4283L26.7915 16.5283L26.6516 18.9992Z" fill="white"/>
</svg>
