<svg width="26" height="33" viewBox="0 0 26 33" fill="none" xmlns="http://www.w3.org/2000/svg">
<path fill-rule="evenodd" clip-rule="evenodd" d="M15.5654 18.2428C14.9776 17.9217 14.0381 17.3404 13.1882 17.3404C11.8757 17.3404 11.5641 18.6831 11.9607 19.0552C12.4305 19.4979 13.9224 20.0014 14.5385 20.2665C15.4663 20.6654 16.3161 21.7795 16.3161 22.8838C16.3161 23.8786 16.1862 24.6035 15.5465 25.3794C15.1523 25.8561 14.5456 26.3329 13.8752 26.4934V27.9747H11.9985V26.5566C11.4201 26.5566 10.9149 26.3037 10.5183 26.0848C10.313 25.9704 10.11 25.8415 9.93527 25.7199C9.75586 25.5959 9.5316 25.394 9.3097 25.3332C9.38996 25.0243 10.1572 24.0732 10.2469 23.7229C10.4735 23.7424 10.9976 24.1291 11.21 24.2775C11.8852 24.7518 12.2865 24.6886 13.0631 24.6886C14.2765 24.6886 15.3411 22.5724 13.5093 21.9084C12.624 21.5873 11.2738 21.0765 10.6057 20.3906C8.99337 18.739 10.5915 15.7885 12.0008 15.6669V14.2488H13.8775C13.8775 16.2142 13.6698 15.1294 15.2137 15.9029C15.6622 16.1266 16.0328 16.348 16.4436 16.5693L15.5678 18.2452L15.5654 18.2428ZM7.49673 8.31628C8.89659 8.43547 9.18931 9.08978 13.252 9.08978C16.4483 9.08978 17.5153 8.40142 18.5068 8.31628C18.8278 8.80762 19.5903 9.66625 19.7579 9.99219C19.2881 10.0335 18.6366 10.233 18.1692 10.3522C16.4837 10.7851 16.5002 10.7122 14.8619 10.9408C14.5598 10.9822 14.2458 10.9359 13.9436 10.9627C13.1812 11.0284 12.9097 11.06 12.1165 10.9676C11.8002 10.9311 11.4626 10.9846 11.1416 10.9408C9.50799 10.7146 9.50563 10.7827 7.8343 10.3522C7.54394 10.2768 7.37397 10.233 7.07417 10.1673C6.84991 10.1187 6.50998 10.0141 6.24559 9.98975C6.42028 9.64922 7.32204 8.65438 7.49673 8.31385V8.31628ZM5.11956 2.194L6.90657 6.73281C7.01516 7.01253 7.08834 7.20226 7.19221 7.46982C7.28191 7.69846 7.3905 8.0244 7.49673 8.25304C6.09923 7.91737 4.5955 7.73738 2.86751 7.73738V9.73435L5.35799 9.873C5.58461 9.89732 5.86789 9.98489 6.11811 9.99219L4.95668 11.5659C2.61256 14.9031 0.823196 19.5344 0.202348 23.6816C-0.189519 26.3012 -0.198961 29.6993 1.91853 31.4627C3.6536 32.9076 5.90093 33 8.4339 33C10.0226 33 11.472 32.9368 12.9994 32.9368L18.6295 33C21.7125 33 24.5335 32.1535 25.5179 29.3344C26.3842 26.8534 25.9333 23.7862 25.3337 21.3197C24.439 17.6469 22.7323 13.7478 20.4779 10.79C20.2702 10.5176 20.0247 10.2695 19.8807 9.98975C20.1757 9.98246 20.8698 9.7976 21.4434 9.79516C22.0194 9.7903 22.4892 9.73192 23.1336 9.73192V7.73495C22.0973 7.73495 20.5983 7.83224 19.595 8.01953C19.2386 8.08521 18.8089 8.22385 18.5044 8.25061L20.8816 2.19157C20.3882 1.92401 19.9822 1.59564 19.3896 1.3451C18.8254 1.10673 18.3203 0.875654 17.6569 0.681064C15.5017 0.0535122 14.6849 0 12.4376 0C10.372 0 8.43626 0.561878 6.65634 1.32564C6.02133 1.59807 5.66723 1.89239 5.11956 2.19157V2.194Z" fill="#262D3D"/>
</svg>
