<svg width="30" height="30" viewBox="0 0 30 30" fill="none" xmlns="http://www.w3.org/2000/svg">
<path fill-rule="evenodd" clip-rule="evenodd" d="M16.1716 9.55115C16.1716 7.04544 18.1952 5.09804 20.2146 5.09804C21.1324 5.09804 21.6057 5.0965 22.4422 5.50723C23.0568 5.80904 23.443 6.10024 23.8657 6.60333C23.9786 6.73766 23.9965 6.73103 24.1068 6.88967C24.2736 7.12984 24.3675 7.30217 24.493 7.55802C25.3127 9.22791 24.9468 11.2217 23.5694 12.613C22.3332 13.8618 20.4194 14.1355 18.7741 13.4528C18.1769 13.2051 17.6329 12.7904 17.2348 12.2968C17.1384 12.1775 17.0814 12.138 16.9913 12.0129C16.5311 11.3759 16.1718 10.4221 16.1718 9.55115H16.1716ZM29.9998 1.64094V3.12347C29.9925 4.43345 29.9425 5.35898 29.6566 7.09868C29.4476 8.37021 29.2019 9.09888 28.8864 10.2542C28.8067 10.5465 28.7313 10.7104 28.6301 10.9941C28.5409 11.2442 28.4547 11.4979 28.3581 11.7182C27.5696 13.5169 26.6765 15.1258 25.4114 16.6229C25.2517 16.8118 25.1021 16.9748 24.9525 17.16C24.7851 17.3675 24.6699 17.4625 24.5093 17.6542C24.3209 17.8792 24.2455 17.9717 24.038 18.179C23.8575 18.3591 23.7201 18.4967 23.54 18.677C22.3014 19.9156 20.6625 21.2019 19.1713 22.1012C18.7447 22.3583 18.3693 22.5605 17.915 22.8077L7.20703 12.0703C7.88533 10.7884 8.61797 9.60639 9.53732 8.48267C9.69574 8.28913 9.81571 8.11878 9.97832 7.92766C10.066 7.82448 10.1211 7.78714 10.2037 7.6844L11.3818 6.40139C13.0293 4.75381 14.8459 3.29957 16.9531 2.24611C17.5193 1.96308 19.0953 1.28942 19.7458 1.11289C23.4992 0.0939008 24.2046 0 28.3595 0C29.2854 0 30 0.717623 30 1.6405L29.9998 1.64094Z" fill="#262D3D"/>
<path fill-rule="evenodd" clip-rule="evenodd" d="M5.39085 17.6371C5.39085 18.2619 5.61113 18.4741 5.99137 18.853L11.1184 23.98C11.8841 24.7471 12.2746 24.7058 13.3846 24.4592L15.3154 23.9291C15.583 23.8408 16.0025 23.6329 16.2305 23.6139L6.40144 13.7554C6.36366 14.0267 5.39062 16.2812 5.39062 17.6373L5.39085 17.6371Z" fill="#262D3D"/>
<path fill-rule="evenodd" clip-rule="evenodd" d="M0 14.5903C0 16.5147 1.56516 16.4074 3.47058 16.6948C3.87092 16.7551 3.7525 16.7145 3.89169 16.0795L4.40119 14.2452C4.51785 13.8992 4.66765 13.4838 4.81236 13.133C5.26728 12.0289 5.76397 11.0289 6.37509 10.0082L7.3004 8.58973C7.42833 8.40547 7.55802 8.30803 7.61724 8.08643C7.22882 8.08643 4.92902 8.23998 4.42859 8.41342C3.35679 8.78505 2.70567 10.1801 1.99224 11.2503C1.75782 11.6021 1.5234 11.9534 1.28898 12.3051C1.05456 12.6566 0.820362 13.0082 0.585941 13.3597C0.393058 13.6491 0 14.1414 0 14.5903H0Z" fill="#262D3D"/>
<path fill-rule="evenodd" clip-rule="evenodd" d="M13.2422 26.25C13.3142 26.4 13.4117 27.1852 13.4519 27.4466C13.6134 28.4948 13.6105 30 15.293 30C15.9801 30 16.9068 29.2367 17.5899 28.7813C18.3157 28.2975 19.0302 27.8408 19.7463 27.3633C21.2953 26.3304 21.6972 26.1678 21.7967 24.0816C21.8241 23.5067 21.9142 22.9228 21.9142 22.3828C21.7531 22.4259 21.1824 22.851 20.9885 22.9805C19.553 23.9374 18.5146 24.4941 16.9092 25.1707C16.2137 25.4636 13.9691 26.1897 13.2424 26.25H13.2422Z" fill="#262D3D"/>
<path fill-rule="evenodd" clip-rule="evenodd" d="M23.2034 9.49231C23.2034 6.53675 19.1975 5.81051 18.1208 8.39422C17.6522 9.51838 17.9885 10.6383 18.6754 11.325C20.3475 12.9974 23.2034 11.7643 23.2034 9.49231Z" fill="#262D3D"/>
<path fill-rule="evenodd" clip-rule="evenodd" d="M0 29.0041C0 29.7025 0.297831 30.0001 0.996012 30.0001C1.37316 30.0001 1.67475 29.5849 1.88951 29.3702L5.81522 25.4442C6.14222 25.1172 7.26549 24.1595 7.26549 23.7304C7.26549 23.032 6.96766 22.7344 6.26948 22.7344C5.8413 22.7344 4.90759 23.8327 4.58501 24.1553L0.659294 28.0812C0.440119 28.3004 0 28.6219 0 29.0041H0Z" fill="#262D3D"/>
<path fill-rule="evenodd" clip-rule="evenodd" d="M0 23.7892C0 24.4096 0.38422 24.7266 0.996012 24.7266C1.44431 24.7266 3.02361 22.9628 3.41313 22.5733C3.64843 22.338 4.40561 21.6405 4.5342 21.409C4.85191 20.8372 4.58104 20.0977 3.63275 20.0977C3.19572 20.0977 2.03312 21.4335 1.68447 21.7821C1.30467 22.1619 0 23.2867 0 23.789L0 23.7892Z" fill="#262D3D"/>
<path fill-rule="evenodd" clip-rule="evenodd" d="M5.27388 29.004C5.27388 29.3078 5.30702 29.512 5.49637 29.719C5.65081 29.888 5.81011 29.9731 5.96786 30.0001H6.20383C6.65632 29.9269 7.06838 29.4656 7.28071 29.253L9.15563 27.3781C9.57211 26.9616 9.90264 26.8244 9.90264 26.1331C9.90264 25.5635 9.14282 25.1172 8.58582 25.4606C8.37305 25.5916 6.61567 27.3984 6.28425 27.7296C6.02045 27.9937 5.27344 28.5847 5.27344 29.004H5.27388Z" fill="#262D3D"/>
</svg>
