<?xml version="1.0" encoding="UTF-8"?>
<!DOCTYPE svg PUBLIC "-//W3C//DTD SVG 1.1//EN" "http://www.w3.org/Graphics/SVG/1.1/DTD/svg11.dtd">
<!-- Creator: CorelDRAW 2021 (64-Bit) -->
<svg xmlns="http://www.w3.org/2000/svg" xml:space="preserve" width="6.30766in" height="1.11215in" version="1.1" style="shape-rendering:geometricPrecision; text-rendering:geometricPrecision; image-rendering:optimizeQuality; fill-rule:evenodd; clip-rule:evenodd"
viewBox="0 0 6033.68 1063.85"
 xmlns:xlink="http://www.w3.org/1999/xlink"
 xmlns:xodm="http://www.corel.com/coreldraw/odm/2003">
 <defs>
  <style type="text/css">
   <![CDATA[
    .fil0 {fill:white;fill-rule:nonzero}
   ]]>
  </style>
 </defs>
 <g id="Layer_x0020_1">
  <metadata id="CorelCorpID_0Corel-Layer"/>
  <path class="fil0" d="M1442.39 792.97c-25.66,0 -50.56,-2.52 -75.08,-7.45 -24.4,-4.92 -47.41,-12.13 -68.79,-21.61 -21.5,-9.49 -40.74,-20.89 -57.72,-34.22l46.78 -79.61c20.63,16.21 44.52,28.7 71.56,37.58 26.91,8.77 54.71,13.09 83.26,13.09 32.82,0 58.35,-5.28 76.59,-15.97 18.23,-10.68 27.29,-25.7 27.29,-45.15l0 -0.36c0,-13.69 -4.02,-24.37 -12.2,-32.42 -8.05,-7.92 -18.61,-13.81 -31.69,-17.53 -12.96,-3.84 -29.68,-7.2 -50.05,-10.21 -0.75,-0.24 -1.51,-0.36 -2.01,-0.36 -0.63,0 -1.38,-0.12 -2.14,-0.36l-8.05 -1.08c-35.84,-5.4 -65.52,-12.13 -89.16,-20.17 -23.52,-8.16 -43.64,-22.33 -59.99,-42.62 -16.48,-20.29 -24.78,-49.11 -24.78,-86.34l0 -0.36c0,-33.02 7.8,-61.36 23.27,-84.77 15.47,-23.41 37.98,-41.31 67.41,-53.67 29.43,-12.25 65.14,-18.49 106.9,-18.49 19.12,0 38.73,2.16 58.73,6.36 19.99,4.2 39.61,10.33 58.73,18.25 19.12,8.04 37.35,17.65 54.58,28.94l-42.76 81.53c-20.63,-13.57 -42.25,-24.13 -64.64,-31.58 -22.51,-7.57 -44.01,-11.29 -64.64,-11.29 -31.07,0 -54.96,4.8 -71.93,14.53 -16.98,9.84 -25.4,23.41 -25.4,41.06l0 0.36c0,14.77 4.39,26.41 13.33,34.94 8.8,8.53 19.75,14.89 32.7,18.85 13.08,3.96 31.31,8.16 54.96,12.61 1.01,0.24 1.89,0.48 2.89,0.6 1.01,0.12 2.01,0.24 3.02,0.48 1.38,0.24 2.89,0.6 4.15,0.96 1.38,0.24 2.77,0.6 4.27,0.84 33.96,6.36 62.25,14.05 84.89,23.06 22.76,9 41.75,23.53 56.97,43.58 15.22,20.05 22.89,47.43 22.89,82.13l0 0.72c0,32.54 -8.05,60.52 -24.02,83.69 -15.97,23.29 -39.24,40.94 -69.8,53.19 -30.56,12.13 -67.41,18.25 -110.29,18.25zm-1359.54 -42.92l0 -436.25 -82.85 -47.84 0 265.96 0 265.96 230.33 132.98 230.33 132.98 230.33 -132.98 230.33 -132.98 0 -265.96 0 -265.96 -460.66 -265.96 -82.85 47.83 460.65 265.97 0 436.25 -377.81 218.13 -377.81 -218.13zm604.97 -349.28l0 262.31 -227.17 131.16 -227.17 -131.16 0 -262.3 -82.85 -47.84 0 357.98 310.02 178.99 310.02 -178.99 0 -357.98 -460.66 -265.96 -79.69 46.01 -3.16 1.82 460.66 265.97zm-528.45 -226.83l-82.85 47.83 460.65 265.97 0 88.36 -76.53 44.19 -76.53 -44.19 0 -88.36 -82.85 -47.84 0 184.03 159.38 92.02 159.38 -92.02 0 -184.03 -460.66 -265.96zm1752.36 619.03c-41.25,0 -76.59,-7.45 -105.77,-22.34 -29.18,-14.89 -51.44,-36.62 -66.65,-65.08 -15.22,-28.46 -22.89,-62.8 -22.89,-102.91l0 -326.49 100.98 0 0 328.89c0,29.42 8.18,52.11 24.65,68.32 16.48,16.21 39.74,24.26 69.67,24.26 30.18,0 53.57,-8.04 70.17,-24.26 16.6,-16.21 24.9,-38.9 24.9,-68.32l0 -328.89 100.86 0 0 326.49c0,40.11 -7.68,74.45 -23.02,102.91 -15.34,28.46 -37.6,50.19 -67.03,65.08 -29.3,14.89 -64.64,22.34 -105.89,22.34zm672.69 -291.3l0 99.9c0,38.06 -8.05,71.44 -24.15,100.5 -16.1,28.94 -38.86,51.27 -68.29,67.12 -29.56,15.85 -63.63,23.77 -102.5,23.77 -38.99,0 -73.44,-7.45 -103.37,-22.34 -29.81,-14.89 -52.82,-35.9 -69.17,-63.16 -16.35,-27.25 -24.52,-58.72 -24.52,-94.62l0 -150.94c0,-37.94 8.05,-71.44 24.15,-100.26 16.1,-28.82 38.86,-51.15 68.29,-67 29.55,-15.85 63.63,-23.77 102.49,-23.77 31.94,0 61.37,6.36 88.41,18.85 27.04,12.61 49.55,30.26 67.54,53.32 18.11,22.93 30.31,49.59 36.72,79.85l-109.04 0c-3.77,-10.81 -9.81,-20.17 -18.23,-27.98 -8.55,-7.81 -18.49,-13.81 -29.93,-17.89 -11.32,-4.2 -23.27,-6.24 -35.47,-6.24 -17.98,0 -33.71,3.84 -47.41,11.29 -13.58,7.57 -24.15,18.13 -31.69,32.06 -7.42,13.81 -11.19,29.78 -11.19,47.79l0 150.94c0,15.97 3.77,30.02 11.44,42.27 7.55,12.13 18.36,21.49 32.45,28.1 13.96,6.6 30.18,9.84 48.54,9.84 18.24,0 34.08,-3.6 47.79,-10.68 13.58,-7.2 24.15,-17.53 31.44,-31.22 7.42,-13.57 11.07,-29.66 11.07,-48.15l0 -8.41 -81.12 0 0 -92.94 185.75 0zm238.06 -225.5l64.02 0 204.86 511.53 -108.66 0 -128.28 -349.3 -128.15 349.3 -108.66 0 204.86 -511.53zm-106.51 336.7l281.83 0 0 92.82 -281.83 0 0 -92.82zm481.92 -123.8l186.5 0c10.31,0 19.36,-2.52 27.16,-7.45 7.92,-4.92 13.96,-11.89 18.23,-21.13 4.4,-9.13 6.67,-19.69 6.92,-31.58 0,-12.01 -2.27,-22.57 -6.54,-31.7 -4.27,-9.13 -10.32,-16.21 -18.23,-21.13 -7.8,-4.92 -17.11,-7.32 -27.54,-7.32l-186.5 0 0 -92.94 194.55 0c29.42,0 55.33,6.36 77.72,19.09 22.39,12.61 39.74,30.5 51.94,53.56 12.33,23.17 18.49,49.95 18.49,80.45 0,30.5 -6.16,57.28 -18.49,80.33 -12.2,23.17 -29.68,40.94 -52.07,53.67 -22.51,12.61 -48.42,18.97 -77.59,18.97l-194.55 0 0 -92.82zm-40.12 -213.25l100.86 0 0 511.88 -100.86 0 0 -511.88zm152.93 290.22l107.9 -16.09 144.37 237.75 -122.24 0 -130.04 -221.66zm761.48 -289.87l80.99 0 102.5 341.26 68.92 -341.26 103.88 0 -123.5 511.53 -95.08 0 -94.95 -357.47 -99.48 357.47 -95.07 0 -123.5 -511.53 103.88 0 68.91 341.26 102.5 -341.26zm519.77 511.53l-104.63 0 0 -511.53 104.63 0 0 511.53zm150.67 -298.63l186.5 0c10.31,0 19.36,-2.52 27.16,-7.45 7.92,-4.92 13.96,-11.89 18.23,-21.13 4.4,-9.13 6.67,-19.69 6.92,-31.58 0,-12.01 -2.27,-22.57 -6.54,-31.7 -4.27,-9.13 -10.32,-16.21 -18.23,-21.13 -7.8,-4.92 -17.11,-7.32 -27.54,-7.32l-186.5 0 0 -92.94 194.55 0c29.42,0 55.33,6.36 77.72,19.09 22.39,12.61 39.74,30.5 51.94,53.56 12.33,23.17 18.49,49.95 18.49,80.45 0,30.5 -6.16,57.28 -18.49,80.33 -12.2,23.17 -29.68,40.94 -52.07,53.67 -22.51,12.61 -48.42,18.97 -77.59,18.97l-194.55 0 0 -92.82zm-40.12 -213.25l100.86 0 0 511.88 -100.86 0 0 -511.88zm152.93 290.22l107.9 -16.09 144.37 237.75 -122.24 0 -130.04 -221.66zm338.93 -289.87l100.86 0 0 511.53 -100.86 0 0 -511.53zm36.47 418.71l322.32 0 0 92.82 -322.32 0 0 -92.82zm0 -207.61l281.83 0 0 92.82 -281.83 0 0 -92.82zm0 -211.1l322.32 0 0 92.94 -322.32 0 0 -92.94zm465.32 418.71l128.65 0c33.08,0 58.73,-7.69 76.97,-22.93 18.11,-15.25 27.29,-36.87 27.29,-64.72l0 -150.58c0,-27.86 -9.18,-49.47 -27.29,-64.72 -18.23,-15.25 -43.89,-22.81 -76.97,-22.81l-128.65 0 0 -92.94 126.39 0c44.65,0 82.88,7.2 114.45,21.5 31.57,14.29 55.46,35.18 71.93,62.56 16.48,27.5 24.78,60.52 24.78,99.31l0 144.93c0,36.74 -7.92,68.92 -23.77,96.3 -15.85,27.5 -39.62,48.87 -71.31,64.12 -31.69,15.25 -70.55,22.81 -116.46,22.81l-126.01 0 0 -92.82zm-50.81 -418.71l100.86 0 0 511.53 -100.86 0 0 -511.53z"/>
 </g>
</svg>
