<svg width="59" height="58" viewBox="0 0 59 58" fill="none" xmlns="http://www.w3.org/2000/svg">
<path fill-rule="evenodd" clip-rule="evenodd" d="M36.2475 44.9504L36.0119 45.0894L36.2475 44.9504ZM36.2475 44.9504L39.7839 42.2035C40.7184 41.2851 40.3503 41.5671 43.135 41.5671C42.4442 42.5986 38.0052 44.9112 36.2475 44.9504ZM45.3099 39.6338H42.0475C42.1749 39.1568 43.897 36.7743 43.9808 35.7671H47.6058C47.4755 36.3262 46.9102 37.2995 46.5915 37.7738L45.3098 39.6338H45.3099ZM48.4515 33.8338H44.7058C44.9608 32.7393 45.3099 31.2926 45.3099 29.9671H49.0558C49.0558 32.1664 48.5421 32.7467 48.4516 33.8338H48.4515ZM10.5101 29.0005C10.5101 24.611 12.3386 20.4658 15.3736 17.4308C18.4095 14.3949 22.5933 12.5673 26.9433 12.5673C32.2642 12.5673 37.4254 15.3359 40.4051 19.6471C41.0411 20.5674 41.3701 21.2436 41.8879 22.2727C43.824 26.1211 43.824 31.8801 41.8879 35.7285C39.8444 39.7903 37.7331 41.9017 33.6713 43.9451C29.8214 45.882 24.064 45.8819 20.2154 43.9451C19.1864 43.4272 18.5103 43.0986 17.5898 42.4623C13.2786 39.4826 10.5101 34.3215 10.5101 29.0005ZM44.7058 24.1673H48.4515C48.542 25.2544 49.0557 25.8346 49.0557 28.034H45.3098C45.3098 27.1988 44.9409 24.6938 44.7056 24.1673H44.7058ZM42.0474 18.3673H45.3098C45.4115 18.748 45.6702 18.9302 45.8976 19.2294C46.4273 19.9262 47.419 21.4329 47.6056 22.234H43.9807C43.9346 21.6805 43.3529 20.7328 43.0959 20.2187L42.0473 18.3674L42.0474 18.3673ZM36.2474 13.0507C38.0292 13.0903 42.4414 15.3984 43.1349 16.434C40.9503 16.434 40.6959 16.7541 39.9024 15.9207L37.0222 13.6051C36.6998 13.3986 36.4496 13.3265 36.2475 13.0507H36.2474ZM36.2474 13.0507L35.9876 12.9842L36.2474 13.0507ZM8.57666 28.034C8.57666 31.5297 8.78207 33.7786 10.3487 36.8951C12.4469 41.0687 14.9157 43.5172 19.0487 45.5951C20.6859 46.4182 23.5892 47.3672 25.9766 47.3672H33.7099C36.1252 47.3672 38.9818 46.4276 40.6377 45.5951C41.1618 45.3316 41.5888 45.1452 42.0717 44.854C45.4679 42.8054 47.569 40.4135 49.3377 36.8951C51.7298 32.1371 51.7298 25.8642 49.3377 21.1062C47.2527 16.9588 44.7851 14.4913 40.6377 12.4062C38.9818 11.5737 36.1253 10.6342 33.7099 10.6342H25.9766C23.5893 10.6342 20.6859 11.5832 19.0487 12.4062C14.8716 14.5062 12.4487 16.9291 10.3487 21.1062C9.51624 22.7621 8.57666 25.6186 8.57666 28.0341V28.034Z" fill="white"/>
<path fill-rule="evenodd" clip-rule="evenodd" d="M13.4089 28.3958C13.4089 30.8805 13.5005 31.8827 14.409 34.1624C15.1167 35.9382 16.3457 37.3853 16.4297 37.7C16.819 37.494 17.7522 36.7417 18.0006 36.3708C16.5333 34.1796 15.3422 32.1073 15.3422 29.1209C15.3422 26.7201 16.1262 24.4073 17.3945 22.4733L18.6934 20.8722C19.5912 19.9737 20.9045 19.0267 22.11 18.4889C28.8217 15.4939 33.4088 19.6343 34.192 19.8168C34.546 19.288 34.9394 18.8747 35.2795 18.3669C34.8548 17.7872 32.8585 16.7455 32.0359 16.4146C28.565 15.0182 24.5469 15.1487 21.1816 16.7148C19.6208 17.441 18.5056 18.286 17.366 19.4242C15.1382 21.6489 13.4087 25.0113 13.4087 28.396L13.4089 28.3958Z" fill="white"/>
<path fill-rule="evenodd" clip-rule="evenodd" d="M37.6971 24.4088C37.7239 25.6181 39.6706 28.5212 37.5262 33.6629C35.3448 38.8931 29.258 41.7843 23.5156 40.0403C23.0619 39.9025 22.8833 39.7664 22.3512 39.7546C22.2897 40.4939 21.8098 40.814 21.7471 41.567L23.8724 42.2208C30.0809 43.6665 36.4801 40.485 39.1888 34.8423C40.6696 31.7577 40.8777 28.2011 39.8723 24.8917C39.7435 24.4676 39.6158 24.2608 39.5094 23.8047C38.7564 23.8673 38.4363 24.3473 37.6969 24.4088H37.6971Z" fill="white"/>
<path fill-rule="evenodd" clip-rule="evenodd" d="M54.9762 25.1327C54.9762 23.9119 56.9094 23.9119 56.9094 25.1327C56.9094 26.3534 54.9762 26.3534 54.9762 25.1327ZM53.0429 24.891C53.0429 27.7803 54.9762 27.4327 54.9762 28.1536V34.7993H52.0762V36.7326C57.6124 36.7326 56.9094 37.4824 56.9094 32.8659C56.9094 31.2145 56.9094 29.5631 56.9094 27.9118C58.2491 27.203 58.8427 26.654 58.8427 24.891C58.8427 23.4119 57.5726 22.2327 55.7011 22.2327C54.3719 22.2327 53.0428 23.5617 53.0428 24.891H53.0429Z" fill="white"/>
<path fill-rule="evenodd" clip-rule="evenodd" d="M2.77606 33.8336C2.77606 32.6129 4.70934 32.6129 4.70934 33.8336C4.70934 35.0544 2.77606 35.0544 2.77606 33.8336ZM2.77606 31.0544C1.43642 31.7633 0.842773 32.3122 0.842773 34.0752C0.842773 35.5543 2.11287 36.7336 3.98438 36.7336C6.0883 36.7336 7.56321 34.0054 5.99366 31.9451C5.78718 31.6741 5.62407 31.5618 5.33681 31.3936C5.03102 31.2144 4.70934 31.1798 4.70934 30.8127V24.1668H7.60933V22.2335C3.51501 22.2335 2.75766 21.7598 2.77092 23.6785L2.77606 31.0544Z" fill="white"/>
<path fill-rule="evenodd" clip-rule="evenodd" d="M18.2422 28.396C18.2422 30.1162 18.2989 31.3303 19.0945 32.8603C19.2925 33.241 19.6103 33.735 19.8832 34.1259C21.3512 36.2278 23.9628 37.7002 26.5797 37.7002C28.2587 37.7002 28.8963 37.6783 30.4517 36.9806C31.9531 36.3071 31.8873 36.0976 32.7421 35.5251C32.4118 35.032 32.1922 35.0584 31.5338 34.0752C31.123 34.1849 30.6212 34.7672 29.5176 35.2006C27.3704 36.044 25.7416 35.8924 23.7179 34.883C22.7958 34.4231 22.0553 33.7014 21.4671 32.9047C19.3569 30.0466 20.5539 27.6034 20.6589 26.342C20.0827 26.294 19.4821 25.8858 18.8465 25.7378C18.5737 26.3065 18.2423 27.5494 18.2423 28.3962L18.2422 28.396Z" fill="white"/>
<path fill-rule="evenodd" clip-rule="evenodd" d="M21.1423 22.4747C21.3469 22.7801 21.5101 22.8926 21.7791 23.167C22.0658 23.4595 22.1386 23.6079 22.3507 23.9248C22.6937 23.8332 23.0123 23.512 23.3214 23.3248C27.1529 21.0047 31.6501 22.8339 33.0729 26.2524C34.0887 28.6928 33.5924 29.188 33.4673 30.6913C33.7158 30.8106 35.0499 31.1455 35.4005 31.1747C35.8878 29.0827 35.6949 27.1569 34.8124 25.2379C34.5854 24.7444 34.3458 24.3813 34.0498 23.9463C32.6846 21.9401 29.9908 20.2997 27.5465 20.2997C25.3859 20.2997 24.1306 20.4469 22.2528 21.6518L21.1423 22.4746V22.4747Z" fill="white"/>
<path fill-rule="evenodd" clip-rule="evenodd" d="M54.9752 45.4333C54.9752 44.2126 56.9085 44.2126 56.9085 45.4333C56.9085 46.6541 54.9752 46.6541 54.9752 45.4333ZM52.9211 44.4666H49.7795C49.3897 44.4666 48.2585 43.051 47.8462 42.775L46.5459 44.133C46.7235 44.4125 48.4537 46.1964 48.7703 46.3216C49.3368 46.5459 52.3054 46.3999 53.1629 46.3999C53.8717 47.7396 54.4206 48.3332 56.1836 48.3332C57.6627 48.3332 58.842 47.0631 58.842 45.1916C58.842 42.5246 54.8815 41.4842 53.5021 43.8392C53.323 44.145 53.2883 44.4666 52.9212 44.4666H52.9211Z" fill="white"/>
<path fill-rule="evenodd" clip-rule="evenodd" d="M2.77606 45.4336C2.77606 44.2129 4.70934 44.2129 4.70934 45.4336C4.70934 46.6543 2.77606 46.6543 2.77606 45.4336ZM0.842773 45.192C0.842773 48.2385 3.71014 49.0556 5.56074 47.7349C6.04241 47.3911 6.24065 46.932 6.52194 46.4003C7.37931 46.4003 10.3479 46.5463 10.9144 46.322C11.2309 46.1968 12.9612 44.4128 13.1677 44.1045L11.7442 42.7486C11.5127 43.0814 10.2726 44.467 9.90528 44.467C4.6263 44.467 7.30068 44.5564 5.69983 43.235C3.73201 41.6109 0.842893 42.998 0.842893 45.192H0.842773Z" fill="white"/>
<path fill-rule="evenodd" clip-rule="evenodd" d="M2.77618 12.5671C2.77618 11.3464 4.70946 11.3464 4.70946 12.5671C4.70946 13.7879 2.77618 13.7879 2.77618 12.5671ZM0.842893 12.3255C0.842893 15.9974 4.95514 16.2571 6.18282 14.1613C6.72305 13.239 6.39098 13.5338 9.90528 13.5338C10.2727 13.5338 11.5127 14.9194 11.7178 15.2255L13.1967 13.8045C12.5637 13.371 11.4202 11.879 10.9144 11.6788C10.3479 11.4545 7.37931 11.6005 6.52194 11.6005C6.26503 11.1149 6.08316 10.6605 5.63124 10.3162C3.57093 8.74668 0.842773 10.2216 0.842773 12.3255H0.842893Z" fill="white"/>
<path fill-rule="evenodd" clip-rule="evenodd" d="M54.9758 12.5664C54.9758 11.3457 56.9091 11.3457 56.9091 12.5664C56.9091 13.7872 54.9758 13.7872 54.9758 12.5664ZM53.1633 11.5997C52.4314 11.5997 49.3175 11.5125 48.8606 11.6469C48.2925 11.8141 47.1295 13.3649 46.5176 13.7747L47.8735 15.1983C48.2591 14.9486 49.3903 13.533 49.7801 13.533C53.0404 13.533 52.967 13.2233 53.4593 14.0829C53.6307 14.3821 53.7388 14.5612 53.9856 14.765C55.6978 16.1782 58.8425 15.5422 58.8425 12.3247C58.8425 10.3728 56.2942 8.71669 54.1245 10.2651C53.6429 10.6089 53.4446 11.068 53.1633 11.5997Z" fill="white"/>
<path fill-rule="evenodd" clip-rule="evenodd" d="M25.0087 29.1206C24.9037 28.4415 25.58 27.182 26.8443 27.0957C27.9146 27.0227 28.7805 27.9423 28.846 28.902C28.919 29.9718 27.9993 30.839 27.0398 30.9038C26.5871 30.9343 25.9165 30.665 25.6405 30.4222C25.3174 30.1379 25.0584 29.4422 25.0087 29.1207V29.1206ZM23.0754 28.758C23.0754 34.2512 30.8087 34.2512 30.8087 28.758C30.8087 26.7676 29.1327 25.1331 26.7004 25.1331C24.8357 25.1331 23.0754 26.8933 23.0754 28.758Z" fill="white"/>
<path fill-rule="evenodd" clip-rule="evenodd" d="M43.3753 55.1001C43.3753 53.8794 45.3086 53.8794 45.3086 55.1001C45.3086 56.3209 43.3753 56.3209 43.3753 55.1001ZM36.9712 50.1461L40.3725 52.9072C40.8014 53.2556 41.0846 53.5716 41.5628 53.8918C41.5522 54.3684 41.442 54.4234 41.442 55.3418C41.442 56.8208 42.7121 58.0001 44.5836 58.0001C46.0627 58.0001 47.242 56.73 47.242 54.8585C47.242 53.3794 45.9719 52.2001 44.1004 52.2001C42.7617 52.2001 43.703 53.256 40.9899 50.8398L38.1796 48.5752C37.9739 48.7259 37.0746 49.7594 36.9713 50.1461H36.9712Z" fill="white"/>
<path fill-rule="evenodd" clip-rule="evenodd" d="M43.3763 2.89999C43.3763 1.67924 45.3096 1.67924 45.3096 2.89999C45.3096 4.12073 43.3763 4.12073 43.3763 2.89999ZM41.443 2.65837C41.443 3.89405 41.4733 3.3218 41.6847 4.22923C41.1553 4.58365 40.5154 5.33813 40.0232 5.83021C38.304 7.54948 38.5431 6.87243 38.5431 9.66667H40.4763V8.33754C40.4763 7.89733 42.6545 6.09513 43.0139 5.55836C43.9213 5.76974 43.349 5.79998 44.5848 5.79998C46.0639 5.79998 47.2431 4.52988 47.2431 2.65837C47.2431 1.17928 45.973 0 44.1015 0C42.7723 0 41.4432 1.32901 41.4432 2.65837H41.443Z" fill="white"/>
<path fill-rule="evenodd" clip-rule="evenodd" d="M14.3764 2.89999C14.3764 1.67924 16.3097 1.67924 16.3097 2.89999C16.3097 4.12073 14.3764 4.12073 14.3764 2.89999ZM12.4431 2.65837C12.4431 4.68438 13.5588 5.79998 15.5847 5.79998C16.1044 5.79998 16.2397 5.65909 16.6722 5.55836C17.0315 6.09513 19.2097 7.89733 19.2097 8.33754V9.66667H21.143C21.143 6.88832 21.3793 7.54685 19.7231 5.89067C19.2271 5.39465 18.5278 4.58186 18.0012 4.22923C18.2126 3.3218 18.2428 3.89417 18.2428 2.65837C18.2428 1.17928 16.9728 0 15.1012 0C13.772 0 12.4429 1.32901 12.4429 2.65837H12.4431Z" fill="white"/>
<path fill-rule="evenodd" clip-rule="evenodd" d="M14.3763 55.0995C14.3763 53.8788 16.3096 53.8788 16.3096 55.0995C16.3096 56.3203 14.3763 56.3203 14.3763 55.0995ZM16.6424 52.4115C15.7647 52.2298 16.337 52.1996 15.1012 52.1996C13.6222 52.1996 12.4429 53.4697 12.4429 55.3412C12.4429 56.8202 13.713 57.9995 15.5845 57.9995C17.0636 57.9995 18.2428 56.7294 18.2428 54.8579C18.2428 54.3383 18.102 54.203 18.0012 53.7704L21.8976 49.9335L20.5098 48.6035L16.6422 52.4115H16.6424Z" fill="white"/>
<path fill-rule="evenodd" clip-rule="evenodd" d="M28.8764 2.89999C28.8764 1.67924 30.8097 1.67924 30.8097 2.89999C30.8097 4.12073 28.8764 4.12073 28.8764 2.89999ZM26.9431 2.65837C26.9431 3.57154 26.9968 4.00698 27.5922 4.78846C28.8763 6.47404 28.8765 3.7993 28.8765 8.69996H30.8098C30.8098 3.9035 30.7509 6.42098 32.0418 4.85693C33.455 3.14471 32.819 0 29.6015 0C28.2722 0 26.9431 1.32901 26.9431 2.65837Z" fill="white"/>
<path fill-rule="evenodd" clip-rule="evenodd" d="M28.876 55.1003C28.876 53.8795 30.8093 53.8795 30.8093 55.1003C30.8093 56.321 28.876 56.321 28.876 55.1003ZM28.876 52.0795C28.876 52.4419 28.6354 52.44 28.3261 52.6171C26.0766 53.9053 26.4604 58.0003 30.0844 58.0003C32.7513 58.0003 33.7918 54.0398 31.4368 52.6603C30.5556 52.1441 30.8093 52.5612 30.8093 49.3003H28.876V52.0795Z" fill="white"/>
</svg>
